%TF.GenerationSoftware,KiCad,Pcbnew,5.1.6-c6e7f7d~87~ubuntu20.04.1*%
%TF.CreationDate,2020-08-30T17:45:41-04:00*%
%TF.ProjectId,noob_tester,6e6f6f62-5f74-4657-9374-65722e6b6963,rev?*%
%TF.SameCoordinates,Original*%
%TF.FileFunction,Soldermask,Top*%
%TF.FilePolarity,Negative*%
%FSLAX46Y46*%
G04 Gerber Fmt 4.6, Leading zero omitted, Abs format (unit mm)*
G04 Created by KiCad (PCBNEW 5.1.6-c6e7f7d~87~ubuntu20.04.1) date 2020-08-30 17:45:41*
%MOMM*%
%LPD*%
G01*
G04 APERTURE LIST*
%ADD10C,0.150000*%
%ADD11O,1.800000X1.800000*%
%ADD12R,1.800000X1.800000*%
%ADD13R,1.000000X0.900000*%
%ADD14R,0.550000X0.500000*%
%ADD15R,0.550000X0.600000*%
G04 APERTURE END LIST*
D10*
X140716000Y-116205000D02*
X140716000Y-116459000D01*
X140716000Y-114935000D02*
X140716000Y-115189000D01*
X141097000Y-120523000D02*
X140335000Y-123571000D01*
X146177000Y-120523000D02*
X145415000Y-123571000D01*
X148590000Y-120777000D02*
X148590000Y-121793000D01*
X148844000Y-123571000D02*
X149860000Y-123571000D01*
X148590000Y-122301000D02*
X148590000Y-123317000D01*
X148844000Y-122047000D02*
X149860000Y-122047000D01*
X150114000Y-122301000D02*
X150114000Y-123317000D01*
X150114000Y-120777000D02*
X150114000Y-121793000D01*
X148844000Y-120523000D02*
X149860000Y-120523000D01*
X146558000Y-120777000D02*
X146558000Y-121793000D01*
X146812000Y-123571000D02*
X147828000Y-123571000D01*
X146558000Y-122301000D02*
X146558000Y-123317000D01*
X146812000Y-122047000D02*
X147828000Y-122047000D01*
X148082000Y-122301000D02*
X148082000Y-123317000D01*
X148082000Y-120777000D02*
X148082000Y-121793000D01*
X146812000Y-120523000D02*
X147828000Y-120523000D01*
X143510000Y-120777000D02*
X143510000Y-121793000D01*
X143764000Y-123571000D02*
X144780000Y-123571000D01*
X143510000Y-122301000D02*
X143510000Y-123317000D01*
X143764000Y-122047000D02*
X144780000Y-122047000D01*
X145034000Y-122301000D02*
X145034000Y-123317000D01*
X145034000Y-120777000D02*
X145034000Y-121793000D01*
X143764000Y-120523000D02*
X144780000Y-120523000D01*
X141478000Y-120777000D02*
X141478000Y-121793000D01*
X141732000Y-123571000D02*
X142748000Y-123571000D01*
X141478000Y-122301000D02*
X141478000Y-123317000D01*
X141732000Y-122047000D02*
X142748000Y-122047000D01*
X143002000Y-122301000D02*
X143002000Y-123317000D01*
X143002000Y-120777000D02*
X143002000Y-121793000D01*
X141732000Y-120523000D02*
X142748000Y-120523000D01*
X138430000Y-120777000D02*
X138430000Y-121793000D01*
X138684000Y-123571000D02*
X139700000Y-123571000D01*
X138430000Y-122301000D02*
X138430000Y-123317000D01*
X138684000Y-122047000D02*
X139700000Y-122047000D01*
X139954000Y-122301000D02*
X139954000Y-123317000D01*
X139954000Y-120777000D02*
X139954000Y-121793000D01*
X138684000Y-120523000D02*
X139700000Y-120523000D01*
X136398000Y-120777000D02*
X136398000Y-121793000D01*
X136652000Y-123571000D02*
X137668000Y-123571000D01*
X136398000Y-122301000D02*
X136398000Y-123317000D01*
X136652000Y-122047000D02*
X137668000Y-122047000D01*
X137922000Y-122301000D02*
X137922000Y-123317000D01*
X137922000Y-120777000D02*
X137922000Y-121793000D01*
X136652000Y-120523000D02*
X137668000Y-120523000D01*
X143510000Y-114427000D02*
X143510000Y-115443000D01*
X143764000Y-117221000D02*
X144780000Y-117221000D01*
X143510000Y-115951000D02*
X143510000Y-116967000D01*
X143764000Y-115697000D02*
X144780000Y-115697000D01*
X145034000Y-115951000D02*
X145034000Y-116967000D01*
X145034000Y-114427000D02*
X145034000Y-115443000D01*
X143764000Y-114173000D02*
X144780000Y-114173000D01*
X141478000Y-114427000D02*
X141478000Y-115443000D01*
X141732000Y-117221000D02*
X142748000Y-117221000D01*
X141478000Y-115951000D02*
X141478000Y-116967000D01*
X141732000Y-115697000D02*
X142748000Y-115697000D01*
X143002000Y-115951000D02*
X143002000Y-116967000D01*
X143002000Y-114427000D02*
X143002000Y-115443000D01*
X141732000Y-114173000D02*
X142748000Y-114173000D01*
X138430000Y-114427000D02*
X138430000Y-115443000D01*
X138684000Y-117221000D02*
X139700000Y-117221000D01*
X138430000Y-115951000D02*
X138430000Y-116967000D01*
X138684000Y-115697000D02*
X139700000Y-115697000D01*
X139954000Y-115951000D02*
X139954000Y-116967000D01*
X139954000Y-114427000D02*
X139954000Y-115443000D01*
X138684000Y-114173000D02*
X139700000Y-114173000D01*
X136398000Y-114427000D02*
X136398000Y-115443000D01*
X136652000Y-117221000D02*
X137668000Y-117221000D01*
X136398000Y-115951000D02*
X136398000Y-116967000D01*
X136652000Y-115697000D02*
X137668000Y-115697000D01*
X137922000Y-115951000D02*
X137922000Y-116967000D01*
X137922000Y-114427000D02*
X137922000Y-115443000D01*
X136652000Y-114173000D02*
X137668000Y-114173000D01*
X140716000Y-83820000D02*
X140716000Y-84074000D01*
X140716000Y-82550000D02*
X140716000Y-82804000D01*
X141097000Y-88138000D02*
X140335000Y-91186000D01*
X146177000Y-88138000D02*
X145415000Y-91186000D01*
X148590000Y-88392000D02*
X148590000Y-89408000D01*
X148844000Y-91186000D02*
X149860000Y-91186000D01*
X148590000Y-89916000D02*
X148590000Y-90932000D01*
X148844000Y-89662000D02*
X149860000Y-89662000D01*
X150114000Y-89916000D02*
X150114000Y-90932000D01*
X150114000Y-88392000D02*
X150114000Y-89408000D01*
X148844000Y-88138000D02*
X149860000Y-88138000D01*
X146558000Y-88392000D02*
X146558000Y-89408000D01*
X146812000Y-91186000D02*
X147828000Y-91186000D01*
X146558000Y-89916000D02*
X146558000Y-90932000D01*
X146812000Y-89662000D02*
X147828000Y-89662000D01*
X148082000Y-89916000D02*
X148082000Y-90932000D01*
X148082000Y-88392000D02*
X148082000Y-89408000D01*
X146812000Y-88138000D02*
X147828000Y-88138000D01*
X143510000Y-88392000D02*
X143510000Y-89408000D01*
X143764000Y-91186000D02*
X144780000Y-91186000D01*
X143510000Y-89916000D02*
X143510000Y-90932000D01*
X143764000Y-89662000D02*
X144780000Y-89662000D01*
X145034000Y-89916000D02*
X145034000Y-90932000D01*
X145034000Y-88392000D02*
X145034000Y-89408000D01*
X143764000Y-88138000D02*
X144780000Y-88138000D01*
X141478000Y-88392000D02*
X141478000Y-89408000D01*
X141732000Y-91186000D02*
X142748000Y-91186000D01*
X141478000Y-89916000D02*
X141478000Y-90932000D01*
X141732000Y-89662000D02*
X142748000Y-89662000D01*
X143002000Y-89916000D02*
X143002000Y-90932000D01*
X143002000Y-88392000D02*
X143002000Y-89408000D01*
X141732000Y-88138000D02*
X142748000Y-88138000D01*
X138430000Y-88392000D02*
X138430000Y-89408000D01*
X138684000Y-91186000D02*
X139700000Y-91186000D01*
X138430000Y-89916000D02*
X138430000Y-90932000D01*
X138684000Y-89662000D02*
X139700000Y-89662000D01*
X139954000Y-89916000D02*
X139954000Y-90932000D01*
X139954000Y-88392000D02*
X139954000Y-89408000D01*
X138684000Y-88138000D02*
X139700000Y-88138000D01*
X136398000Y-88392000D02*
X136398000Y-89408000D01*
X136652000Y-91186000D02*
X137668000Y-91186000D01*
X136398000Y-89916000D02*
X136398000Y-90932000D01*
X136652000Y-89662000D02*
X137668000Y-89662000D01*
X137922000Y-89916000D02*
X137922000Y-90932000D01*
X137922000Y-88392000D02*
X137922000Y-89408000D01*
X136652000Y-88138000D02*
X137668000Y-88138000D01*
X136398000Y-82042000D02*
X136398000Y-83058000D01*
X136652000Y-84836000D02*
X137668000Y-84836000D01*
X136398000Y-83566000D02*
X136398000Y-84582000D01*
X136652000Y-83312000D02*
X137668000Y-83312000D01*
X137922000Y-83566000D02*
X137922000Y-84582000D01*
X137922000Y-82042000D02*
X137922000Y-83058000D01*
X136652000Y-81788000D02*
X137668000Y-81788000D01*
X138430000Y-82042000D02*
X138430000Y-83058000D01*
X138684000Y-84836000D02*
X139700000Y-84836000D01*
X138430000Y-83566000D02*
X138430000Y-84582000D01*
X138684000Y-83312000D02*
X139700000Y-83312000D01*
X139954000Y-83566000D02*
X139954000Y-84582000D01*
X139954000Y-82042000D02*
X139954000Y-83058000D01*
X138684000Y-81788000D02*
X139700000Y-81788000D01*
X143510000Y-82042000D02*
X143510000Y-83058000D01*
X143764000Y-84836000D02*
X144780000Y-84836000D01*
X143510000Y-83566000D02*
X143510000Y-84582000D01*
X143764000Y-83312000D02*
X144780000Y-83312000D01*
X145034000Y-83566000D02*
X145034000Y-84582000D01*
X145034000Y-82042000D02*
X145034000Y-83058000D01*
X143764000Y-81788000D02*
X144780000Y-81788000D01*
X141732000Y-84836000D02*
X142748000Y-84836000D01*
X141478000Y-83566000D02*
X141478000Y-84582000D01*
X143002000Y-83566000D02*
X143002000Y-84582000D01*
X141732000Y-83312000D02*
X142748000Y-83312000D01*
X141478000Y-82042000D02*
X141478000Y-83058000D01*
X143002000Y-82042000D02*
X143002000Y-83058000D01*
X141732000Y-81788000D02*
X142748000Y-81788000D01*
%TO.C,U1b*%
G36*
G01*
X139805000Y-101490000D02*
X139805000Y-101190000D01*
G75*
G02*
X139955000Y-101040000I150000J0D01*
G01*
X141255000Y-101040000D01*
G75*
G02*
X141405000Y-101190000I0J-150000D01*
G01*
X141405000Y-101490000D01*
G75*
G02*
X141255000Y-101640000I-150000J0D01*
G01*
X139955000Y-101640000D01*
G75*
G02*
X139805000Y-101490000I0J150000D01*
G01*
G37*
G36*
G01*
X139805000Y-102290000D02*
X139805000Y-101990000D01*
G75*
G02*
X139955000Y-101840000I150000J0D01*
G01*
X141255000Y-101840000D01*
G75*
G02*
X141405000Y-101990000I0J-150000D01*
G01*
X141405000Y-102290000D01*
G75*
G02*
X141255000Y-102440000I-150000J0D01*
G01*
X139955000Y-102440000D01*
G75*
G02*
X139805000Y-102290000I0J150000D01*
G01*
G37*
G36*
G01*
X139805000Y-103090000D02*
X139805000Y-102790000D01*
G75*
G02*
X139955000Y-102640000I150000J0D01*
G01*
X141255000Y-102640000D01*
G75*
G02*
X141405000Y-102790000I0J-150000D01*
G01*
X141405000Y-103090000D01*
G75*
G02*
X141255000Y-103240000I-150000J0D01*
G01*
X139955000Y-103240000D01*
G75*
G02*
X139805000Y-103090000I0J150000D01*
G01*
G37*
G36*
G01*
X139805000Y-103890000D02*
X139805000Y-103590000D01*
G75*
G02*
X139955000Y-103440000I150000J0D01*
G01*
X141255000Y-103440000D01*
G75*
G02*
X141405000Y-103590000I0J-150000D01*
G01*
X141405000Y-103890000D01*
G75*
G02*
X141255000Y-104040000I-150000J0D01*
G01*
X139955000Y-104040000D01*
G75*
G02*
X139805000Y-103890000I0J150000D01*
G01*
G37*
G36*
G01*
X139805000Y-104690000D02*
X139805000Y-104390000D01*
G75*
G02*
X139955000Y-104240000I150000J0D01*
G01*
X141255000Y-104240000D01*
G75*
G02*
X141405000Y-104390000I0J-150000D01*
G01*
X141405000Y-104690000D01*
G75*
G02*
X141255000Y-104840000I-150000J0D01*
G01*
X139955000Y-104840000D01*
G75*
G02*
X139805000Y-104690000I0J150000D01*
G01*
G37*
G36*
G01*
X139805000Y-105490000D02*
X139805000Y-105190000D01*
G75*
G02*
X139955000Y-105040000I150000J0D01*
G01*
X141255000Y-105040000D01*
G75*
G02*
X141405000Y-105190000I0J-150000D01*
G01*
X141405000Y-105490000D01*
G75*
G02*
X141255000Y-105640000I-150000J0D01*
G01*
X139955000Y-105640000D01*
G75*
G02*
X139805000Y-105490000I0J150000D01*
G01*
G37*
G36*
G01*
X139805000Y-106290000D02*
X139805000Y-105990000D01*
G75*
G02*
X139955000Y-105840000I150000J0D01*
G01*
X141255000Y-105840000D01*
G75*
G02*
X141405000Y-105990000I0J-150000D01*
G01*
X141405000Y-106290000D01*
G75*
G02*
X141255000Y-106440000I-150000J0D01*
G01*
X139955000Y-106440000D01*
G75*
G02*
X139805000Y-106290000I0J150000D01*
G01*
G37*
G36*
G01*
X139805000Y-107090000D02*
X139805000Y-106790000D01*
G75*
G02*
X139955000Y-106640000I150000J0D01*
G01*
X141255000Y-106640000D01*
G75*
G02*
X141405000Y-106790000I0J-150000D01*
G01*
X141405000Y-107090000D01*
G75*
G02*
X141255000Y-107240000I-150000J0D01*
G01*
X139955000Y-107240000D01*
G75*
G02*
X139805000Y-107090000I0J150000D01*
G01*
G37*
G36*
G01*
X141680000Y-108965000D02*
X141680000Y-107665000D01*
G75*
G02*
X141830000Y-107515000I150000J0D01*
G01*
X142130000Y-107515000D01*
G75*
G02*
X142280000Y-107665000I0J-150000D01*
G01*
X142280000Y-108965000D01*
G75*
G02*
X142130000Y-109115000I-150000J0D01*
G01*
X141830000Y-109115000D01*
G75*
G02*
X141680000Y-108965000I0J150000D01*
G01*
G37*
G36*
G01*
X142480000Y-108965000D02*
X142480000Y-107665000D01*
G75*
G02*
X142630000Y-107515000I150000J0D01*
G01*
X142930000Y-107515000D01*
G75*
G02*
X143080000Y-107665000I0J-150000D01*
G01*
X143080000Y-108965000D01*
G75*
G02*
X142930000Y-109115000I-150000J0D01*
G01*
X142630000Y-109115000D01*
G75*
G02*
X142480000Y-108965000I0J150000D01*
G01*
G37*
G36*
G01*
X143280000Y-108965000D02*
X143280000Y-107665000D01*
G75*
G02*
X143430000Y-107515000I150000J0D01*
G01*
X143730000Y-107515000D01*
G75*
G02*
X143880000Y-107665000I0J-150000D01*
G01*
X143880000Y-108965000D01*
G75*
G02*
X143730000Y-109115000I-150000J0D01*
G01*
X143430000Y-109115000D01*
G75*
G02*
X143280000Y-108965000I0J150000D01*
G01*
G37*
G36*
G01*
X144080000Y-108965000D02*
X144080000Y-107665000D01*
G75*
G02*
X144230000Y-107515000I150000J0D01*
G01*
X144530000Y-107515000D01*
G75*
G02*
X144680000Y-107665000I0J-150000D01*
G01*
X144680000Y-108965000D01*
G75*
G02*
X144530000Y-109115000I-150000J0D01*
G01*
X144230000Y-109115000D01*
G75*
G02*
X144080000Y-108965000I0J150000D01*
G01*
G37*
G36*
G01*
X144880000Y-108965000D02*
X144880000Y-107665000D01*
G75*
G02*
X145030000Y-107515000I150000J0D01*
G01*
X145330000Y-107515000D01*
G75*
G02*
X145480000Y-107665000I0J-150000D01*
G01*
X145480000Y-108965000D01*
G75*
G02*
X145330000Y-109115000I-150000J0D01*
G01*
X145030000Y-109115000D01*
G75*
G02*
X144880000Y-108965000I0J150000D01*
G01*
G37*
G36*
G01*
X145680000Y-108965000D02*
X145680000Y-107665000D01*
G75*
G02*
X145830000Y-107515000I150000J0D01*
G01*
X146130000Y-107515000D01*
G75*
G02*
X146280000Y-107665000I0J-150000D01*
G01*
X146280000Y-108965000D01*
G75*
G02*
X146130000Y-109115000I-150000J0D01*
G01*
X145830000Y-109115000D01*
G75*
G02*
X145680000Y-108965000I0J150000D01*
G01*
G37*
G36*
G01*
X146480000Y-108965000D02*
X146480000Y-107665000D01*
G75*
G02*
X146630000Y-107515000I150000J0D01*
G01*
X146930000Y-107515000D01*
G75*
G02*
X147080000Y-107665000I0J-150000D01*
G01*
X147080000Y-108965000D01*
G75*
G02*
X146930000Y-109115000I-150000J0D01*
G01*
X146630000Y-109115000D01*
G75*
G02*
X146480000Y-108965000I0J150000D01*
G01*
G37*
G36*
G01*
X147280000Y-108965000D02*
X147280000Y-107665000D01*
G75*
G02*
X147430000Y-107515000I150000J0D01*
G01*
X147730000Y-107515000D01*
G75*
G02*
X147880000Y-107665000I0J-150000D01*
G01*
X147880000Y-108965000D01*
G75*
G02*
X147730000Y-109115000I-150000J0D01*
G01*
X147430000Y-109115000D01*
G75*
G02*
X147280000Y-108965000I0J150000D01*
G01*
G37*
G36*
G01*
X148155000Y-107090000D02*
X148155000Y-106790000D01*
G75*
G02*
X148305000Y-106640000I150000J0D01*
G01*
X149605000Y-106640000D01*
G75*
G02*
X149755000Y-106790000I0J-150000D01*
G01*
X149755000Y-107090000D01*
G75*
G02*
X149605000Y-107240000I-150000J0D01*
G01*
X148305000Y-107240000D01*
G75*
G02*
X148155000Y-107090000I0J150000D01*
G01*
G37*
G36*
G01*
X148155000Y-106290000D02*
X148155000Y-105990000D01*
G75*
G02*
X148305000Y-105840000I150000J0D01*
G01*
X149605000Y-105840000D01*
G75*
G02*
X149755000Y-105990000I0J-150000D01*
G01*
X149755000Y-106290000D01*
G75*
G02*
X149605000Y-106440000I-150000J0D01*
G01*
X148305000Y-106440000D01*
G75*
G02*
X148155000Y-106290000I0J150000D01*
G01*
G37*
G36*
G01*
X148155000Y-105490000D02*
X148155000Y-105190000D01*
G75*
G02*
X148305000Y-105040000I150000J0D01*
G01*
X149605000Y-105040000D01*
G75*
G02*
X149755000Y-105190000I0J-150000D01*
G01*
X149755000Y-105490000D01*
G75*
G02*
X149605000Y-105640000I-150000J0D01*
G01*
X148305000Y-105640000D01*
G75*
G02*
X148155000Y-105490000I0J150000D01*
G01*
G37*
G36*
G01*
X148155000Y-104690000D02*
X148155000Y-104390000D01*
G75*
G02*
X148305000Y-104240000I150000J0D01*
G01*
X149605000Y-104240000D01*
G75*
G02*
X149755000Y-104390000I0J-150000D01*
G01*
X149755000Y-104690000D01*
G75*
G02*
X149605000Y-104840000I-150000J0D01*
G01*
X148305000Y-104840000D01*
G75*
G02*
X148155000Y-104690000I0J150000D01*
G01*
G37*
G36*
G01*
X148155000Y-103890000D02*
X148155000Y-103590000D01*
G75*
G02*
X148305000Y-103440000I150000J0D01*
G01*
X149605000Y-103440000D01*
G75*
G02*
X149755000Y-103590000I0J-150000D01*
G01*
X149755000Y-103890000D01*
G75*
G02*
X149605000Y-104040000I-150000J0D01*
G01*
X148305000Y-104040000D01*
G75*
G02*
X148155000Y-103890000I0J150000D01*
G01*
G37*
G36*
G01*
X148155000Y-103090000D02*
X148155000Y-102790000D01*
G75*
G02*
X148305000Y-102640000I150000J0D01*
G01*
X149605000Y-102640000D01*
G75*
G02*
X149755000Y-102790000I0J-150000D01*
G01*
X149755000Y-103090000D01*
G75*
G02*
X149605000Y-103240000I-150000J0D01*
G01*
X148305000Y-103240000D01*
G75*
G02*
X148155000Y-103090000I0J150000D01*
G01*
G37*
G36*
G01*
X148155000Y-102290000D02*
X148155000Y-101990000D01*
G75*
G02*
X148305000Y-101840000I150000J0D01*
G01*
X149605000Y-101840000D01*
G75*
G02*
X149755000Y-101990000I0J-150000D01*
G01*
X149755000Y-102290000D01*
G75*
G02*
X149605000Y-102440000I-150000J0D01*
G01*
X148305000Y-102440000D01*
G75*
G02*
X148155000Y-102290000I0J150000D01*
G01*
G37*
G36*
G01*
X148155000Y-101490000D02*
X148155000Y-101190000D01*
G75*
G02*
X148305000Y-101040000I150000J0D01*
G01*
X149605000Y-101040000D01*
G75*
G02*
X149755000Y-101190000I0J-150000D01*
G01*
X149755000Y-101490000D01*
G75*
G02*
X149605000Y-101640000I-150000J0D01*
G01*
X148305000Y-101640000D01*
G75*
G02*
X148155000Y-101490000I0J150000D01*
G01*
G37*
G36*
G01*
X147280000Y-100615000D02*
X147280000Y-99315000D01*
G75*
G02*
X147430000Y-99165000I150000J0D01*
G01*
X147730000Y-99165000D01*
G75*
G02*
X147880000Y-99315000I0J-150000D01*
G01*
X147880000Y-100615000D01*
G75*
G02*
X147730000Y-100765000I-150000J0D01*
G01*
X147430000Y-100765000D01*
G75*
G02*
X147280000Y-100615000I0J150000D01*
G01*
G37*
G36*
G01*
X146480000Y-100615000D02*
X146480000Y-99315000D01*
G75*
G02*
X146630000Y-99165000I150000J0D01*
G01*
X146930000Y-99165000D01*
G75*
G02*
X147080000Y-99315000I0J-150000D01*
G01*
X147080000Y-100615000D01*
G75*
G02*
X146930000Y-100765000I-150000J0D01*
G01*
X146630000Y-100765000D01*
G75*
G02*
X146480000Y-100615000I0J150000D01*
G01*
G37*
G36*
G01*
X145680000Y-100615000D02*
X145680000Y-99315000D01*
G75*
G02*
X145830000Y-99165000I150000J0D01*
G01*
X146130000Y-99165000D01*
G75*
G02*
X146280000Y-99315000I0J-150000D01*
G01*
X146280000Y-100615000D01*
G75*
G02*
X146130000Y-100765000I-150000J0D01*
G01*
X145830000Y-100765000D01*
G75*
G02*
X145680000Y-100615000I0J150000D01*
G01*
G37*
G36*
G01*
X144880000Y-100615000D02*
X144880000Y-99315000D01*
G75*
G02*
X145030000Y-99165000I150000J0D01*
G01*
X145330000Y-99165000D01*
G75*
G02*
X145480000Y-99315000I0J-150000D01*
G01*
X145480000Y-100615000D01*
G75*
G02*
X145330000Y-100765000I-150000J0D01*
G01*
X145030000Y-100765000D01*
G75*
G02*
X144880000Y-100615000I0J150000D01*
G01*
G37*
G36*
G01*
X144080000Y-100615000D02*
X144080000Y-99315000D01*
G75*
G02*
X144230000Y-99165000I150000J0D01*
G01*
X144530000Y-99165000D01*
G75*
G02*
X144680000Y-99315000I0J-150000D01*
G01*
X144680000Y-100615000D01*
G75*
G02*
X144530000Y-100765000I-150000J0D01*
G01*
X144230000Y-100765000D01*
G75*
G02*
X144080000Y-100615000I0J150000D01*
G01*
G37*
G36*
G01*
X143280000Y-100615000D02*
X143280000Y-99315000D01*
G75*
G02*
X143430000Y-99165000I150000J0D01*
G01*
X143730000Y-99165000D01*
G75*
G02*
X143880000Y-99315000I0J-150000D01*
G01*
X143880000Y-100615000D01*
G75*
G02*
X143730000Y-100765000I-150000J0D01*
G01*
X143430000Y-100765000D01*
G75*
G02*
X143280000Y-100615000I0J150000D01*
G01*
G37*
G36*
G01*
X142480000Y-100615000D02*
X142480000Y-99315000D01*
G75*
G02*
X142630000Y-99165000I150000J0D01*
G01*
X142930000Y-99165000D01*
G75*
G02*
X143080000Y-99315000I0J-150000D01*
G01*
X143080000Y-100615000D01*
G75*
G02*
X142930000Y-100765000I-150000J0D01*
G01*
X142630000Y-100765000D01*
G75*
G02*
X142480000Y-100615000I0J150000D01*
G01*
G37*
G36*
G01*
X141680000Y-100615000D02*
X141680000Y-99315000D01*
G75*
G02*
X141830000Y-99165000I150000J0D01*
G01*
X142130000Y-99165000D01*
G75*
G02*
X142280000Y-99315000I0J-150000D01*
G01*
X142280000Y-100615000D01*
G75*
G02*
X142130000Y-100765000I-150000J0D01*
G01*
X141830000Y-100765000D01*
G75*
G02*
X141680000Y-100615000I0J150000D01*
G01*
G37*
%TD*%
%TO.C,U1a*%
G36*
G01*
X141680000Y-67595000D02*
X141680000Y-66295000D01*
G75*
G02*
X141830000Y-66145000I150000J0D01*
G01*
X142130000Y-66145000D01*
G75*
G02*
X142280000Y-66295000I0J-150000D01*
G01*
X142280000Y-67595000D01*
G75*
G02*
X142130000Y-67745000I-150000J0D01*
G01*
X141830000Y-67745000D01*
G75*
G02*
X141680000Y-67595000I0J150000D01*
G01*
G37*
G36*
G01*
X142480000Y-67595000D02*
X142480000Y-66295000D01*
G75*
G02*
X142630000Y-66145000I150000J0D01*
G01*
X142930000Y-66145000D01*
G75*
G02*
X143080000Y-66295000I0J-150000D01*
G01*
X143080000Y-67595000D01*
G75*
G02*
X142930000Y-67745000I-150000J0D01*
G01*
X142630000Y-67745000D01*
G75*
G02*
X142480000Y-67595000I0J150000D01*
G01*
G37*
G36*
G01*
X143280000Y-67595000D02*
X143280000Y-66295000D01*
G75*
G02*
X143430000Y-66145000I150000J0D01*
G01*
X143730000Y-66145000D01*
G75*
G02*
X143880000Y-66295000I0J-150000D01*
G01*
X143880000Y-67595000D01*
G75*
G02*
X143730000Y-67745000I-150000J0D01*
G01*
X143430000Y-67745000D01*
G75*
G02*
X143280000Y-67595000I0J150000D01*
G01*
G37*
G36*
G01*
X144080000Y-67595000D02*
X144080000Y-66295000D01*
G75*
G02*
X144230000Y-66145000I150000J0D01*
G01*
X144530000Y-66145000D01*
G75*
G02*
X144680000Y-66295000I0J-150000D01*
G01*
X144680000Y-67595000D01*
G75*
G02*
X144530000Y-67745000I-150000J0D01*
G01*
X144230000Y-67745000D01*
G75*
G02*
X144080000Y-67595000I0J150000D01*
G01*
G37*
G36*
G01*
X144880000Y-67595000D02*
X144880000Y-66295000D01*
G75*
G02*
X145030000Y-66145000I150000J0D01*
G01*
X145330000Y-66145000D01*
G75*
G02*
X145480000Y-66295000I0J-150000D01*
G01*
X145480000Y-67595000D01*
G75*
G02*
X145330000Y-67745000I-150000J0D01*
G01*
X145030000Y-67745000D01*
G75*
G02*
X144880000Y-67595000I0J150000D01*
G01*
G37*
G36*
G01*
X145680000Y-67595000D02*
X145680000Y-66295000D01*
G75*
G02*
X145830000Y-66145000I150000J0D01*
G01*
X146130000Y-66145000D01*
G75*
G02*
X146280000Y-66295000I0J-150000D01*
G01*
X146280000Y-67595000D01*
G75*
G02*
X146130000Y-67745000I-150000J0D01*
G01*
X145830000Y-67745000D01*
G75*
G02*
X145680000Y-67595000I0J150000D01*
G01*
G37*
G36*
G01*
X146480000Y-67595000D02*
X146480000Y-66295000D01*
G75*
G02*
X146630000Y-66145000I150000J0D01*
G01*
X146930000Y-66145000D01*
G75*
G02*
X147080000Y-66295000I0J-150000D01*
G01*
X147080000Y-67595000D01*
G75*
G02*
X146930000Y-67745000I-150000J0D01*
G01*
X146630000Y-67745000D01*
G75*
G02*
X146480000Y-67595000I0J150000D01*
G01*
G37*
G36*
G01*
X147280000Y-67595000D02*
X147280000Y-66295000D01*
G75*
G02*
X147430000Y-66145000I150000J0D01*
G01*
X147730000Y-66145000D01*
G75*
G02*
X147880000Y-66295000I0J-150000D01*
G01*
X147880000Y-67595000D01*
G75*
G02*
X147730000Y-67745000I-150000J0D01*
G01*
X147430000Y-67745000D01*
G75*
G02*
X147280000Y-67595000I0J150000D01*
G01*
G37*
G36*
G01*
X148155000Y-68470000D02*
X148155000Y-68170000D01*
G75*
G02*
X148305000Y-68020000I150000J0D01*
G01*
X149605000Y-68020000D01*
G75*
G02*
X149755000Y-68170000I0J-150000D01*
G01*
X149755000Y-68470000D01*
G75*
G02*
X149605000Y-68620000I-150000J0D01*
G01*
X148305000Y-68620000D01*
G75*
G02*
X148155000Y-68470000I0J150000D01*
G01*
G37*
G36*
G01*
X148155000Y-69270000D02*
X148155000Y-68970000D01*
G75*
G02*
X148305000Y-68820000I150000J0D01*
G01*
X149605000Y-68820000D01*
G75*
G02*
X149755000Y-68970000I0J-150000D01*
G01*
X149755000Y-69270000D01*
G75*
G02*
X149605000Y-69420000I-150000J0D01*
G01*
X148305000Y-69420000D01*
G75*
G02*
X148155000Y-69270000I0J150000D01*
G01*
G37*
G36*
G01*
X148155000Y-70070000D02*
X148155000Y-69770000D01*
G75*
G02*
X148305000Y-69620000I150000J0D01*
G01*
X149605000Y-69620000D01*
G75*
G02*
X149755000Y-69770000I0J-150000D01*
G01*
X149755000Y-70070000D01*
G75*
G02*
X149605000Y-70220000I-150000J0D01*
G01*
X148305000Y-70220000D01*
G75*
G02*
X148155000Y-70070000I0J150000D01*
G01*
G37*
G36*
G01*
X148155000Y-70870000D02*
X148155000Y-70570000D01*
G75*
G02*
X148305000Y-70420000I150000J0D01*
G01*
X149605000Y-70420000D01*
G75*
G02*
X149755000Y-70570000I0J-150000D01*
G01*
X149755000Y-70870000D01*
G75*
G02*
X149605000Y-71020000I-150000J0D01*
G01*
X148305000Y-71020000D01*
G75*
G02*
X148155000Y-70870000I0J150000D01*
G01*
G37*
G36*
G01*
X148155000Y-71670000D02*
X148155000Y-71370000D01*
G75*
G02*
X148305000Y-71220000I150000J0D01*
G01*
X149605000Y-71220000D01*
G75*
G02*
X149755000Y-71370000I0J-150000D01*
G01*
X149755000Y-71670000D01*
G75*
G02*
X149605000Y-71820000I-150000J0D01*
G01*
X148305000Y-71820000D01*
G75*
G02*
X148155000Y-71670000I0J150000D01*
G01*
G37*
G36*
G01*
X148155000Y-72470000D02*
X148155000Y-72170000D01*
G75*
G02*
X148305000Y-72020000I150000J0D01*
G01*
X149605000Y-72020000D01*
G75*
G02*
X149755000Y-72170000I0J-150000D01*
G01*
X149755000Y-72470000D01*
G75*
G02*
X149605000Y-72620000I-150000J0D01*
G01*
X148305000Y-72620000D01*
G75*
G02*
X148155000Y-72470000I0J150000D01*
G01*
G37*
G36*
G01*
X148155000Y-73270000D02*
X148155000Y-72970000D01*
G75*
G02*
X148305000Y-72820000I150000J0D01*
G01*
X149605000Y-72820000D01*
G75*
G02*
X149755000Y-72970000I0J-150000D01*
G01*
X149755000Y-73270000D01*
G75*
G02*
X149605000Y-73420000I-150000J0D01*
G01*
X148305000Y-73420000D01*
G75*
G02*
X148155000Y-73270000I0J150000D01*
G01*
G37*
G36*
G01*
X148155000Y-74070000D02*
X148155000Y-73770000D01*
G75*
G02*
X148305000Y-73620000I150000J0D01*
G01*
X149605000Y-73620000D01*
G75*
G02*
X149755000Y-73770000I0J-150000D01*
G01*
X149755000Y-74070000D01*
G75*
G02*
X149605000Y-74220000I-150000J0D01*
G01*
X148305000Y-74220000D01*
G75*
G02*
X148155000Y-74070000I0J150000D01*
G01*
G37*
G36*
G01*
X147280000Y-75945000D02*
X147280000Y-74645000D01*
G75*
G02*
X147430000Y-74495000I150000J0D01*
G01*
X147730000Y-74495000D01*
G75*
G02*
X147880000Y-74645000I0J-150000D01*
G01*
X147880000Y-75945000D01*
G75*
G02*
X147730000Y-76095000I-150000J0D01*
G01*
X147430000Y-76095000D01*
G75*
G02*
X147280000Y-75945000I0J150000D01*
G01*
G37*
G36*
G01*
X146480000Y-75945000D02*
X146480000Y-74645000D01*
G75*
G02*
X146630000Y-74495000I150000J0D01*
G01*
X146930000Y-74495000D01*
G75*
G02*
X147080000Y-74645000I0J-150000D01*
G01*
X147080000Y-75945000D01*
G75*
G02*
X146930000Y-76095000I-150000J0D01*
G01*
X146630000Y-76095000D01*
G75*
G02*
X146480000Y-75945000I0J150000D01*
G01*
G37*
G36*
G01*
X145680000Y-75945000D02*
X145680000Y-74645000D01*
G75*
G02*
X145830000Y-74495000I150000J0D01*
G01*
X146130000Y-74495000D01*
G75*
G02*
X146280000Y-74645000I0J-150000D01*
G01*
X146280000Y-75945000D01*
G75*
G02*
X146130000Y-76095000I-150000J0D01*
G01*
X145830000Y-76095000D01*
G75*
G02*
X145680000Y-75945000I0J150000D01*
G01*
G37*
G36*
G01*
X144880000Y-75945000D02*
X144880000Y-74645000D01*
G75*
G02*
X145030000Y-74495000I150000J0D01*
G01*
X145330000Y-74495000D01*
G75*
G02*
X145480000Y-74645000I0J-150000D01*
G01*
X145480000Y-75945000D01*
G75*
G02*
X145330000Y-76095000I-150000J0D01*
G01*
X145030000Y-76095000D01*
G75*
G02*
X144880000Y-75945000I0J150000D01*
G01*
G37*
G36*
G01*
X144080000Y-75945000D02*
X144080000Y-74645000D01*
G75*
G02*
X144230000Y-74495000I150000J0D01*
G01*
X144530000Y-74495000D01*
G75*
G02*
X144680000Y-74645000I0J-150000D01*
G01*
X144680000Y-75945000D01*
G75*
G02*
X144530000Y-76095000I-150000J0D01*
G01*
X144230000Y-76095000D01*
G75*
G02*
X144080000Y-75945000I0J150000D01*
G01*
G37*
G36*
G01*
X143280000Y-75945000D02*
X143280000Y-74645000D01*
G75*
G02*
X143430000Y-74495000I150000J0D01*
G01*
X143730000Y-74495000D01*
G75*
G02*
X143880000Y-74645000I0J-150000D01*
G01*
X143880000Y-75945000D01*
G75*
G02*
X143730000Y-76095000I-150000J0D01*
G01*
X143430000Y-76095000D01*
G75*
G02*
X143280000Y-75945000I0J150000D01*
G01*
G37*
G36*
G01*
X142480000Y-75945000D02*
X142480000Y-74645000D01*
G75*
G02*
X142630000Y-74495000I150000J0D01*
G01*
X142930000Y-74495000D01*
G75*
G02*
X143080000Y-74645000I0J-150000D01*
G01*
X143080000Y-75945000D01*
G75*
G02*
X142930000Y-76095000I-150000J0D01*
G01*
X142630000Y-76095000D01*
G75*
G02*
X142480000Y-75945000I0J150000D01*
G01*
G37*
G36*
G01*
X141680000Y-75945000D02*
X141680000Y-74645000D01*
G75*
G02*
X141830000Y-74495000I150000J0D01*
G01*
X142130000Y-74495000D01*
G75*
G02*
X142280000Y-74645000I0J-150000D01*
G01*
X142280000Y-75945000D01*
G75*
G02*
X142130000Y-76095000I-150000J0D01*
G01*
X141830000Y-76095000D01*
G75*
G02*
X141680000Y-75945000I0J150000D01*
G01*
G37*
G36*
G01*
X139805000Y-74070000D02*
X139805000Y-73770000D01*
G75*
G02*
X139955000Y-73620000I150000J0D01*
G01*
X141255000Y-73620000D01*
G75*
G02*
X141405000Y-73770000I0J-150000D01*
G01*
X141405000Y-74070000D01*
G75*
G02*
X141255000Y-74220000I-150000J0D01*
G01*
X139955000Y-74220000D01*
G75*
G02*
X139805000Y-74070000I0J150000D01*
G01*
G37*
G36*
G01*
X139805000Y-73270000D02*
X139805000Y-72970000D01*
G75*
G02*
X139955000Y-72820000I150000J0D01*
G01*
X141255000Y-72820000D01*
G75*
G02*
X141405000Y-72970000I0J-150000D01*
G01*
X141405000Y-73270000D01*
G75*
G02*
X141255000Y-73420000I-150000J0D01*
G01*
X139955000Y-73420000D01*
G75*
G02*
X139805000Y-73270000I0J150000D01*
G01*
G37*
G36*
G01*
X139805000Y-72470000D02*
X139805000Y-72170000D01*
G75*
G02*
X139955000Y-72020000I150000J0D01*
G01*
X141255000Y-72020000D01*
G75*
G02*
X141405000Y-72170000I0J-150000D01*
G01*
X141405000Y-72470000D01*
G75*
G02*
X141255000Y-72620000I-150000J0D01*
G01*
X139955000Y-72620000D01*
G75*
G02*
X139805000Y-72470000I0J150000D01*
G01*
G37*
G36*
G01*
X139805000Y-71670000D02*
X139805000Y-71370000D01*
G75*
G02*
X139955000Y-71220000I150000J0D01*
G01*
X141255000Y-71220000D01*
G75*
G02*
X141405000Y-71370000I0J-150000D01*
G01*
X141405000Y-71670000D01*
G75*
G02*
X141255000Y-71820000I-150000J0D01*
G01*
X139955000Y-71820000D01*
G75*
G02*
X139805000Y-71670000I0J150000D01*
G01*
G37*
G36*
G01*
X139805000Y-70870000D02*
X139805000Y-70570000D01*
G75*
G02*
X139955000Y-70420000I150000J0D01*
G01*
X141255000Y-70420000D01*
G75*
G02*
X141405000Y-70570000I0J-150000D01*
G01*
X141405000Y-70870000D01*
G75*
G02*
X141255000Y-71020000I-150000J0D01*
G01*
X139955000Y-71020000D01*
G75*
G02*
X139805000Y-70870000I0J150000D01*
G01*
G37*
G36*
G01*
X139805000Y-70070000D02*
X139805000Y-69770000D01*
G75*
G02*
X139955000Y-69620000I150000J0D01*
G01*
X141255000Y-69620000D01*
G75*
G02*
X141405000Y-69770000I0J-150000D01*
G01*
X141405000Y-70070000D01*
G75*
G02*
X141255000Y-70220000I-150000J0D01*
G01*
X139955000Y-70220000D01*
G75*
G02*
X139805000Y-70070000I0J150000D01*
G01*
G37*
G36*
G01*
X139805000Y-69270000D02*
X139805000Y-68970000D01*
G75*
G02*
X139955000Y-68820000I150000J0D01*
G01*
X141255000Y-68820000D01*
G75*
G02*
X141405000Y-68970000I0J-150000D01*
G01*
X141405000Y-69270000D01*
G75*
G02*
X141255000Y-69420000I-150000J0D01*
G01*
X139955000Y-69420000D01*
G75*
G02*
X139805000Y-69270000I0J150000D01*
G01*
G37*
G36*
G01*
X139805000Y-68470000D02*
X139805000Y-68170000D01*
G75*
G02*
X139955000Y-68020000I150000J0D01*
G01*
X141255000Y-68020000D01*
G75*
G02*
X141405000Y-68170000I0J-150000D01*
G01*
X141405000Y-68470000D01*
G75*
G02*
X141255000Y-68620000I-150000J0D01*
G01*
X139955000Y-68620000D01*
G75*
G02*
X139805000Y-68470000I0J150000D01*
G01*
G37*
%TD*%
D11*
%TO.C,J1*%
X99060000Y-90170000D03*
X99060000Y-87630000D03*
X99060000Y-85090000D03*
X99060000Y-82550000D03*
X99060000Y-80010000D03*
X99060000Y-77470000D03*
X99060000Y-74930000D03*
X99060000Y-72390000D03*
X99060000Y-69850000D03*
D12*
X99060000Y-67310000D03*
%TD*%
%TO.C,J2*%
X99060000Y-100330000D03*
D11*
X99060000Y-102870000D03*
X99060000Y-105410000D03*
X99060000Y-107950000D03*
X99060000Y-110490000D03*
X99060000Y-113030000D03*
X99060000Y-115570000D03*
X99060000Y-118110000D03*
X99060000Y-120650000D03*
X99060000Y-123190000D03*
%TD*%
%TO.C,J3*%
G36*
G01*
X120590000Y-68609000D02*
X120590000Y-66259000D01*
G75*
G02*
X120865000Y-65984000I275000J0D01*
G01*
X121415000Y-65984000D01*
G75*
G02*
X121690000Y-66259000I0J-275000D01*
G01*
X121690000Y-68609000D01*
G75*
G02*
X121415000Y-68884000I-275000J0D01*
G01*
X120865000Y-68884000D01*
G75*
G02*
X120590000Y-68609000I0J275000D01*
G01*
G37*
G36*
G01*
X105640000Y-68609000D02*
X105640000Y-66259000D01*
G75*
G02*
X105915000Y-65984000I275000J0D01*
G01*
X106465000Y-65984000D01*
G75*
G02*
X106740000Y-66259000I0J-275000D01*
G01*
X106740000Y-68609000D01*
G75*
G02*
X106465000Y-68884000I-275000J0D01*
G01*
X105915000Y-68884000D01*
G75*
G02*
X105640000Y-68609000I0J275000D01*
G01*
G37*
G36*
G01*
X118940000Y-71509000D02*
X118940000Y-70059000D01*
G75*
G02*
X119115000Y-69884000I175000J0D01*
G01*
X119465000Y-69884000D01*
G75*
G02*
X119640000Y-70059000I0J-175000D01*
G01*
X119640000Y-71509000D01*
G75*
G02*
X119465000Y-71684000I-175000J0D01*
G01*
X119115000Y-71684000D01*
G75*
G02*
X118940000Y-71509000I0J175000D01*
G01*
G37*
G36*
G01*
X117690000Y-71509000D02*
X117690000Y-70059000D01*
G75*
G02*
X117865000Y-69884000I175000J0D01*
G01*
X118215000Y-69884000D01*
G75*
G02*
X118390000Y-70059000I0J-175000D01*
G01*
X118390000Y-71509000D01*
G75*
G02*
X118215000Y-71684000I-175000J0D01*
G01*
X117865000Y-71684000D01*
G75*
G02*
X117690000Y-71509000I0J175000D01*
G01*
G37*
G36*
G01*
X116440000Y-71509000D02*
X116440000Y-70059000D01*
G75*
G02*
X116615000Y-69884000I175000J0D01*
G01*
X116965000Y-69884000D01*
G75*
G02*
X117140000Y-70059000I0J-175000D01*
G01*
X117140000Y-71509000D01*
G75*
G02*
X116965000Y-71684000I-175000J0D01*
G01*
X116615000Y-71684000D01*
G75*
G02*
X116440000Y-71509000I0J175000D01*
G01*
G37*
G36*
G01*
X115190000Y-71509000D02*
X115190000Y-70059000D01*
G75*
G02*
X115365000Y-69884000I175000J0D01*
G01*
X115715000Y-69884000D01*
G75*
G02*
X115890000Y-70059000I0J-175000D01*
G01*
X115890000Y-71509000D01*
G75*
G02*
X115715000Y-71684000I-175000J0D01*
G01*
X115365000Y-71684000D01*
G75*
G02*
X115190000Y-71509000I0J175000D01*
G01*
G37*
G36*
G01*
X113940000Y-71509000D02*
X113940000Y-70059000D01*
G75*
G02*
X114115000Y-69884000I175000J0D01*
G01*
X114465000Y-69884000D01*
G75*
G02*
X114640000Y-70059000I0J-175000D01*
G01*
X114640000Y-71509000D01*
G75*
G02*
X114465000Y-71684000I-175000J0D01*
G01*
X114115000Y-71684000D01*
G75*
G02*
X113940000Y-71509000I0J175000D01*
G01*
G37*
G36*
G01*
X112690000Y-71509000D02*
X112690000Y-70059000D01*
G75*
G02*
X112865000Y-69884000I175000J0D01*
G01*
X113215000Y-69884000D01*
G75*
G02*
X113390000Y-70059000I0J-175000D01*
G01*
X113390000Y-71509000D01*
G75*
G02*
X113215000Y-71684000I-175000J0D01*
G01*
X112865000Y-71684000D01*
G75*
G02*
X112690000Y-71509000I0J175000D01*
G01*
G37*
G36*
G01*
X111440000Y-71509000D02*
X111440000Y-70059000D01*
G75*
G02*
X111615000Y-69884000I175000J0D01*
G01*
X111965000Y-69884000D01*
G75*
G02*
X112140000Y-70059000I0J-175000D01*
G01*
X112140000Y-71509000D01*
G75*
G02*
X111965000Y-71684000I-175000J0D01*
G01*
X111615000Y-71684000D01*
G75*
G02*
X111440000Y-71509000I0J175000D01*
G01*
G37*
G36*
G01*
X110190000Y-71509000D02*
X110190000Y-70059000D01*
G75*
G02*
X110365000Y-69884000I175000J0D01*
G01*
X110715000Y-69884000D01*
G75*
G02*
X110890000Y-70059000I0J-175000D01*
G01*
X110890000Y-71509000D01*
G75*
G02*
X110715000Y-71684000I-175000J0D01*
G01*
X110365000Y-71684000D01*
G75*
G02*
X110190000Y-71509000I0J175000D01*
G01*
G37*
G36*
G01*
X108940000Y-71509000D02*
X108940000Y-70059000D01*
G75*
G02*
X109115000Y-69884000I175000J0D01*
G01*
X109465000Y-69884000D01*
G75*
G02*
X109640000Y-70059000I0J-175000D01*
G01*
X109640000Y-71509000D01*
G75*
G02*
X109465000Y-71684000I-175000J0D01*
G01*
X109115000Y-71684000D01*
G75*
G02*
X108940000Y-71509000I0J175000D01*
G01*
G37*
G36*
G01*
X107690000Y-71509000D02*
X107690000Y-70059000D01*
G75*
G02*
X107865000Y-69884000I175000J0D01*
G01*
X108215000Y-69884000D01*
G75*
G02*
X108390000Y-70059000I0J-175000D01*
G01*
X108390000Y-71509000D01*
G75*
G02*
X108215000Y-71684000I-175000J0D01*
G01*
X107865000Y-71684000D01*
G75*
G02*
X107690000Y-71509000I0J175000D01*
G01*
G37*
%TD*%
%TO.C,J4*%
G36*
G01*
X107690000Y-104529000D02*
X107690000Y-103079000D01*
G75*
G02*
X107865000Y-102904000I175000J0D01*
G01*
X108215000Y-102904000D01*
G75*
G02*
X108390000Y-103079000I0J-175000D01*
G01*
X108390000Y-104529000D01*
G75*
G02*
X108215000Y-104704000I-175000J0D01*
G01*
X107865000Y-104704000D01*
G75*
G02*
X107690000Y-104529000I0J175000D01*
G01*
G37*
G36*
G01*
X108940000Y-104529000D02*
X108940000Y-103079000D01*
G75*
G02*
X109115000Y-102904000I175000J0D01*
G01*
X109465000Y-102904000D01*
G75*
G02*
X109640000Y-103079000I0J-175000D01*
G01*
X109640000Y-104529000D01*
G75*
G02*
X109465000Y-104704000I-175000J0D01*
G01*
X109115000Y-104704000D01*
G75*
G02*
X108940000Y-104529000I0J175000D01*
G01*
G37*
G36*
G01*
X110190000Y-104529000D02*
X110190000Y-103079000D01*
G75*
G02*
X110365000Y-102904000I175000J0D01*
G01*
X110715000Y-102904000D01*
G75*
G02*
X110890000Y-103079000I0J-175000D01*
G01*
X110890000Y-104529000D01*
G75*
G02*
X110715000Y-104704000I-175000J0D01*
G01*
X110365000Y-104704000D01*
G75*
G02*
X110190000Y-104529000I0J175000D01*
G01*
G37*
G36*
G01*
X111440000Y-104529000D02*
X111440000Y-103079000D01*
G75*
G02*
X111615000Y-102904000I175000J0D01*
G01*
X111965000Y-102904000D01*
G75*
G02*
X112140000Y-103079000I0J-175000D01*
G01*
X112140000Y-104529000D01*
G75*
G02*
X111965000Y-104704000I-175000J0D01*
G01*
X111615000Y-104704000D01*
G75*
G02*
X111440000Y-104529000I0J175000D01*
G01*
G37*
G36*
G01*
X112690000Y-104529000D02*
X112690000Y-103079000D01*
G75*
G02*
X112865000Y-102904000I175000J0D01*
G01*
X113215000Y-102904000D01*
G75*
G02*
X113390000Y-103079000I0J-175000D01*
G01*
X113390000Y-104529000D01*
G75*
G02*
X113215000Y-104704000I-175000J0D01*
G01*
X112865000Y-104704000D01*
G75*
G02*
X112690000Y-104529000I0J175000D01*
G01*
G37*
G36*
G01*
X113940000Y-104529000D02*
X113940000Y-103079000D01*
G75*
G02*
X114115000Y-102904000I175000J0D01*
G01*
X114465000Y-102904000D01*
G75*
G02*
X114640000Y-103079000I0J-175000D01*
G01*
X114640000Y-104529000D01*
G75*
G02*
X114465000Y-104704000I-175000J0D01*
G01*
X114115000Y-104704000D01*
G75*
G02*
X113940000Y-104529000I0J175000D01*
G01*
G37*
G36*
G01*
X115190000Y-104529000D02*
X115190000Y-103079000D01*
G75*
G02*
X115365000Y-102904000I175000J0D01*
G01*
X115715000Y-102904000D01*
G75*
G02*
X115890000Y-103079000I0J-175000D01*
G01*
X115890000Y-104529000D01*
G75*
G02*
X115715000Y-104704000I-175000J0D01*
G01*
X115365000Y-104704000D01*
G75*
G02*
X115190000Y-104529000I0J175000D01*
G01*
G37*
G36*
G01*
X116440000Y-104529000D02*
X116440000Y-103079000D01*
G75*
G02*
X116615000Y-102904000I175000J0D01*
G01*
X116965000Y-102904000D01*
G75*
G02*
X117140000Y-103079000I0J-175000D01*
G01*
X117140000Y-104529000D01*
G75*
G02*
X116965000Y-104704000I-175000J0D01*
G01*
X116615000Y-104704000D01*
G75*
G02*
X116440000Y-104529000I0J175000D01*
G01*
G37*
G36*
G01*
X117690000Y-104529000D02*
X117690000Y-103079000D01*
G75*
G02*
X117865000Y-102904000I175000J0D01*
G01*
X118215000Y-102904000D01*
G75*
G02*
X118390000Y-103079000I0J-175000D01*
G01*
X118390000Y-104529000D01*
G75*
G02*
X118215000Y-104704000I-175000J0D01*
G01*
X117865000Y-104704000D01*
G75*
G02*
X117690000Y-104529000I0J175000D01*
G01*
G37*
G36*
G01*
X118940000Y-104529000D02*
X118940000Y-103079000D01*
G75*
G02*
X119115000Y-102904000I175000J0D01*
G01*
X119465000Y-102904000D01*
G75*
G02*
X119640000Y-103079000I0J-175000D01*
G01*
X119640000Y-104529000D01*
G75*
G02*
X119465000Y-104704000I-175000J0D01*
G01*
X119115000Y-104704000D01*
G75*
G02*
X118940000Y-104529000I0J175000D01*
G01*
G37*
G36*
G01*
X105640000Y-101629000D02*
X105640000Y-99279000D01*
G75*
G02*
X105915000Y-99004000I275000J0D01*
G01*
X106465000Y-99004000D01*
G75*
G02*
X106740000Y-99279000I0J-275000D01*
G01*
X106740000Y-101629000D01*
G75*
G02*
X106465000Y-101904000I-275000J0D01*
G01*
X105915000Y-101904000D01*
G75*
G02*
X105640000Y-101629000I0J275000D01*
G01*
G37*
G36*
G01*
X120590000Y-101629000D02*
X120590000Y-99279000D01*
G75*
G02*
X120865000Y-99004000I275000J0D01*
G01*
X121415000Y-99004000D01*
G75*
G02*
X121690000Y-99279000I0J-275000D01*
G01*
X121690000Y-101629000D01*
G75*
G02*
X121415000Y-101904000I-275000J0D01*
G01*
X120865000Y-101904000D01*
G75*
G02*
X120590000Y-101629000I0J275000D01*
G01*
G37*
%TD*%
D13*
%TO.C,Q1*%
X128635000Y-101985000D03*
X126635000Y-102935000D03*
X126635000Y-101035000D03*
%TD*%
%TO.C,Q3*%
X126635000Y-68015000D03*
X126635000Y-69915000D03*
X128635000Y-68965000D03*
%TD*%
%TO.C,R1*%
G36*
G01*
X108675000Y-120035000D02*
X108675000Y-118725000D01*
G75*
G02*
X108945000Y-118455000I270000J0D01*
G01*
X109755000Y-118455000D01*
G75*
G02*
X110025000Y-118725000I0J-270000D01*
G01*
X110025000Y-120035000D01*
G75*
G02*
X109755000Y-120305000I-270000J0D01*
G01*
X108945000Y-120305000D01*
G75*
G02*
X108675000Y-120035000I0J270000D01*
G01*
G37*
G36*
G01*
X105875000Y-120035000D02*
X105875000Y-118725000D01*
G75*
G02*
X106145000Y-118455000I270000J0D01*
G01*
X106955000Y-118455000D01*
G75*
G02*
X107225000Y-118725000I0J-270000D01*
G01*
X107225000Y-120035000D01*
G75*
G02*
X106955000Y-120305000I-270000J0D01*
G01*
X106145000Y-120305000D01*
G75*
G02*
X105875000Y-120035000I0J270000D01*
G01*
G37*
%TD*%
%TO.C,R2*%
G36*
G01*
X107225000Y-85705000D02*
X107225000Y-87015000D01*
G75*
G02*
X106955000Y-87285000I-270000J0D01*
G01*
X106145000Y-87285000D01*
G75*
G02*
X105875000Y-87015000I0J270000D01*
G01*
X105875000Y-85705000D01*
G75*
G02*
X106145000Y-85435000I270000J0D01*
G01*
X106955000Y-85435000D01*
G75*
G02*
X107225000Y-85705000I0J-270000D01*
G01*
G37*
G36*
G01*
X110025000Y-85705000D02*
X110025000Y-87015000D01*
G75*
G02*
X109755000Y-87285000I-270000J0D01*
G01*
X108945000Y-87285000D01*
G75*
G02*
X108675000Y-87015000I0J270000D01*
G01*
X108675000Y-85705000D01*
G75*
G02*
X108945000Y-85435000I270000J0D01*
G01*
X109755000Y-85435000D01*
G75*
G02*
X110025000Y-85705000I0J-270000D01*
G01*
G37*
%TD*%
%TO.C,R3*%
G36*
G01*
X105875000Y-124480000D02*
X105875000Y-123170000D01*
G75*
G02*
X106145000Y-122900000I270000J0D01*
G01*
X106955000Y-122900000D01*
G75*
G02*
X107225000Y-123170000I0J-270000D01*
G01*
X107225000Y-124480000D01*
G75*
G02*
X106955000Y-124750000I-270000J0D01*
G01*
X106145000Y-124750000D01*
G75*
G02*
X105875000Y-124480000I0J270000D01*
G01*
G37*
G36*
G01*
X108675000Y-124480000D02*
X108675000Y-123170000D01*
G75*
G02*
X108945000Y-122900000I270000J0D01*
G01*
X109755000Y-122900000D01*
G75*
G02*
X110025000Y-123170000I0J-270000D01*
G01*
X110025000Y-124480000D01*
G75*
G02*
X109755000Y-124750000I-270000J0D01*
G01*
X108945000Y-124750000D01*
G75*
G02*
X108675000Y-124480000I0J270000D01*
G01*
G37*
%TD*%
%TO.C,R4*%
G36*
G01*
X110025000Y-90150000D02*
X110025000Y-91460000D01*
G75*
G02*
X109755000Y-91730000I-270000J0D01*
G01*
X108945000Y-91730000D01*
G75*
G02*
X108675000Y-91460000I0J270000D01*
G01*
X108675000Y-90150000D01*
G75*
G02*
X108945000Y-89880000I270000J0D01*
G01*
X109755000Y-89880000D01*
G75*
G02*
X110025000Y-90150000I0J-270000D01*
G01*
G37*
G36*
G01*
X107225000Y-90150000D02*
X107225000Y-91460000D01*
G75*
G02*
X106955000Y-91730000I-270000J0D01*
G01*
X106145000Y-91730000D01*
G75*
G02*
X105875000Y-91460000I0J270000D01*
G01*
X105875000Y-90150000D01*
G75*
G02*
X106145000Y-89880000I270000J0D01*
G01*
X106955000Y-89880000D01*
G75*
G02*
X107225000Y-90150000I0J-270000D01*
G01*
G37*
%TD*%
%TO.C,R5*%
G36*
G01*
X114700000Y-86841250D02*
X114700000Y-85878750D01*
G75*
G02*
X114968750Y-85610000I268750J0D01*
G01*
X115506250Y-85610000D01*
G75*
G02*
X115775000Y-85878750I0J-268750D01*
G01*
X115775000Y-86841250D01*
G75*
G02*
X115506250Y-87110000I-268750J0D01*
G01*
X114968750Y-87110000D01*
G75*
G02*
X114700000Y-86841250I0J268750D01*
G01*
G37*
G36*
G01*
X112825000Y-86841250D02*
X112825000Y-85878750D01*
G75*
G02*
X113093750Y-85610000I268750J0D01*
G01*
X113631250Y-85610000D01*
G75*
G02*
X113900000Y-85878750I0J-268750D01*
G01*
X113900000Y-86841250D01*
G75*
G02*
X113631250Y-87110000I-268750J0D01*
G01*
X113093750Y-87110000D01*
G75*
G02*
X112825000Y-86841250I0J268750D01*
G01*
G37*
%TD*%
%TO.C,R6*%
G36*
G01*
X113900000Y-90323750D02*
X113900000Y-91286250D01*
G75*
G02*
X113631250Y-91555000I-268750J0D01*
G01*
X113093750Y-91555000D01*
G75*
G02*
X112825000Y-91286250I0J268750D01*
G01*
X112825000Y-90323750D01*
G75*
G02*
X113093750Y-90055000I268750J0D01*
G01*
X113631250Y-90055000D01*
G75*
G02*
X113900000Y-90323750I0J-268750D01*
G01*
G37*
G36*
G01*
X115775000Y-90323750D02*
X115775000Y-91286250D01*
G75*
G02*
X115506250Y-91555000I-268750J0D01*
G01*
X114968750Y-91555000D01*
G75*
G02*
X114700000Y-91286250I0J268750D01*
G01*
X114700000Y-90323750D01*
G75*
G02*
X114968750Y-90055000I268750J0D01*
G01*
X115506250Y-90055000D01*
G75*
G02*
X115775000Y-90323750I0J-268750D01*
G01*
G37*
%TD*%
%TO.C,R7*%
G36*
G01*
X112825000Y-119861250D02*
X112825000Y-118898750D01*
G75*
G02*
X113093750Y-118630000I268750J0D01*
G01*
X113631250Y-118630000D01*
G75*
G02*
X113900000Y-118898750I0J-268750D01*
G01*
X113900000Y-119861250D01*
G75*
G02*
X113631250Y-120130000I-268750J0D01*
G01*
X113093750Y-120130000D01*
G75*
G02*
X112825000Y-119861250I0J268750D01*
G01*
G37*
G36*
G01*
X114700000Y-119861250D02*
X114700000Y-118898750D01*
G75*
G02*
X114968750Y-118630000I268750J0D01*
G01*
X115506250Y-118630000D01*
G75*
G02*
X115775000Y-118898750I0J-268750D01*
G01*
X115775000Y-119861250D01*
G75*
G02*
X115506250Y-120130000I-268750J0D01*
G01*
X114968750Y-120130000D01*
G75*
G02*
X114700000Y-119861250I0J268750D01*
G01*
G37*
%TD*%
%TO.C,R8*%
G36*
G01*
X115775000Y-123343750D02*
X115775000Y-124306250D01*
G75*
G02*
X115506250Y-124575000I-268750J0D01*
G01*
X114968750Y-124575000D01*
G75*
G02*
X114700000Y-124306250I0J268750D01*
G01*
X114700000Y-123343750D01*
G75*
G02*
X114968750Y-123075000I268750J0D01*
G01*
X115506250Y-123075000D01*
G75*
G02*
X115775000Y-123343750I0J-268750D01*
G01*
G37*
G36*
G01*
X113900000Y-123343750D02*
X113900000Y-124306250D01*
G75*
G02*
X113631250Y-124575000I-268750J0D01*
G01*
X113093750Y-124575000D01*
G75*
G02*
X112825000Y-124306250I0J268750D01*
G01*
X112825000Y-123343750D01*
G75*
G02*
X113093750Y-123075000I268750J0D01*
G01*
X113631250Y-123075000D01*
G75*
G02*
X113900000Y-123343750I0J-268750D01*
G01*
G37*
%TD*%
%TO.C,R9*%
G36*
G01*
X119375000Y-119661250D02*
X119375000Y-119098750D01*
G75*
G02*
X119618750Y-118855000I243750J0D01*
G01*
X120106250Y-118855000D01*
G75*
G02*
X120350000Y-119098750I0J-243750D01*
G01*
X120350000Y-119661250D01*
G75*
G02*
X120106250Y-119905000I-243750J0D01*
G01*
X119618750Y-119905000D01*
G75*
G02*
X119375000Y-119661250I0J243750D01*
G01*
G37*
G36*
G01*
X120950000Y-119661250D02*
X120950000Y-119098750D01*
G75*
G02*
X121193750Y-118855000I243750J0D01*
G01*
X121681250Y-118855000D01*
G75*
G02*
X121925000Y-119098750I0J-243750D01*
G01*
X121925000Y-119661250D01*
G75*
G02*
X121681250Y-119905000I-243750J0D01*
G01*
X121193750Y-119905000D01*
G75*
G02*
X120950000Y-119661250I0J243750D01*
G01*
G37*
%TD*%
%TO.C,R10*%
G36*
G01*
X120350000Y-123543750D02*
X120350000Y-124106250D01*
G75*
G02*
X120106250Y-124350000I-243750J0D01*
G01*
X119618750Y-124350000D01*
G75*
G02*
X119375000Y-124106250I0J243750D01*
G01*
X119375000Y-123543750D01*
G75*
G02*
X119618750Y-123300000I243750J0D01*
G01*
X120106250Y-123300000D01*
G75*
G02*
X120350000Y-123543750I0J-243750D01*
G01*
G37*
G36*
G01*
X121925000Y-123543750D02*
X121925000Y-124106250D01*
G75*
G02*
X121681250Y-124350000I-243750J0D01*
G01*
X121193750Y-124350000D01*
G75*
G02*
X120950000Y-124106250I0J243750D01*
G01*
X120950000Y-123543750D01*
G75*
G02*
X121193750Y-123300000I243750J0D01*
G01*
X121681250Y-123300000D01*
G75*
G02*
X121925000Y-123543750I0J-243750D01*
G01*
G37*
%TD*%
%TO.C,R11*%
G36*
G01*
X120950000Y-86641250D02*
X120950000Y-86078750D01*
G75*
G02*
X121193750Y-85835000I243750J0D01*
G01*
X121681250Y-85835000D01*
G75*
G02*
X121925000Y-86078750I0J-243750D01*
G01*
X121925000Y-86641250D01*
G75*
G02*
X121681250Y-86885000I-243750J0D01*
G01*
X121193750Y-86885000D01*
G75*
G02*
X120950000Y-86641250I0J243750D01*
G01*
G37*
G36*
G01*
X119375000Y-86641250D02*
X119375000Y-86078750D01*
G75*
G02*
X119618750Y-85835000I243750J0D01*
G01*
X120106250Y-85835000D01*
G75*
G02*
X120350000Y-86078750I0J-243750D01*
G01*
X120350000Y-86641250D01*
G75*
G02*
X120106250Y-86885000I-243750J0D01*
G01*
X119618750Y-86885000D01*
G75*
G02*
X119375000Y-86641250I0J243750D01*
G01*
G37*
%TD*%
%TO.C,R12*%
G36*
G01*
X121925000Y-90523750D02*
X121925000Y-91086250D01*
G75*
G02*
X121681250Y-91330000I-243750J0D01*
G01*
X121193750Y-91330000D01*
G75*
G02*
X120950000Y-91086250I0J243750D01*
G01*
X120950000Y-90523750D01*
G75*
G02*
X121193750Y-90280000I243750J0D01*
G01*
X121681250Y-90280000D01*
G75*
G02*
X121925000Y-90523750I0J-243750D01*
G01*
G37*
G36*
G01*
X120350000Y-90523750D02*
X120350000Y-91086250D01*
G75*
G02*
X120106250Y-91330000I-243750J0D01*
G01*
X119618750Y-91330000D01*
G75*
G02*
X119375000Y-91086250I0J243750D01*
G01*
X119375000Y-90523750D01*
G75*
G02*
X119618750Y-90280000I243750J0D01*
G01*
X120106250Y-90280000D01*
G75*
G02*
X120350000Y-90523750I0J-243750D01*
G01*
G37*
%TD*%
%TO.C,R13*%
G36*
G01*
X126170000Y-86557500D02*
X126170000Y-86162500D01*
G75*
G02*
X126342500Y-85990000I172500J0D01*
G01*
X126687500Y-85990000D01*
G75*
G02*
X126860000Y-86162500I0J-172500D01*
G01*
X126860000Y-86557500D01*
G75*
G02*
X126687500Y-86730000I-172500J0D01*
G01*
X126342500Y-86730000D01*
G75*
G02*
X126170000Y-86557500I0J172500D01*
G01*
G37*
G36*
G01*
X127140000Y-86557500D02*
X127140000Y-86162500D01*
G75*
G02*
X127312500Y-85990000I172500J0D01*
G01*
X127657500Y-85990000D01*
G75*
G02*
X127830000Y-86162500I0J-172500D01*
G01*
X127830000Y-86557500D01*
G75*
G02*
X127657500Y-86730000I-172500J0D01*
G01*
X127312500Y-86730000D01*
G75*
G02*
X127140000Y-86557500I0J172500D01*
G01*
G37*
%TD*%
%TO.C,R14*%
G36*
G01*
X127830000Y-90607500D02*
X127830000Y-91002500D01*
G75*
G02*
X127657500Y-91175000I-172500J0D01*
G01*
X127312500Y-91175000D01*
G75*
G02*
X127140000Y-91002500I0J172500D01*
G01*
X127140000Y-90607500D01*
G75*
G02*
X127312500Y-90435000I172500J0D01*
G01*
X127657500Y-90435000D01*
G75*
G02*
X127830000Y-90607500I0J-172500D01*
G01*
G37*
G36*
G01*
X126860000Y-90607500D02*
X126860000Y-91002500D01*
G75*
G02*
X126687500Y-91175000I-172500J0D01*
G01*
X126342500Y-91175000D01*
G75*
G02*
X126170000Y-91002500I0J172500D01*
G01*
X126170000Y-90607500D01*
G75*
G02*
X126342500Y-90435000I172500J0D01*
G01*
X126687500Y-90435000D01*
G75*
G02*
X126860000Y-90607500I0J-172500D01*
G01*
G37*
%TD*%
%TO.C,R15*%
G36*
G01*
X127140000Y-119577500D02*
X127140000Y-119182500D01*
G75*
G02*
X127312500Y-119010000I172500J0D01*
G01*
X127657500Y-119010000D01*
G75*
G02*
X127830000Y-119182500I0J-172500D01*
G01*
X127830000Y-119577500D01*
G75*
G02*
X127657500Y-119750000I-172500J0D01*
G01*
X127312500Y-119750000D01*
G75*
G02*
X127140000Y-119577500I0J172500D01*
G01*
G37*
G36*
G01*
X126170000Y-119577500D02*
X126170000Y-119182500D01*
G75*
G02*
X126342500Y-119010000I172500J0D01*
G01*
X126687500Y-119010000D01*
G75*
G02*
X126860000Y-119182500I0J-172500D01*
G01*
X126860000Y-119577500D01*
G75*
G02*
X126687500Y-119750000I-172500J0D01*
G01*
X126342500Y-119750000D01*
G75*
G02*
X126170000Y-119577500I0J172500D01*
G01*
G37*
%TD*%
%TO.C,R16*%
G36*
G01*
X126860000Y-123627500D02*
X126860000Y-124022500D01*
G75*
G02*
X126687500Y-124195000I-172500J0D01*
G01*
X126342500Y-124195000D01*
G75*
G02*
X126170000Y-124022500I0J172500D01*
G01*
X126170000Y-123627500D01*
G75*
G02*
X126342500Y-123455000I172500J0D01*
G01*
X126687500Y-123455000D01*
G75*
G02*
X126860000Y-123627500I0J-172500D01*
G01*
G37*
G36*
G01*
X127830000Y-123627500D02*
X127830000Y-124022500D01*
G75*
G02*
X127657500Y-124195000I-172500J0D01*
G01*
X127312500Y-124195000D01*
G75*
G02*
X127140000Y-124022500I0J172500D01*
G01*
X127140000Y-123627500D01*
G75*
G02*
X127312500Y-123455000I172500J0D01*
G01*
X127657500Y-123455000D01*
G75*
G02*
X127830000Y-123627500I0J-172500D01*
G01*
G37*
%TD*%
%TO.C,R17*%
G36*
G01*
X132430000Y-86485000D02*
X132430000Y-86235000D01*
G75*
G02*
X132555000Y-86110000I125000J0D01*
G01*
X132865000Y-86110000D01*
G75*
G02*
X132990000Y-86235000I0J-125000D01*
G01*
X132990000Y-86485000D01*
G75*
G02*
X132865000Y-86610000I-125000J0D01*
G01*
X132555000Y-86610000D01*
G75*
G02*
X132430000Y-86485000I0J125000D01*
G01*
G37*
G36*
G01*
X133070000Y-86485000D02*
X133070000Y-86235000D01*
G75*
G02*
X133195000Y-86110000I125000J0D01*
G01*
X133505000Y-86110000D01*
G75*
G02*
X133630000Y-86235000I0J-125000D01*
G01*
X133630000Y-86485000D01*
G75*
G02*
X133505000Y-86610000I-125000J0D01*
G01*
X133195000Y-86610000D01*
G75*
G02*
X133070000Y-86485000I0J125000D01*
G01*
G37*
%TD*%
%TO.C,R18*%
G36*
G01*
X133696000Y-90680000D02*
X133696000Y-90930000D01*
G75*
G02*
X133571000Y-91055000I-125000J0D01*
G01*
X133261000Y-91055000D01*
G75*
G02*
X133136000Y-90930000I0J125000D01*
G01*
X133136000Y-90680000D01*
G75*
G02*
X133261000Y-90555000I125000J0D01*
G01*
X133571000Y-90555000D01*
G75*
G02*
X133696000Y-90680000I0J-125000D01*
G01*
G37*
G36*
G01*
X133056000Y-90680000D02*
X133056000Y-90930000D01*
G75*
G02*
X132931000Y-91055000I-125000J0D01*
G01*
X132621000Y-91055000D01*
G75*
G02*
X132496000Y-90930000I0J125000D01*
G01*
X132496000Y-90680000D01*
G75*
G02*
X132621000Y-90555000I125000J0D01*
G01*
X132931000Y-90555000D01*
G75*
G02*
X133056000Y-90680000I0J-125000D01*
G01*
G37*
%TD*%
%TO.C,R19*%
G36*
G01*
X133070000Y-119505000D02*
X133070000Y-119255000D01*
G75*
G02*
X133195000Y-119130000I125000J0D01*
G01*
X133505000Y-119130000D01*
G75*
G02*
X133630000Y-119255000I0J-125000D01*
G01*
X133630000Y-119505000D01*
G75*
G02*
X133505000Y-119630000I-125000J0D01*
G01*
X133195000Y-119630000D01*
G75*
G02*
X133070000Y-119505000I0J125000D01*
G01*
G37*
G36*
G01*
X132430000Y-119505000D02*
X132430000Y-119255000D01*
G75*
G02*
X132555000Y-119130000I125000J0D01*
G01*
X132865000Y-119130000D01*
G75*
G02*
X132990000Y-119255000I0J-125000D01*
G01*
X132990000Y-119505000D01*
G75*
G02*
X132865000Y-119630000I-125000J0D01*
G01*
X132555000Y-119630000D01*
G75*
G02*
X132430000Y-119505000I0J125000D01*
G01*
G37*
%TD*%
%TO.C,R20*%
G36*
G01*
X133056000Y-123700000D02*
X133056000Y-123950000D01*
G75*
G02*
X132931000Y-124075000I-125000J0D01*
G01*
X132621000Y-124075000D01*
G75*
G02*
X132496000Y-123950000I0J125000D01*
G01*
X132496000Y-123700000D01*
G75*
G02*
X132621000Y-123575000I125000J0D01*
G01*
X132931000Y-123575000D01*
G75*
G02*
X133056000Y-123700000I0J-125000D01*
G01*
G37*
G36*
G01*
X133696000Y-123700000D02*
X133696000Y-123950000D01*
G75*
G02*
X133571000Y-124075000I-125000J0D01*
G01*
X133261000Y-124075000D01*
G75*
G02*
X133136000Y-123950000I0J125000D01*
G01*
X133136000Y-123700000D01*
G75*
G02*
X133261000Y-123575000I125000J0D01*
G01*
X133571000Y-123575000D01*
G75*
G02*
X133696000Y-123700000I0J-125000D01*
G01*
G37*
%TD*%
%TO.C,J5*%
G36*
G01*
X108560000Y-81765000D02*
X108560000Y-76715000D01*
G75*
G02*
X108835000Y-76440000I275000J0D01*
G01*
X109385000Y-76440000D01*
G75*
G02*
X109660000Y-76715000I0J-275000D01*
G01*
X109660000Y-81765000D01*
G75*
G02*
X109385000Y-82040000I-275000J0D01*
G01*
X108835000Y-82040000D01*
G75*
G02*
X108560000Y-81765000I0J275000D01*
G01*
G37*
G36*
G01*
X110560000Y-81765000D02*
X110560000Y-76715000D01*
G75*
G02*
X110835000Y-76440000I275000J0D01*
G01*
X111385000Y-76440000D01*
G75*
G02*
X111660000Y-76715000I0J-275000D01*
G01*
X111660000Y-81765000D01*
G75*
G02*
X111385000Y-82040000I-275000J0D01*
G01*
X110835000Y-82040000D01*
G75*
G02*
X110560000Y-81765000I0J275000D01*
G01*
G37*
G36*
G01*
X112560000Y-81765000D02*
X112560000Y-76715000D01*
G75*
G02*
X112835000Y-76440000I275000J0D01*
G01*
X113385000Y-76440000D01*
G75*
G02*
X113660000Y-76715000I0J-275000D01*
G01*
X113660000Y-81765000D01*
G75*
G02*
X113385000Y-82040000I-275000J0D01*
G01*
X112835000Y-82040000D01*
G75*
G02*
X112560000Y-81765000I0J275000D01*
G01*
G37*
G36*
G01*
X114560000Y-81765000D02*
X114560000Y-76715000D01*
G75*
G02*
X114835000Y-76440000I275000J0D01*
G01*
X115385000Y-76440000D01*
G75*
G02*
X115660000Y-76715000I0J-275000D01*
G01*
X115660000Y-81765000D01*
G75*
G02*
X115385000Y-82040000I-275000J0D01*
G01*
X114835000Y-82040000D01*
G75*
G02*
X114560000Y-81765000I0J275000D01*
G01*
G37*
G36*
G01*
X116560000Y-81765000D02*
X116560000Y-76715000D01*
G75*
G02*
X116835000Y-76440000I275000J0D01*
G01*
X117385000Y-76440000D01*
G75*
G02*
X117660000Y-76715000I0J-275000D01*
G01*
X117660000Y-81765000D01*
G75*
G02*
X117385000Y-82040000I-275000J0D01*
G01*
X116835000Y-82040000D01*
G75*
G02*
X116560000Y-81765000I0J275000D01*
G01*
G37*
G36*
G01*
X118560000Y-81765000D02*
X118560000Y-76715000D01*
G75*
G02*
X118835000Y-76440000I275000J0D01*
G01*
X119385000Y-76440000D01*
G75*
G02*
X119660000Y-76715000I0J-275000D01*
G01*
X119660000Y-81765000D01*
G75*
G02*
X119385000Y-82040000I-275000J0D01*
G01*
X118835000Y-82040000D01*
G75*
G02*
X118560000Y-81765000I0J275000D01*
G01*
G37*
G36*
G01*
X120560000Y-81765000D02*
X120560000Y-76715000D01*
G75*
G02*
X120835000Y-76440000I275000J0D01*
G01*
X121385000Y-76440000D01*
G75*
G02*
X121660000Y-76715000I0J-275000D01*
G01*
X121660000Y-81765000D01*
G75*
G02*
X121385000Y-82040000I-275000J0D01*
G01*
X120835000Y-82040000D01*
G75*
G02*
X120560000Y-81765000I0J275000D01*
G01*
G37*
G36*
G01*
X122560000Y-81765000D02*
X122560000Y-76715000D01*
G75*
G02*
X122835000Y-76440000I275000J0D01*
G01*
X123385000Y-76440000D01*
G75*
G02*
X123660000Y-76715000I0J-275000D01*
G01*
X123660000Y-81765000D01*
G75*
G02*
X123385000Y-82040000I-275000J0D01*
G01*
X122835000Y-82040000D01*
G75*
G02*
X122560000Y-81765000I0J275000D01*
G01*
G37*
G36*
G01*
X124560000Y-81765000D02*
X124560000Y-76715000D01*
G75*
G02*
X124835000Y-76440000I275000J0D01*
G01*
X125385000Y-76440000D01*
G75*
G02*
X125660000Y-76715000I0J-275000D01*
G01*
X125660000Y-81765000D01*
G75*
G02*
X125385000Y-82040000I-275000J0D01*
G01*
X124835000Y-82040000D01*
G75*
G02*
X124560000Y-81765000I0J275000D01*
G01*
G37*
G36*
G01*
X126560000Y-81765000D02*
X126560000Y-76715000D01*
G75*
G02*
X126835000Y-76440000I275000J0D01*
G01*
X127385000Y-76440000D01*
G75*
G02*
X127660000Y-76715000I0J-275000D01*
G01*
X127660000Y-81765000D01*
G75*
G02*
X127385000Y-82040000I-275000J0D01*
G01*
X126835000Y-82040000D01*
G75*
G02*
X126560000Y-81765000I0J275000D01*
G01*
G37*
G36*
G01*
X105860000Y-78274375D02*
X105860000Y-75705625D01*
G75*
G02*
X106125625Y-75440000I265625J0D01*
G01*
X107294375Y-75440000D01*
G75*
G02*
X107560000Y-75705625I0J-265625D01*
G01*
X107560000Y-78274375D01*
G75*
G02*
X107294375Y-78540000I-265625J0D01*
G01*
X106125625Y-78540000D01*
G75*
G02*
X105860000Y-78274375I0J265625D01*
G01*
G37*
G36*
G01*
X128660000Y-78274375D02*
X128660000Y-75705625D01*
G75*
G02*
X128925625Y-75440000I265625J0D01*
G01*
X130094375Y-75440000D01*
G75*
G02*
X130360000Y-75705625I0J-265625D01*
G01*
X130360000Y-78274375D01*
G75*
G02*
X130094375Y-78540000I-265625J0D01*
G01*
X128925625Y-78540000D01*
G75*
G02*
X128660000Y-78274375I0J265625D01*
G01*
G37*
%TD*%
%TO.C,J6*%
G36*
G01*
X128660000Y-111294375D02*
X128660000Y-108725625D01*
G75*
G02*
X128925625Y-108460000I265625J0D01*
G01*
X130094375Y-108460000D01*
G75*
G02*
X130360000Y-108725625I0J-265625D01*
G01*
X130360000Y-111294375D01*
G75*
G02*
X130094375Y-111560000I-265625J0D01*
G01*
X128925625Y-111560000D01*
G75*
G02*
X128660000Y-111294375I0J265625D01*
G01*
G37*
G36*
G01*
X105860000Y-111294375D02*
X105860000Y-108725625D01*
G75*
G02*
X106125625Y-108460000I265625J0D01*
G01*
X107294375Y-108460000D01*
G75*
G02*
X107560000Y-108725625I0J-265625D01*
G01*
X107560000Y-111294375D01*
G75*
G02*
X107294375Y-111560000I-265625J0D01*
G01*
X106125625Y-111560000D01*
G75*
G02*
X105860000Y-111294375I0J265625D01*
G01*
G37*
G36*
G01*
X126560000Y-114785000D02*
X126560000Y-109735000D01*
G75*
G02*
X126835000Y-109460000I275000J0D01*
G01*
X127385000Y-109460000D01*
G75*
G02*
X127660000Y-109735000I0J-275000D01*
G01*
X127660000Y-114785000D01*
G75*
G02*
X127385000Y-115060000I-275000J0D01*
G01*
X126835000Y-115060000D01*
G75*
G02*
X126560000Y-114785000I0J275000D01*
G01*
G37*
G36*
G01*
X124560000Y-114785000D02*
X124560000Y-109735000D01*
G75*
G02*
X124835000Y-109460000I275000J0D01*
G01*
X125385000Y-109460000D01*
G75*
G02*
X125660000Y-109735000I0J-275000D01*
G01*
X125660000Y-114785000D01*
G75*
G02*
X125385000Y-115060000I-275000J0D01*
G01*
X124835000Y-115060000D01*
G75*
G02*
X124560000Y-114785000I0J275000D01*
G01*
G37*
G36*
G01*
X122560000Y-114785000D02*
X122560000Y-109735000D01*
G75*
G02*
X122835000Y-109460000I275000J0D01*
G01*
X123385000Y-109460000D01*
G75*
G02*
X123660000Y-109735000I0J-275000D01*
G01*
X123660000Y-114785000D01*
G75*
G02*
X123385000Y-115060000I-275000J0D01*
G01*
X122835000Y-115060000D01*
G75*
G02*
X122560000Y-114785000I0J275000D01*
G01*
G37*
G36*
G01*
X120560000Y-114785000D02*
X120560000Y-109735000D01*
G75*
G02*
X120835000Y-109460000I275000J0D01*
G01*
X121385000Y-109460000D01*
G75*
G02*
X121660000Y-109735000I0J-275000D01*
G01*
X121660000Y-114785000D01*
G75*
G02*
X121385000Y-115060000I-275000J0D01*
G01*
X120835000Y-115060000D01*
G75*
G02*
X120560000Y-114785000I0J275000D01*
G01*
G37*
G36*
G01*
X118560000Y-114785000D02*
X118560000Y-109735000D01*
G75*
G02*
X118835000Y-109460000I275000J0D01*
G01*
X119385000Y-109460000D01*
G75*
G02*
X119660000Y-109735000I0J-275000D01*
G01*
X119660000Y-114785000D01*
G75*
G02*
X119385000Y-115060000I-275000J0D01*
G01*
X118835000Y-115060000D01*
G75*
G02*
X118560000Y-114785000I0J275000D01*
G01*
G37*
G36*
G01*
X116560000Y-114785000D02*
X116560000Y-109735000D01*
G75*
G02*
X116835000Y-109460000I275000J0D01*
G01*
X117385000Y-109460000D01*
G75*
G02*
X117660000Y-109735000I0J-275000D01*
G01*
X117660000Y-114785000D01*
G75*
G02*
X117385000Y-115060000I-275000J0D01*
G01*
X116835000Y-115060000D01*
G75*
G02*
X116560000Y-114785000I0J275000D01*
G01*
G37*
G36*
G01*
X114560000Y-114785000D02*
X114560000Y-109735000D01*
G75*
G02*
X114835000Y-109460000I275000J0D01*
G01*
X115385000Y-109460000D01*
G75*
G02*
X115660000Y-109735000I0J-275000D01*
G01*
X115660000Y-114785000D01*
G75*
G02*
X115385000Y-115060000I-275000J0D01*
G01*
X114835000Y-115060000D01*
G75*
G02*
X114560000Y-114785000I0J275000D01*
G01*
G37*
G36*
G01*
X112560000Y-114785000D02*
X112560000Y-109735000D01*
G75*
G02*
X112835000Y-109460000I275000J0D01*
G01*
X113385000Y-109460000D01*
G75*
G02*
X113660000Y-109735000I0J-275000D01*
G01*
X113660000Y-114785000D01*
G75*
G02*
X113385000Y-115060000I-275000J0D01*
G01*
X112835000Y-115060000D01*
G75*
G02*
X112560000Y-114785000I0J275000D01*
G01*
G37*
G36*
G01*
X110560000Y-114785000D02*
X110560000Y-109735000D01*
G75*
G02*
X110835000Y-109460000I275000J0D01*
G01*
X111385000Y-109460000D01*
G75*
G02*
X111660000Y-109735000I0J-275000D01*
G01*
X111660000Y-114785000D01*
G75*
G02*
X111385000Y-115060000I-275000J0D01*
G01*
X110835000Y-115060000D01*
G75*
G02*
X110560000Y-114785000I0J275000D01*
G01*
G37*
G36*
G01*
X108560000Y-114785000D02*
X108560000Y-109735000D01*
G75*
G02*
X108835000Y-109460000I275000J0D01*
G01*
X109385000Y-109460000D01*
G75*
G02*
X109660000Y-109735000I0J-275000D01*
G01*
X109660000Y-114785000D01*
G75*
G02*
X109385000Y-115060000I-275000J0D01*
G01*
X108835000Y-115060000D01*
G75*
G02*
X108560000Y-114785000I0J275000D01*
G01*
G37*
%TD*%
D14*
%TO.C,Q2*%
X134045000Y-101581000D03*
X134045000Y-102381000D03*
D15*
X135195000Y-101981000D03*
%TD*%
%TO.C,Q4*%
X135195000Y-68961000D03*
D14*
X134045000Y-69361000D03*
X134045000Y-68561000D03*
%TD*%
M02*
