%TF.GenerationSoftware,KiCad,Pcbnew,5.1.6-c6e7f7d~87~ubuntu20.04.1*%
%TF.CreationDate,2020-08-30T17:45:41-04:00*%
%TF.ProjectId,noob_tester,6e6f6f62-5f74-4657-9374-65722e6b6963,rev?*%
%TF.SameCoordinates,Original*%
%TF.FileFunction,Copper,L2,Bot*%
%TF.FilePolarity,Positive*%
%FSLAX46Y46*%
G04 Gerber Fmt 4.6, Leading zero omitted, Abs format (unit mm)*
G04 Created by KiCad (PCBNEW 5.1.6-c6e7f7d~87~ubuntu20.04.1) date 2020-08-30 17:45:41*
%MOMM*%
%LPD*%
G01*
G04 APERTURE LIST*
%TA.AperFunction,ComponentPad*%
%ADD10O,1.700000X1.700000*%
%TD*%
%TA.AperFunction,ComponentPad*%
%ADD11R,1.700000X1.700000*%
%TD*%
%TA.AperFunction,ViaPad*%
%ADD12C,0.800000*%
%TD*%
%TA.AperFunction,Conductor*%
%ADD13C,0.254000*%
%TD*%
G04 APERTURE END LIST*
D10*
%TO.P,J1,10*%
%TO.N,GND*%
X99060000Y-90170000D03*
%TO.P,J1,9*%
X99060000Y-87630000D03*
%TO.P,J1,8*%
X99060000Y-85090000D03*
%TO.P,J1,7*%
X99060000Y-82550000D03*
%TO.P,J1,6*%
X99060000Y-80010000D03*
%TO.P,J1,5*%
%TO.N,Net-(J1-Pad5)*%
X99060000Y-77470000D03*
%TO.P,J1,4*%
%TO.N,Net-(J1-Pad4)*%
X99060000Y-74930000D03*
%TO.P,J1,3*%
%TO.N,Net-(J1-Pad3)*%
X99060000Y-72390000D03*
%TO.P,J1,2*%
%TO.N,Net-(J1-Pad2)*%
X99060000Y-69850000D03*
D11*
%TO.P,J1,1*%
%TO.N,GND*%
X99060000Y-67310000D03*
%TD*%
%TO.P,J2,1*%
%TO.N,GND*%
X99060000Y-100330000D03*
D10*
%TO.P,J2,2*%
%TO.N,Net-(J2-Pad2)*%
X99060000Y-102870000D03*
%TO.P,J2,3*%
%TO.N,Net-(J2-Pad3)*%
X99060000Y-105410000D03*
%TO.P,J2,4*%
%TO.N,Net-(J2-Pad4)*%
X99060000Y-107950000D03*
%TO.P,J2,5*%
%TO.N,Net-(J2-Pad5)*%
X99060000Y-110490000D03*
%TO.P,J2,6*%
%TO.N,GND*%
X99060000Y-113030000D03*
%TO.P,J2,7*%
X99060000Y-115570000D03*
%TO.P,J2,8*%
X99060000Y-118110000D03*
%TO.P,J2,9*%
X99060000Y-120650000D03*
%TO.P,J2,10*%
X99060000Y-123190000D03*
%TD*%
D12*
%TO.N,GND*%
X129540000Y-127000000D03*
X144780000Y-71120000D03*
X144780000Y-104140000D03*
X99060000Y-127000000D03*
X102870000Y-127000000D03*
X106680000Y-127000000D03*
X95250000Y-127000000D03*
X110490000Y-127000000D03*
X114300000Y-127000000D03*
X118110000Y-127000000D03*
X121920000Y-127000000D03*
X125730000Y-127000000D03*
X133350000Y-127000000D03*
X137160000Y-127000000D03*
X140970000Y-127000000D03*
X144780000Y-127000000D03*
X148590000Y-127000000D03*
X152400000Y-127000000D03*
X152400000Y-123190000D03*
X152400000Y-119380000D03*
X152400000Y-115570000D03*
X152400000Y-111760000D03*
X152400000Y-107950000D03*
X152400000Y-104140000D03*
X152400000Y-100330000D03*
X152400000Y-96520000D03*
X152400000Y-92710000D03*
X152400000Y-88900000D03*
X152400000Y-85090000D03*
X152400000Y-81280000D03*
X152400000Y-77470000D03*
X152400000Y-73660000D03*
X152400000Y-69850000D03*
X152400000Y-66040000D03*
X152400000Y-62230000D03*
X95250000Y-123190000D03*
X95250000Y-119380000D03*
X95250000Y-115570000D03*
X95250000Y-111760000D03*
X95250000Y-107950000D03*
X95250000Y-104140000D03*
X95250000Y-100330000D03*
X95250000Y-96520000D03*
X95250000Y-92710000D03*
X95250000Y-88900000D03*
X95250000Y-85090000D03*
X95250000Y-81280000D03*
X95250000Y-77470000D03*
X95250000Y-73660000D03*
X95250000Y-69850000D03*
X95250000Y-66040000D03*
X95250000Y-62230000D03*
X97155000Y-94615000D03*
X100965000Y-94615000D03*
X104775000Y-94615000D03*
X108585000Y-94615000D03*
X112395000Y-94615000D03*
X116205000Y-94615000D03*
X120015000Y-94615000D03*
X123825000Y-94615000D03*
X127635000Y-94615000D03*
X131445000Y-94615000D03*
X135255000Y-94615000D03*
X139065000Y-94615000D03*
X142875000Y-94615000D03*
X146685000Y-94615000D03*
X150495000Y-94615000D03*
X99060000Y-62230000D03*
X102870000Y-62230000D03*
X106680000Y-62230000D03*
X110490000Y-62230000D03*
X114300000Y-62230000D03*
X118110000Y-62230000D03*
X121920000Y-62230000D03*
X125730000Y-62230000D03*
X129540000Y-62230000D03*
X133350000Y-62230000D03*
X137160000Y-62230000D03*
X140970000Y-62230000D03*
X144780000Y-62230000D03*
X148590000Y-62230000D03*
%TD*%
D13*
%TO.N,GND*%
G36*
X153010001Y-127610000D02*
G01*
X94640000Y-127610000D01*
X94640000Y-123546890D01*
X97618524Y-123546890D01*
X97663175Y-123694099D01*
X97788359Y-123956920D01*
X97962412Y-124190269D01*
X98178645Y-124385178D01*
X98428748Y-124534157D01*
X98703109Y-124631481D01*
X98933000Y-124510814D01*
X98933000Y-123317000D01*
X99187000Y-123317000D01*
X99187000Y-124510814D01*
X99416891Y-124631481D01*
X99691252Y-124534157D01*
X99941355Y-124385178D01*
X100157588Y-124190269D01*
X100331641Y-123956920D01*
X100456825Y-123694099D01*
X100501476Y-123546890D01*
X100380155Y-123317000D01*
X99187000Y-123317000D01*
X98933000Y-123317000D01*
X97739845Y-123317000D01*
X97618524Y-123546890D01*
X94640000Y-123546890D01*
X94640000Y-121006890D01*
X97618524Y-121006890D01*
X97663175Y-121154099D01*
X97788359Y-121416920D01*
X97962412Y-121650269D01*
X98178645Y-121845178D01*
X98304255Y-121920000D01*
X98178645Y-121994822D01*
X97962412Y-122189731D01*
X97788359Y-122423080D01*
X97663175Y-122685901D01*
X97618524Y-122833110D01*
X97739845Y-123063000D01*
X98933000Y-123063000D01*
X98933000Y-120777000D01*
X99187000Y-120777000D01*
X99187000Y-123063000D01*
X100380155Y-123063000D01*
X100501476Y-122833110D01*
X100456825Y-122685901D01*
X100331641Y-122423080D01*
X100157588Y-122189731D01*
X99941355Y-121994822D01*
X99815745Y-121920000D01*
X99941355Y-121845178D01*
X100157588Y-121650269D01*
X100331641Y-121416920D01*
X100456825Y-121154099D01*
X100501476Y-121006890D01*
X100380155Y-120777000D01*
X99187000Y-120777000D01*
X98933000Y-120777000D01*
X97739845Y-120777000D01*
X97618524Y-121006890D01*
X94640000Y-121006890D01*
X94640000Y-118466890D01*
X97618524Y-118466890D01*
X97663175Y-118614099D01*
X97788359Y-118876920D01*
X97962412Y-119110269D01*
X98178645Y-119305178D01*
X98304255Y-119380000D01*
X98178645Y-119454822D01*
X97962412Y-119649731D01*
X97788359Y-119883080D01*
X97663175Y-120145901D01*
X97618524Y-120293110D01*
X97739845Y-120523000D01*
X98933000Y-120523000D01*
X98933000Y-118237000D01*
X99187000Y-118237000D01*
X99187000Y-120523000D01*
X100380155Y-120523000D01*
X100501476Y-120293110D01*
X100456825Y-120145901D01*
X100331641Y-119883080D01*
X100157588Y-119649731D01*
X99941355Y-119454822D01*
X99815745Y-119380000D01*
X99941355Y-119305178D01*
X100157588Y-119110269D01*
X100331641Y-118876920D01*
X100456825Y-118614099D01*
X100501476Y-118466890D01*
X100380155Y-118237000D01*
X99187000Y-118237000D01*
X98933000Y-118237000D01*
X97739845Y-118237000D01*
X97618524Y-118466890D01*
X94640000Y-118466890D01*
X94640000Y-115926890D01*
X97618524Y-115926890D01*
X97663175Y-116074099D01*
X97788359Y-116336920D01*
X97962412Y-116570269D01*
X98178645Y-116765178D01*
X98304255Y-116840000D01*
X98178645Y-116914822D01*
X97962412Y-117109731D01*
X97788359Y-117343080D01*
X97663175Y-117605901D01*
X97618524Y-117753110D01*
X97739845Y-117983000D01*
X98933000Y-117983000D01*
X98933000Y-115697000D01*
X99187000Y-115697000D01*
X99187000Y-117983000D01*
X100380155Y-117983000D01*
X100501476Y-117753110D01*
X100456825Y-117605901D01*
X100331641Y-117343080D01*
X100157588Y-117109731D01*
X99941355Y-116914822D01*
X99815745Y-116840000D01*
X99941355Y-116765178D01*
X100157588Y-116570269D01*
X100331641Y-116336920D01*
X100456825Y-116074099D01*
X100501476Y-115926890D01*
X100380155Y-115697000D01*
X99187000Y-115697000D01*
X98933000Y-115697000D01*
X97739845Y-115697000D01*
X97618524Y-115926890D01*
X94640000Y-115926890D01*
X94640000Y-113386890D01*
X97618524Y-113386890D01*
X97663175Y-113534099D01*
X97788359Y-113796920D01*
X97962412Y-114030269D01*
X98178645Y-114225178D01*
X98304255Y-114300000D01*
X98178645Y-114374822D01*
X97962412Y-114569731D01*
X97788359Y-114803080D01*
X97663175Y-115065901D01*
X97618524Y-115213110D01*
X97739845Y-115443000D01*
X98933000Y-115443000D01*
X98933000Y-113157000D01*
X99187000Y-113157000D01*
X99187000Y-115443000D01*
X100380155Y-115443000D01*
X100501476Y-115213110D01*
X100456825Y-115065901D01*
X100331641Y-114803080D01*
X100157588Y-114569731D01*
X99941355Y-114374822D01*
X99815745Y-114300000D01*
X99941355Y-114225178D01*
X100157588Y-114030269D01*
X100331641Y-113796920D01*
X100456825Y-113534099D01*
X100501476Y-113386890D01*
X100380155Y-113157000D01*
X99187000Y-113157000D01*
X98933000Y-113157000D01*
X97739845Y-113157000D01*
X97618524Y-113386890D01*
X94640000Y-113386890D01*
X94640000Y-101180000D01*
X97571928Y-101180000D01*
X97584188Y-101304482D01*
X97620498Y-101424180D01*
X97679463Y-101534494D01*
X97758815Y-101631185D01*
X97855506Y-101710537D01*
X97965820Y-101769502D01*
X98038380Y-101791513D01*
X97906525Y-101923368D01*
X97744010Y-102166589D01*
X97632068Y-102436842D01*
X97575000Y-102723740D01*
X97575000Y-103016260D01*
X97632068Y-103303158D01*
X97744010Y-103573411D01*
X97906525Y-103816632D01*
X98113368Y-104023475D01*
X98287760Y-104140000D01*
X98113368Y-104256525D01*
X97906525Y-104463368D01*
X97744010Y-104706589D01*
X97632068Y-104976842D01*
X97575000Y-105263740D01*
X97575000Y-105556260D01*
X97632068Y-105843158D01*
X97744010Y-106113411D01*
X97906525Y-106356632D01*
X98113368Y-106563475D01*
X98287760Y-106680000D01*
X98113368Y-106796525D01*
X97906525Y-107003368D01*
X97744010Y-107246589D01*
X97632068Y-107516842D01*
X97575000Y-107803740D01*
X97575000Y-108096260D01*
X97632068Y-108383158D01*
X97744010Y-108653411D01*
X97906525Y-108896632D01*
X98113368Y-109103475D01*
X98287760Y-109220000D01*
X98113368Y-109336525D01*
X97906525Y-109543368D01*
X97744010Y-109786589D01*
X97632068Y-110056842D01*
X97575000Y-110343740D01*
X97575000Y-110636260D01*
X97632068Y-110923158D01*
X97744010Y-111193411D01*
X97906525Y-111436632D01*
X98113368Y-111643475D01*
X98295534Y-111765195D01*
X98178645Y-111834822D01*
X97962412Y-112029731D01*
X97788359Y-112263080D01*
X97663175Y-112525901D01*
X97618524Y-112673110D01*
X97739845Y-112903000D01*
X98933000Y-112903000D01*
X98933000Y-112883000D01*
X99187000Y-112883000D01*
X99187000Y-112903000D01*
X100380155Y-112903000D01*
X100501476Y-112673110D01*
X100456825Y-112525901D01*
X100331641Y-112263080D01*
X100157588Y-112029731D01*
X99941355Y-111834822D01*
X99824466Y-111765195D01*
X100006632Y-111643475D01*
X100213475Y-111436632D01*
X100375990Y-111193411D01*
X100487932Y-110923158D01*
X100545000Y-110636260D01*
X100545000Y-110343740D01*
X100487932Y-110056842D01*
X100375990Y-109786589D01*
X100213475Y-109543368D01*
X100006632Y-109336525D01*
X99832240Y-109220000D01*
X100006632Y-109103475D01*
X100213475Y-108896632D01*
X100375990Y-108653411D01*
X100487932Y-108383158D01*
X100545000Y-108096260D01*
X100545000Y-107803740D01*
X100487932Y-107516842D01*
X100375990Y-107246589D01*
X100213475Y-107003368D01*
X100006632Y-106796525D01*
X99832240Y-106680000D01*
X100006632Y-106563475D01*
X100213475Y-106356632D01*
X100375990Y-106113411D01*
X100487932Y-105843158D01*
X100545000Y-105556260D01*
X100545000Y-105263740D01*
X100487932Y-104976842D01*
X100375990Y-104706589D01*
X100213475Y-104463368D01*
X100006632Y-104256525D01*
X99832240Y-104140000D01*
X100006632Y-104023475D01*
X100213475Y-103816632D01*
X100375990Y-103573411D01*
X100487932Y-103303158D01*
X100545000Y-103016260D01*
X100545000Y-102723740D01*
X100487932Y-102436842D01*
X100375990Y-102166589D01*
X100213475Y-101923368D01*
X100081620Y-101791513D01*
X100154180Y-101769502D01*
X100264494Y-101710537D01*
X100361185Y-101631185D01*
X100440537Y-101534494D01*
X100499502Y-101424180D01*
X100535812Y-101304482D01*
X100548072Y-101180000D01*
X100545000Y-100615750D01*
X100386250Y-100457000D01*
X99187000Y-100457000D01*
X99187000Y-100477000D01*
X98933000Y-100477000D01*
X98933000Y-100457000D01*
X97733750Y-100457000D01*
X97575000Y-100615750D01*
X97571928Y-101180000D01*
X94640000Y-101180000D01*
X94640000Y-99480000D01*
X97571928Y-99480000D01*
X97575000Y-100044250D01*
X97733750Y-100203000D01*
X98933000Y-100203000D01*
X98933000Y-99003750D01*
X99187000Y-99003750D01*
X99187000Y-100203000D01*
X100386250Y-100203000D01*
X100545000Y-100044250D01*
X100548072Y-99480000D01*
X100535812Y-99355518D01*
X100499502Y-99235820D01*
X100440537Y-99125506D01*
X100361185Y-99028815D01*
X100264494Y-98949463D01*
X100154180Y-98890498D01*
X100034482Y-98854188D01*
X99910000Y-98841928D01*
X99345750Y-98845000D01*
X99187000Y-99003750D01*
X98933000Y-99003750D01*
X98774250Y-98845000D01*
X98210000Y-98841928D01*
X98085518Y-98854188D01*
X97965820Y-98890498D01*
X97855506Y-98949463D01*
X97758815Y-99028815D01*
X97679463Y-99125506D01*
X97620498Y-99235820D01*
X97584188Y-99355518D01*
X97571928Y-99480000D01*
X94640000Y-99480000D01*
X94640000Y-90526890D01*
X97618524Y-90526890D01*
X97663175Y-90674099D01*
X97788359Y-90936920D01*
X97962412Y-91170269D01*
X98178645Y-91365178D01*
X98428748Y-91514157D01*
X98703109Y-91611481D01*
X98933000Y-91490814D01*
X98933000Y-90297000D01*
X99187000Y-90297000D01*
X99187000Y-91490814D01*
X99416891Y-91611481D01*
X99691252Y-91514157D01*
X99941355Y-91365178D01*
X100157588Y-91170269D01*
X100331641Y-90936920D01*
X100456825Y-90674099D01*
X100501476Y-90526890D01*
X100380155Y-90297000D01*
X99187000Y-90297000D01*
X98933000Y-90297000D01*
X97739845Y-90297000D01*
X97618524Y-90526890D01*
X94640000Y-90526890D01*
X94640000Y-87986890D01*
X97618524Y-87986890D01*
X97663175Y-88134099D01*
X97788359Y-88396920D01*
X97962412Y-88630269D01*
X98178645Y-88825178D01*
X98304255Y-88900000D01*
X98178645Y-88974822D01*
X97962412Y-89169731D01*
X97788359Y-89403080D01*
X97663175Y-89665901D01*
X97618524Y-89813110D01*
X97739845Y-90043000D01*
X98933000Y-90043000D01*
X98933000Y-87757000D01*
X99187000Y-87757000D01*
X99187000Y-90043000D01*
X100380155Y-90043000D01*
X100501476Y-89813110D01*
X100456825Y-89665901D01*
X100331641Y-89403080D01*
X100157588Y-89169731D01*
X99941355Y-88974822D01*
X99815745Y-88900000D01*
X99941355Y-88825178D01*
X100157588Y-88630269D01*
X100331641Y-88396920D01*
X100456825Y-88134099D01*
X100501476Y-87986890D01*
X100380155Y-87757000D01*
X99187000Y-87757000D01*
X98933000Y-87757000D01*
X97739845Y-87757000D01*
X97618524Y-87986890D01*
X94640000Y-87986890D01*
X94640000Y-85446890D01*
X97618524Y-85446890D01*
X97663175Y-85594099D01*
X97788359Y-85856920D01*
X97962412Y-86090269D01*
X98178645Y-86285178D01*
X98304255Y-86360000D01*
X98178645Y-86434822D01*
X97962412Y-86629731D01*
X97788359Y-86863080D01*
X97663175Y-87125901D01*
X97618524Y-87273110D01*
X97739845Y-87503000D01*
X98933000Y-87503000D01*
X98933000Y-85217000D01*
X99187000Y-85217000D01*
X99187000Y-87503000D01*
X100380155Y-87503000D01*
X100501476Y-87273110D01*
X100456825Y-87125901D01*
X100331641Y-86863080D01*
X100157588Y-86629731D01*
X99941355Y-86434822D01*
X99815745Y-86360000D01*
X99941355Y-86285178D01*
X100157588Y-86090269D01*
X100331641Y-85856920D01*
X100456825Y-85594099D01*
X100501476Y-85446890D01*
X100380155Y-85217000D01*
X99187000Y-85217000D01*
X98933000Y-85217000D01*
X97739845Y-85217000D01*
X97618524Y-85446890D01*
X94640000Y-85446890D01*
X94640000Y-82906890D01*
X97618524Y-82906890D01*
X97663175Y-83054099D01*
X97788359Y-83316920D01*
X97962412Y-83550269D01*
X98178645Y-83745178D01*
X98304255Y-83820000D01*
X98178645Y-83894822D01*
X97962412Y-84089731D01*
X97788359Y-84323080D01*
X97663175Y-84585901D01*
X97618524Y-84733110D01*
X97739845Y-84963000D01*
X98933000Y-84963000D01*
X98933000Y-82677000D01*
X99187000Y-82677000D01*
X99187000Y-84963000D01*
X100380155Y-84963000D01*
X100501476Y-84733110D01*
X100456825Y-84585901D01*
X100331641Y-84323080D01*
X100157588Y-84089731D01*
X99941355Y-83894822D01*
X99815745Y-83820000D01*
X99941355Y-83745178D01*
X100157588Y-83550269D01*
X100331641Y-83316920D01*
X100456825Y-83054099D01*
X100501476Y-82906890D01*
X100380155Y-82677000D01*
X99187000Y-82677000D01*
X98933000Y-82677000D01*
X97739845Y-82677000D01*
X97618524Y-82906890D01*
X94640000Y-82906890D01*
X94640000Y-80366890D01*
X97618524Y-80366890D01*
X97663175Y-80514099D01*
X97788359Y-80776920D01*
X97962412Y-81010269D01*
X98178645Y-81205178D01*
X98304255Y-81280000D01*
X98178645Y-81354822D01*
X97962412Y-81549731D01*
X97788359Y-81783080D01*
X97663175Y-82045901D01*
X97618524Y-82193110D01*
X97739845Y-82423000D01*
X98933000Y-82423000D01*
X98933000Y-80137000D01*
X99187000Y-80137000D01*
X99187000Y-82423000D01*
X100380155Y-82423000D01*
X100501476Y-82193110D01*
X100456825Y-82045901D01*
X100331641Y-81783080D01*
X100157588Y-81549731D01*
X99941355Y-81354822D01*
X99815745Y-81280000D01*
X99941355Y-81205178D01*
X100157588Y-81010269D01*
X100331641Y-80776920D01*
X100456825Y-80514099D01*
X100501476Y-80366890D01*
X100380155Y-80137000D01*
X99187000Y-80137000D01*
X98933000Y-80137000D01*
X97739845Y-80137000D01*
X97618524Y-80366890D01*
X94640000Y-80366890D01*
X94640000Y-68160000D01*
X97571928Y-68160000D01*
X97584188Y-68284482D01*
X97620498Y-68404180D01*
X97679463Y-68514494D01*
X97758815Y-68611185D01*
X97855506Y-68690537D01*
X97965820Y-68749502D01*
X98038380Y-68771513D01*
X97906525Y-68903368D01*
X97744010Y-69146589D01*
X97632068Y-69416842D01*
X97575000Y-69703740D01*
X97575000Y-69996260D01*
X97632068Y-70283158D01*
X97744010Y-70553411D01*
X97906525Y-70796632D01*
X98113368Y-71003475D01*
X98287760Y-71120000D01*
X98113368Y-71236525D01*
X97906525Y-71443368D01*
X97744010Y-71686589D01*
X97632068Y-71956842D01*
X97575000Y-72243740D01*
X97575000Y-72536260D01*
X97632068Y-72823158D01*
X97744010Y-73093411D01*
X97906525Y-73336632D01*
X98113368Y-73543475D01*
X98287760Y-73660000D01*
X98113368Y-73776525D01*
X97906525Y-73983368D01*
X97744010Y-74226589D01*
X97632068Y-74496842D01*
X97575000Y-74783740D01*
X97575000Y-75076260D01*
X97632068Y-75363158D01*
X97744010Y-75633411D01*
X97906525Y-75876632D01*
X98113368Y-76083475D01*
X98287760Y-76200000D01*
X98113368Y-76316525D01*
X97906525Y-76523368D01*
X97744010Y-76766589D01*
X97632068Y-77036842D01*
X97575000Y-77323740D01*
X97575000Y-77616260D01*
X97632068Y-77903158D01*
X97744010Y-78173411D01*
X97906525Y-78416632D01*
X98113368Y-78623475D01*
X98295534Y-78745195D01*
X98178645Y-78814822D01*
X97962412Y-79009731D01*
X97788359Y-79243080D01*
X97663175Y-79505901D01*
X97618524Y-79653110D01*
X97739845Y-79883000D01*
X98933000Y-79883000D01*
X98933000Y-79863000D01*
X99187000Y-79863000D01*
X99187000Y-79883000D01*
X100380155Y-79883000D01*
X100501476Y-79653110D01*
X100456825Y-79505901D01*
X100331641Y-79243080D01*
X100157588Y-79009731D01*
X99941355Y-78814822D01*
X99824466Y-78745195D01*
X100006632Y-78623475D01*
X100213475Y-78416632D01*
X100375990Y-78173411D01*
X100487932Y-77903158D01*
X100545000Y-77616260D01*
X100545000Y-77323740D01*
X100487932Y-77036842D01*
X100375990Y-76766589D01*
X100213475Y-76523368D01*
X100006632Y-76316525D01*
X99832240Y-76200000D01*
X100006632Y-76083475D01*
X100213475Y-75876632D01*
X100375990Y-75633411D01*
X100487932Y-75363158D01*
X100545000Y-75076260D01*
X100545000Y-74783740D01*
X100487932Y-74496842D01*
X100375990Y-74226589D01*
X100213475Y-73983368D01*
X100006632Y-73776525D01*
X99832240Y-73660000D01*
X100006632Y-73543475D01*
X100213475Y-73336632D01*
X100375990Y-73093411D01*
X100487932Y-72823158D01*
X100545000Y-72536260D01*
X100545000Y-72243740D01*
X100487932Y-71956842D01*
X100375990Y-71686589D01*
X100213475Y-71443368D01*
X100006632Y-71236525D01*
X99832240Y-71120000D01*
X100006632Y-71003475D01*
X100213475Y-70796632D01*
X100375990Y-70553411D01*
X100487932Y-70283158D01*
X100545000Y-69996260D01*
X100545000Y-69703740D01*
X100487932Y-69416842D01*
X100375990Y-69146589D01*
X100213475Y-68903368D01*
X100081620Y-68771513D01*
X100154180Y-68749502D01*
X100264494Y-68690537D01*
X100361185Y-68611185D01*
X100440537Y-68514494D01*
X100499502Y-68404180D01*
X100535812Y-68284482D01*
X100548072Y-68160000D01*
X100545000Y-67595750D01*
X100386250Y-67437000D01*
X99187000Y-67437000D01*
X99187000Y-67457000D01*
X98933000Y-67457000D01*
X98933000Y-67437000D01*
X97733750Y-67437000D01*
X97575000Y-67595750D01*
X97571928Y-68160000D01*
X94640000Y-68160000D01*
X94640000Y-66460000D01*
X97571928Y-66460000D01*
X97575000Y-67024250D01*
X97733750Y-67183000D01*
X98933000Y-67183000D01*
X98933000Y-65983750D01*
X99187000Y-65983750D01*
X99187000Y-67183000D01*
X100386250Y-67183000D01*
X100545000Y-67024250D01*
X100548072Y-66460000D01*
X100535812Y-66335518D01*
X100499502Y-66215820D01*
X100440537Y-66105506D01*
X100361185Y-66008815D01*
X100264494Y-65929463D01*
X100154180Y-65870498D01*
X100034482Y-65834188D01*
X99910000Y-65821928D01*
X99345750Y-65825000D01*
X99187000Y-65983750D01*
X98933000Y-65983750D01*
X98774250Y-65825000D01*
X98210000Y-65821928D01*
X98085518Y-65834188D01*
X97965820Y-65870498D01*
X97855506Y-65929463D01*
X97758815Y-66008815D01*
X97679463Y-66105506D01*
X97620498Y-66215820D01*
X97584188Y-66335518D01*
X97571928Y-66460000D01*
X94640000Y-66460000D01*
X94640000Y-61620000D01*
X153010000Y-61620000D01*
X153010001Y-127610000D01*
G37*
X153010001Y-127610000D02*
X94640000Y-127610000D01*
X94640000Y-123546890D01*
X97618524Y-123546890D01*
X97663175Y-123694099D01*
X97788359Y-123956920D01*
X97962412Y-124190269D01*
X98178645Y-124385178D01*
X98428748Y-124534157D01*
X98703109Y-124631481D01*
X98933000Y-124510814D01*
X98933000Y-123317000D01*
X99187000Y-123317000D01*
X99187000Y-124510814D01*
X99416891Y-124631481D01*
X99691252Y-124534157D01*
X99941355Y-124385178D01*
X100157588Y-124190269D01*
X100331641Y-123956920D01*
X100456825Y-123694099D01*
X100501476Y-123546890D01*
X100380155Y-123317000D01*
X99187000Y-123317000D01*
X98933000Y-123317000D01*
X97739845Y-123317000D01*
X97618524Y-123546890D01*
X94640000Y-123546890D01*
X94640000Y-121006890D01*
X97618524Y-121006890D01*
X97663175Y-121154099D01*
X97788359Y-121416920D01*
X97962412Y-121650269D01*
X98178645Y-121845178D01*
X98304255Y-121920000D01*
X98178645Y-121994822D01*
X97962412Y-122189731D01*
X97788359Y-122423080D01*
X97663175Y-122685901D01*
X97618524Y-122833110D01*
X97739845Y-123063000D01*
X98933000Y-123063000D01*
X98933000Y-120777000D01*
X99187000Y-120777000D01*
X99187000Y-123063000D01*
X100380155Y-123063000D01*
X100501476Y-122833110D01*
X100456825Y-122685901D01*
X100331641Y-122423080D01*
X100157588Y-122189731D01*
X99941355Y-121994822D01*
X99815745Y-121920000D01*
X99941355Y-121845178D01*
X100157588Y-121650269D01*
X100331641Y-121416920D01*
X100456825Y-121154099D01*
X100501476Y-121006890D01*
X100380155Y-120777000D01*
X99187000Y-120777000D01*
X98933000Y-120777000D01*
X97739845Y-120777000D01*
X97618524Y-121006890D01*
X94640000Y-121006890D01*
X94640000Y-118466890D01*
X97618524Y-118466890D01*
X97663175Y-118614099D01*
X97788359Y-118876920D01*
X97962412Y-119110269D01*
X98178645Y-119305178D01*
X98304255Y-119380000D01*
X98178645Y-119454822D01*
X97962412Y-119649731D01*
X97788359Y-119883080D01*
X97663175Y-120145901D01*
X97618524Y-120293110D01*
X97739845Y-120523000D01*
X98933000Y-120523000D01*
X98933000Y-118237000D01*
X99187000Y-118237000D01*
X99187000Y-120523000D01*
X100380155Y-120523000D01*
X100501476Y-120293110D01*
X100456825Y-120145901D01*
X100331641Y-119883080D01*
X100157588Y-119649731D01*
X99941355Y-119454822D01*
X99815745Y-119380000D01*
X99941355Y-119305178D01*
X100157588Y-119110269D01*
X100331641Y-118876920D01*
X100456825Y-118614099D01*
X100501476Y-118466890D01*
X100380155Y-118237000D01*
X99187000Y-118237000D01*
X98933000Y-118237000D01*
X97739845Y-118237000D01*
X97618524Y-118466890D01*
X94640000Y-118466890D01*
X94640000Y-115926890D01*
X97618524Y-115926890D01*
X97663175Y-116074099D01*
X97788359Y-116336920D01*
X97962412Y-116570269D01*
X98178645Y-116765178D01*
X98304255Y-116840000D01*
X98178645Y-116914822D01*
X97962412Y-117109731D01*
X97788359Y-117343080D01*
X97663175Y-117605901D01*
X97618524Y-117753110D01*
X97739845Y-117983000D01*
X98933000Y-117983000D01*
X98933000Y-115697000D01*
X99187000Y-115697000D01*
X99187000Y-117983000D01*
X100380155Y-117983000D01*
X100501476Y-117753110D01*
X100456825Y-117605901D01*
X100331641Y-117343080D01*
X100157588Y-117109731D01*
X99941355Y-116914822D01*
X99815745Y-116840000D01*
X99941355Y-116765178D01*
X100157588Y-116570269D01*
X100331641Y-116336920D01*
X100456825Y-116074099D01*
X100501476Y-115926890D01*
X100380155Y-115697000D01*
X99187000Y-115697000D01*
X98933000Y-115697000D01*
X97739845Y-115697000D01*
X97618524Y-115926890D01*
X94640000Y-115926890D01*
X94640000Y-113386890D01*
X97618524Y-113386890D01*
X97663175Y-113534099D01*
X97788359Y-113796920D01*
X97962412Y-114030269D01*
X98178645Y-114225178D01*
X98304255Y-114300000D01*
X98178645Y-114374822D01*
X97962412Y-114569731D01*
X97788359Y-114803080D01*
X97663175Y-115065901D01*
X97618524Y-115213110D01*
X97739845Y-115443000D01*
X98933000Y-115443000D01*
X98933000Y-113157000D01*
X99187000Y-113157000D01*
X99187000Y-115443000D01*
X100380155Y-115443000D01*
X100501476Y-115213110D01*
X100456825Y-115065901D01*
X100331641Y-114803080D01*
X100157588Y-114569731D01*
X99941355Y-114374822D01*
X99815745Y-114300000D01*
X99941355Y-114225178D01*
X100157588Y-114030269D01*
X100331641Y-113796920D01*
X100456825Y-113534099D01*
X100501476Y-113386890D01*
X100380155Y-113157000D01*
X99187000Y-113157000D01*
X98933000Y-113157000D01*
X97739845Y-113157000D01*
X97618524Y-113386890D01*
X94640000Y-113386890D01*
X94640000Y-101180000D01*
X97571928Y-101180000D01*
X97584188Y-101304482D01*
X97620498Y-101424180D01*
X97679463Y-101534494D01*
X97758815Y-101631185D01*
X97855506Y-101710537D01*
X97965820Y-101769502D01*
X98038380Y-101791513D01*
X97906525Y-101923368D01*
X97744010Y-102166589D01*
X97632068Y-102436842D01*
X97575000Y-102723740D01*
X97575000Y-103016260D01*
X97632068Y-103303158D01*
X97744010Y-103573411D01*
X97906525Y-103816632D01*
X98113368Y-104023475D01*
X98287760Y-104140000D01*
X98113368Y-104256525D01*
X97906525Y-104463368D01*
X97744010Y-104706589D01*
X97632068Y-104976842D01*
X97575000Y-105263740D01*
X97575000Y-105556260D01*
X97632068Y-105843158D01*
X97744010Y-106113411D01*
X97906525Y-106356632D01*
X98113368Y-106563475D01*
X98287760Y-106680000D01*
X98113368Y-106796525D01*
X97906525Y-107003368D01*
X97744010Y-107246589D01*
X97632068Y-107516842D01*
X97575000Y-107803740D01*
X97575000Y-108096260D01*
X97632068Y-108383158D01*
X97744010Y-108653411D01*
X97906525Y-108896632D01*
X98113368Y-109103475D01*
X98287760Y-109220000D01*
X98113368Y-109336525D01*
X97906525Y-109543368D01*
X97744010Y-109786589D01*
X97632068Y-110056842D01*
X97575000Y-110343740D01*
X97575000Y-110636260D01*
X97632068Y-110923158D01*
X97744010Y-111193411D01*
X97906525Y-111436632D01*
X98113368Y-111643475D01*
X98295534Y-111765195D01*
X98178645Y-111834822D01*
X97962412Y-112029731D01*
X97788359Y-112263080D01*
X97663175Y-112525901D01*
X97618524Y-112673110D01*
X97739845Y-112903000D01*
X98933000Y-112903000D01*
X98933000Y-112883000D01*
X99187000Y-112883000D01*
X99187000Y-112903000D01*
X100380155Y-112903000D01*
X100501476Y-112673110D01*
X100456825Y-112525901D01*
X100331641Y-112263080D01*
X100157588Y-112029731D01*
X99941355Y-111834822D01*
X99824466Y-111765195D01*
X100006632Y-111643475D01*
X100213475Y-111436632D01*
X100375990Y-111193411D01*
X100487932Y-110923158D01*
X100545000Y-110636260D01*
X100545000Y-110343740D01*
X100487932Y-110056842D01*
X100375990Y-109786589D01*
X100213475Y-109543368D01*
X100006632Y-109336525D01*
X99832240Y-109220000D01*
X100006632Y-109103475D01*
X100213475Y-108896632D01*
X100375990Y-108653411D01*
X100487932Y-108383158D01*
X100545000Y-108096260D01*
X100545000Y-107803740D01*
X100487932Y-107516842D01*
X100375990Y-107246589D01*
X100213475Y-107003368D01*
X100006632Y-106796525D01*
X99832240Y-106680000D01*
X100006632Y-106563475D01*
X100213475Y-106356632D01*
X100375990Y-106113411D01*
X100487932Y-105843158D01*
X100545000Y-105556260D01*
X100545000Y-105263740D01*
X100487932Y-104976842D01*
X100375990Y-104706589D01*
X100213475Y-104463368D01*
X100006632Y-104256525D01*
X99832240Y-104140000D01*
X100006632Y-104023475D01*
X100213475Y-103816632D01*
X100375990Y-103573411D01*
X100487932Y-103303158D01*
X100545000Y-103016260D01*
X100545000Y-102723740D01*
X100487932Y-102436842D01*
X100375990Y-102166589D01*
X100213475Y-101923368D01*
X100081620Y-101791513D01*
X100154180Y-101769502D01*
X100264494Y-101710537D01*
X100361185Y-101631185D01*
X100440537Y-101534494D01*
X100499502Y-101424180D01*
X100535812Y-101304482D01*
X100548072Y-101180000D01*
X100545000Y-100615750D01*
X100386250Y-100457000D01*
X99187000Y-100457000D01*
X99187000Y-100477000D01*
X98933000Y-100477000D01*
X98933000Y-100457000D01*
X97733750Y-100457000D01*
X97575000Y-100615750D01*
X97571928Y-101180000D01*
X94640000Y-101180000D01*
X94640000Y-99480000D01*
X97571928Y-99480000D01*
X97575000Y-100044250D01*
X97733750Y-100203000D01*
X98933000Y-100203000D01*
X98933000Y-99003750D01*
X99187000Y-99003750D01*
X99187000Y-100203000D01*
X100386250Y-100203000D01*
X100545000Y-100044250D01*
X100548072Y-99480000D01*
X100535812Y-99355518D01*
X100499502Y-99235820D01*
X100440537Y-99125506D01*
X100361185Y-99028815D01*
X100264494Y-98949463D01*
X100154180Y-98890498D01*
X100034482Y-98854188D01*
X99910000Y-98841928D01*
X99345750Y-98845000D01*
X99187000Y-99003750D01*
X98933000Y-99003750D01*
X98774250Y-98845000D01*
X98210000Y-98841928D01*
X98085518Y-98854188D01*
X97965820Y-98890498D01*
X97855506Y-98949463D01*
X97758815Y-99028815D01*
X97679463Y-99125506D01*
X97620498Y-99235820D01*
X97584188Y-99355518D01*
X97571928Y-99480000D01*
X94640000Y-99480000D01*
X94640000Y-90526890D01*
X97618524Y-90526890D01*
X97663175Y-90674099D01*
X97788359Y-90936920D01*
X97962412Y-91170269D01*
X98178645Y-91365178D01*
X98428748Y-91514157D01*
X98703109Y-91611481D01*
X98933000Y-91490814D01*
X98933000Y-90297000D01*
X99187000Y-90297000D01*
X99187000Y-91490814D01*
X99416891Y-91611481D01*
X99691252Y-91514157D01*
X99941355Y-91365178D01*
X100157588Y-91170269D01*
X100331641Y-90936920D01*
X100456825Y-90674099D01*
X100501476Y-90526890D01*
X100380155Y-90297000D01*
X99187000Y-90297000D01*
X98933000Y-90297000D01*
X97739845Y-90297000D01*
X97618524Y-90526890D01*
X94640000Y-90526890D01*
X94640000Y-87986890D01*
X97618524Y-87986890D01*
X97663175Y-88134099D01*
X97788359Y-88396920D01*
X97962412Y-88630269D01*
X98178645Y-88825178D01*
X98304255Y-88900000D01*
X98178645Y-88974822D01*
X97962412Y-89169731D01*
X97788359Y-89403080D01*
X97663175Y-89665901D01*
X97618524Y-89813110D01*
X97739845Y-90043000D01*
X98933000Y-90043000D01*
X98933000Y-87757000D01*
X99187000Y-87757000D01*
X99187000Y-90043000D01*
X100380155Y-90043000D01*
X100501476Y-89813110D01*
X100456825Y-89665901D01*
X100331641Y-89403080D01*
X100157588Y-89169731D01*
X99941355Y-88974822D01*
X99815745Y-88900000D01*
X99941355Y-88825178D01*
X100157588Y-88630269D01*
X100331641Y-88396920D01*
X100456825Y-88134099D01*
X100501476Y-87986890D01*
X100380155Y-87757000D01*
X99187000Y-87757000D01*
X98933000Y-87757000D01*
X97739845Y-87757000D01*
X97618524Y-87986890D01*
X94640000Y-87986890D01*
X94640000Y-85446890D01*
X97618524Y-85446890D01*
X97663175Y-85594099D01*
X97788359Y-85856920D01*
X97962412Y-86090269D01*
X98178645Y-86285178D01*
X98304255Y-86360000D01*
X98178645Y-86434822D01*
X97962412Y-86629731D01*
X97788359Y-86863080D01*
X97663175Y-87125901D01*
X97618524Y-87273110D01*
X97739845Y-87503000D01*
X98933000Y-87503000D01*
X98933000Y-85217000D01*
X99187000Y-85217000D01*
X99187000Y-87503000D01*
X100380155Y-87503000D01*
X100501476Y-87273110D01*
X100456825Y-87125901D01*
X100331641Y-86863080D01*
X100157588Y-86629731D01*
X99941355Y-86434822D01*
X99815745Y-86360000D01*
X99941355Y-86285178D01*
X100157588Y-86090269D01*
X100331641Y-85856920D01*
X100456825Y-85594099D01*
X100501476Y-85446890D01*
X100380155Y-85217000D01*
X99187000Y-85217000D01*
X98933000Y-85217000D01*
X97739845Y-85217000D01*
X97618524Y-85446890D01*
X94640000Y-85446890D01*
X94640000Y-82906890D01*
X97618524Y-82906890D01*
X97663175Y-83054099D01*
X97788359Y-83316920D01*
X97962412Y-83550269D01*
X98178645Y-83745178D01*
X98304255Y-83820000D01*
X98178645Y-83894822D01*
X97962412Y-84089731D01*
X97788359Y-84323080D01*
X97663175Y-84585901D01*
X97618524Y-84733110D01*
X97739845Y-84963000D01*
X98933000Y-84963000D01*
X98933000Y-82677000D01*
X99187000Y-82677000D01*
X99187000Y-84963000D01*
X100380155Y-84963000D01*
X100501476Y-84733110D01*
X100456825Y-84585901D01*
X100331641Y-84323080D01*
X100157588Y-84089731D01*
X99941355Y-83894822D01*
X99815745Y-83820000D01*
X99941355Y-83745178D01*
X100157588Y-83550269D01*
X100331641Y-83316920D01*
X100456825Y-83054099D01*
X100501476Y-82906890D01*
X100380155Y-82677000D01*
X99187000Y-82677000D01*
X98933000Y-82677000D01*
X97739845Y-82677000D01*
X97618524Y-82906890D01*
X94640000Y-82906890D01*
X94640000Y-80366890D01*
X97618524Y-80366890D01*
X97663175Y-80514099D01*
X97788359Y-80776920D01*
X97962412Y-81010269D01*
X98178645Y-81205178D01*
X98304255Y-81280000D01*
X98178645Y-81354822D01*
X97962412Y-81549731D01*
X97788359Y-81783080D01*
X97663175Y-82045901D01*
X97618524Y-82193110D01*
X97739845Y-82423000D01*
X98933000Y-82423000D01*
X98933000Y-80137000D01*
X99187000Y-80137000D01*
X99187000Y-82423000D01*
X100380155Y-82423000D01*
X100501476Y-82193110D01*
X100456825Y-82045901D01*
X100331641Y-81783080D01*
X100157588Y-81549731D01*
X99941355Y-81354822D01*
X99815745Y-81280000D01*
X99941355Y-81205178D01*
X100157588Y-81010269D01*
X100331641Y-80776920D01*
X100456825Y-80514099D01*
X100501476Y-80366890D01*
X100380155Y-80137000D01*
X99187000Y-80137000D01*
X98933000Y-80137000D01*
X97739845Y-80137000D01*
X97618524Y-80366890D01*
X94640000Y-80366890D01*
X94640000Y-68160000D01*
X97571928Y-68160000D01*
X97584188Y-68284482D01*
X97620498Y-68404180D01*
X97679463Y-68514494D01*
X97758815Y-68611185D01*
X97855506Y-68690537D01*
X97965820Y-68749502D01*
X98038380Y-68771513D01*
X97906525Y-68903368D01*
X97744010Y-69146589D01*
X97632068Y-69416842D01*
X97575000Y-69703740D01*
X97575000Y-69996260D01*
X97632068Y-70283158D01*
X97744010Y-70553411D01*
X97906525Y-70796632D01*
X98113368Y-71003475D01*
X98287760Y-71120000D01*
X98113368Y-71236525D01*
X97906525Y-71443368D01*
X97744010Y-71686589D01*
X97632068Y-71956842D01*
X97575000Y-72243740D01*
X97575000Y-72536260D01*
X97632068Y-72823158D01*
X97744010Y-73093411D01*
X97906525Y-73336632D01*
X98113368Y-73543475D01*
X98287760Y-73660000D01*
X98113368Y-73776525D01*
X97906525Y-73983368D01*
X97744010Y-74226589D01*
X97632068Y-74496842D01*
X97575000Y-74783740D01*
X97575000Y-75076260D01*
X97632068Y-75363158D01*
X97744010Y-75633411D01*
X97906525Y-75876632D01*
X98113368Y-76083475D01*
X98287760Y-76200000D01*
X98113368Y-76316525D01*
X97906525Y-76523368D01*
X97744010Y-76766589D01*
X97632068Y-77036842D01*
X97575000Y-77323740D01*
X97575000Y-77616260D01*
X97632068Y-77903158D01*
X97744010Y-78173411D01*
X97906525Y-78416632D01*
X98113368Y-78623475D01*
X98295534Y-78745195D01*
X98178645Y-78814822D01*
X97962412Y-79009731D01*
X97788359Y-79243080D01*
X97663175Y-79505901D01*
X97618524Y-79653110D01*
X97739845Y-79883000D01*
X98933000Y-79883000D01*
X98933000Y-79863000D01*
X99187000Y-79863000D01*
X99187000Y-79883000D01*
X100380155Y-79883000D01*
X100501476Y-79653110D01*
X100456825Y-79505901D01*
X100331641Y-79243080D01*
X100157588Y-79009731D01*
X99941355Y-78814822D01*
X99824466Y-78745195D01*
X100006632Y-78623475D01*
X100213475Y-78416632D01*
X100375990Y-78173411D01*
X100487932Y-77903158D01*
X100545000Y-77616260D01*
X100545000Y-77323740D01*
X100487932Y-77036842D01*
X100375990Y-76766589D01*
X100213475Y-76523368D01*
X100006632Y-76316525D01*
X99832240Y-76200000D01*
X100006632Y-76083475D01*
X100213475Y-75876632D01*
X100375990Y-75633411D01*
X100487932Y-75363158D01*
X100545000Y-75076260D01*
X100545000Y-74783740D01*
X100487932Y-74496842D01*
X100375990Y-74226589D01*
X100213475Y-73983368D01*
X100006632Y-73776525D01*
X99832240Y-73660000D01*
X100006632Y-73543475D01*
X100213475Y-73336632D01*
X100375990Y-73093411D01*
X100487932Y-72823158D01*
X100545000Y-72536260D01*
X100545000Y-72243740D01*
X100487932Y-71956842D01*
X100375990Y-71686589D01*
X100213475Y-71443368D01*
X100006632Y-71236525D01*
X99832240Y-71120000D01*
X100006632Y-71003475D01*
X100213475Y-70796632D01*
X100375990Y-70553411D01*
X100487932Y-70283158D01*
X100545000Y-69996260D01*
X100545000Y-69703740D01*
X100487932Y-69416842D01*
X100375990Y-69146589D01*
X100213475Y-68903368D01*
X100081620Y-68771513D01*
X100154180Y-68749502D01*
X100264494Y-68690537D01*
X100361185Y-68611185D01*
X100440537Y-68514494D01*
X100499502Y-68404180D01*
X100535812Y-68284482D01*
X100548072Y-68160000D01*
X100545000Y-67595750D01*
X100386250Y-67437000D01*
X99187000Y-67437000D01*
X99187000Y-67457000D01*
X98933000Y-67457000D01*
X98933000Y-67437000D01*
X97733750Y-67437000D01*
X97575000Y-67595750D01*
X97571928Y-68160000D01*
X94640000Y-68160000D01*
X94640000Y-66460000D01*
X97571928Y-66460000D01*
X97575000Y-67024250D01*
X97733750Y-67183000D01*
X98933000Y-67183000D01*
X98933000Y-65983750D01*
X99187000Y-65983750D01*
X99187000Y-67183000D01*
X100386250Y-67183000D01*
X100545000Y-67024250D01*
X100548072Y-66460000D01*
X100535812Y-66335518D01*
X100499502Y-66215820D01*
X100440537Y-66105506D01*
X100361185Y-66008815D01*
X100264494Y-65929463D01*
X100154180Y-65870498D01*
X100034482Y-65834188D01*
X99910000Y-65821928D01*
X99345750Y-65825000D01*
X99187000Y-65983750D01*
X98933000Y-65983750D01*
X98774250Y-65825000D01*
X98210000Y-65821928D01*
X98085518Y-65834188D01*
X97965820Y-65870498D01*
X97855506Y-65929463D01*
X97758815Y-66008815D01*
X97679463Y-66105506D01*
X97620498Y-66215820D01*
X97584188Y-66335518D01*
X97571928Y-66460000D01*
X94640000Y-66460000D01*
X94640000Y-61620000D01*
X153010000Y-61620000D01*
X153010001Y-127610000D01*
G36*
X97906525Y-111436632D02*
G01*
X98113368Y-111643475D01*
X98356589Y-111805990D01*
X98626842Y-111917932D01*
X98913740Y-111975000D01*
X99206260Y-111975000D01*
X99493158Y-111917932D01*
X99763411Y-111805990D01*
X100006632Y-111643475D01*
X100213475Y-111436632D01*
X100336842Y-111252000D01*
X104013000Y-111252000D01*
X104013000Y-124968000D01*
X94640000Y-124968000D01*
X94640000Y-111252000D01*
X97783158Y-111252000D01*
X97906525Y-111436632D01*
G37*
X97906525Y-111436632D02*
X98113368Y-111643475D01*
X98356589Y-111805990D01*
X98626842Y-111917932D01*
X98913740Y-111975000D01*
X99206260Y-111975000D01*
X99493158Y-111917932D01*
X99763411Y-111805990D01*
X100006632Y-111643475D01*
X100213475Y-111436632D01*
X100336842Y-111252000D01*
X104013000Y-111252000D01*
X104013000Y-124968000D01*
X94640000Y-124968000D01*
X94640000Y-111252000D01*
X97783158Y-111252000D01*
X97906525Y-111436632D01*
G36*
X97906525Y-78416632D02*
G01*
X98113368Y-78623475D01*
X98356589Y-78785990D01*
X98626842Y-78897932D01*
X98913740Y-78955000D01*
X99206260Y-78955000D01*
X99493158Y-78897932D01*
X99763411Y-78785990D01*
X100006632Y-78623475D01*
X100213475Y-78416632D01*
X100336842Y-78232000D01*
X104013000Y-78232000D01*
X104013000Y-91948000D01*
X94640000Y-91948000D01*
X94640000Y-78232000D01*
X97783158Y-78232000D01*
X97906525Y-78416632D01*
G37*
X97906525Y-78416632D02*
X98113368Y-78623475D01*
X98356589Y-78785990D01*
X98626842Y-78897932D01*
X98913740Y-78955000D01*
X99206260Y-78955000D01*
X99493158Y-78897932D01*
X99763411Y-78785990D01*
X100006632Y-78623475D01*
X100213475Y-78416632D01*
X100336842Y-78232000D01*
X104013000Y-78232000D01*
X104013000Y-91948000D01*
X94640000Y-91948000D01*
X94640000Y-78232000D01*
X97783158Y-78232000D01*
X97906525Y-78416632D01*
%TD*%
M02*
