M48
; DRILL file {KiCad 5.1.6-c6e7f7d~87~ubuntu20.04.1} date Sun Aug 30 17:45:34 2020
; FORMAT={-:-/ absolute / inch / decimal}
; #@! TF.CreationDate,2020-08-30T17:45:34-04:00
; #@! TF.GenerationSoftware,Kicad,Pcbnew,5.1.6-c6e7f7d~87~ubuntu20.04.1
; #@! TF.FileFunction,Plated,1,2,PTH
FMAT,2
INCH
T1C0.0157
T2C0.0394
%
G90
G05
T1
X3.75Y-2.45
X3.75Y-2.6
X3.75Y-2.75
X3.75Y-2.9
X3.75Y-3.05
X3.75Y-3.2
X3.75Y-3.35
X3.75Y-3.5
X3.75Y-3.65
X3.75Y-3.8
X3.75Y-3.95
X3.75Y-4.1
X3.75Y-4.25
X3.75Y-4.4
X3.75Y-4.55
X3.75Y-4.7
X3.75Y-4.85
X3.75Y-5.0
X3.825Y-3.725
X3.9Y-2.45
X3.9Y-5.0
X3.975Y-3.725
X4.05Y-2.45
X4.05Y-5.0
X4.125Y-3.725
X4.2Y-2.45
X4.2Y-5.0
X4.275Y-3.725
X4.35Y-2.45
X4.35Y-5.0
X4.425Y-3.725
X4.5Y-2.45
X4.5Y-5.0
X4.575Y-3.725
X4.65Y-2.45
X4.65Y-5.0
X4.725Y-3.725
X4.8Y-2.45
X4.8Y-5.0
X4.875Y-3.725
X4.95Y-2.45
X4.95Y-5.0
X5.025Y-3.725
X5.1Y-2.45
X5.1Y-5.0
X5.175Y-3.725
X5.25Y-2.45
X5.25Y-5.0
X5.325Y-3.725
X5.4Y-2.45
X5.4Y-5.0
X5.475Y-3.725
X5.55Y-2.45
X5.55Y-5.0
X5.625Y-3.725
X5.7Y-2.45
X5.7Y-2.8
X5.7Y-4.1
X5.7Y-5.0
X5.775Y-3.725
X5.85Y-2.45
X5.85Y-5.0
X5.925Y-3.725
X6.0Y-2.45
X6.0Y-2.6
X6.0Y-2.75
X6.0Y-2.9
X6.0Y-3.05
X6.0Y-3.2
X6.0Y-3.35
X6.0Y-3.5
X6.0Y-3.65
X6.0Y-3.8
X6.0Y-3.95
X6.0Y-4.1
X6.0Y-4.25
X6.0Y-4.4
X6.0Y-4.55
X6.0Y-4.7
X6.0Y-4.85
X6.0Y-5.0
T2
X3.9Y-3.95
X3.9Y-4.05
X3.9Y-4.15
X3.9Y-4.25
X3.9Y-4.35
X3.9Y-4.45
X3.9Y-4.55
X3.9Y-4.65
X3.9Y-4.75
X3.9Y-4.85
X3.9Y-2.65
X3.9Y-2.75
X3.9Y-2.85
X3.9Y-2.95
X3.9Y-3.05
X3.9Y-3.15
X3.9Y-3.25
X3.9Y-3.35
X3.9Y-3.45
X3.9Y-3.55
T0
M30
