%TF.GenerationSoftware,KiCad,Pcbnew,5.1.6-c6e7f7d~87~ubuntu20.04.1*%
%TF.CreationDate,2020-08-30T17:45:41-04:00*%
%TF.ProjectId,noob_tester,6e6f6f62-5f74-4657-9374-65722e6b6963,rev?*%
%TF.SameCoordinates,Original*%
%TF.FileFunction,Legend,Top*%
%TF.FilePolarity,Positive*%
%FSLAX46Y46*%
G04 Gerber Fmt 4.6, Leading zero omitted, Abs format (unit mm)*
G04 Created by KiCad (PCBNEW 5.1.6-c6e7f7d~87~ubuntu20.04.1) date 2020-08-30 17:45:41*
%MOMM*%
%LPD*%
G01*
G04 APERTURE LIST*
%ADD10C,0.150000*%
%ADD11C,0.120000*%
G04 APERTURE END LIST*
D10*
X102306380Y-116093333D02*
X101306380Y-116093333D01*
X101782571Y-116093333D02*
X101782571Y-115521904D01*
X102306380Y-115521904D02*
X101306380Y-115521904D01*
X102258761Y-114664761D02*
X102306380Y-114760000D01*
X102306380Y-114950476D01*
X102258761Y-115045714D01*
X102163523Y-115093333D01*
X101782571Y-115093333D01*
X101687333Y-115045714D01*
X101639714Y-114950476D01*
X101639714Y-114760000D01*
X101687333Y-114664761D01*
X101782571Y-114617142D01*
X101877809Y-114617142D01*
X101973047Y-115093333D01*
X102306380Y-113760000D02*
X101782571Y-113760000D01*
X101687333Y-113807619D01*
X101639714Y-113902857D01*
X101639714Y-114093333D01*
X101687333Y-114188571D01*
X102258761Y-113760000D02*
X102306380Y-113855238D01*
X102306380Y-114093333D01*
X102258761Y-114188571D01*
X102163523Y-114236190D01*
X102068285Y-114236190D01*
X101973047Y-114188571D01*
X101925428Y-114093333D01*
X101925428Y-113855238D01*
X101877809Y-113760000D01*
X102306380Y-112855238D02*
X101306380Y-112855238D01*
X102258761Y-112855238D02*
X102306380Y-112950476D01*
X102306380Y-113140952D01*
X102258761Y-113236190D01*
X102211142Y-113283809D01*
X102115904Y-113331428D01*
X101830190Y-113331428D01*
X101734952Y-113283809D01*
X101687333Y-113236190D01*
X101639714Y-113140952D01*
X101639714Y-112950476D01*
X101687333Y-112855238D01*
X102258761Y-111998095D02*
X102306380Y-112093333D01*
X102306380Y-112283809D01*
X102258761Y-112379047D01*
X102163523Y-112426666D01*
X101782571Y-112426666D01*
X101687333Y-112379047D01*
X101639714Y-112283809D01*
X101639714Y-112093333D01*
X101687333Y-111998095D01*
X101782571Y-111950476D01*
X101877809Y-111950476D01*
X101973047Y-112426666D01*
X102306380Y-111521904D02*
X101639714Y-111521904D01*
X101830190Y-111521904D02*
X101734952Y-111474285D01*
X101687333Y-111426666D01*
X101639714Y-111331428D01*
X101639714Y-111236190D01*
X102306380Y-110140952D02*
X101306380Y-110140952D01*
X101306380Y-109760000D01*
X101354000Y-109664761D01*
X101401619Y-109617142D01*
X101496857Y-109569523D01*
X101639714Y-109569523D01*
X101734952Y-109617142D01*
X101782571Y-109664761D01*
X101830190Y-109760000D01*
X101830190Y-110140952D01*
X102306380Y-109140952D02*
X101639714Y-109140952D01*
X101306380Y-109140952D02*
X101354000Y-109188571D01*
X101401619Y-109140952D01*
X101354000Y-109093333D01*
X101306380Y-109140952D01*
X101401619Y-109140952D01*
X101639714Y-108664761D02*
X102306380Y-108664761D01*
X101734952Y-108664761D02*
X101687333Y-108617142D01*
X101639714Y-108521904D01*
X101639714Y-108379047D01*
X101687333Y-108283809D01*
X101782571Y-108236190D01*
X102306380Y-108236190D01*
X102258761Y-107807619D02*
X102306380Y-107712380D01*
X102306380Y-107521904D01*
X102258761Y-107426666D01*
X102163523Y-107379047D01*
X102115904Y-107379047D01*
X102020666Y-107426666D01*
X101973047Y-107521904D01*
X101973047Y-107664761D01*
X101925428Y-107760000D01*
X101830190Y-107807619D01*
X101782571Y-107807619D01*
X101687333Y-107760000D01*
X101639714Y-107664761D01*
X101639714Y-107521904D01*
X101687333Y-107426666D01*
X102306380Y-83073333D02*
X101306380Y-83073333D01*
X101782571Y-83073333D02*
X101782571Y-82501904D01*
X102306380Y-82501904D02*
X101306380Y-82501904D01*
X102258761Y-81644761D02*
X102306380Y-81740000D01*
X102306380Y-81930476D01*
X102258761Y-82025714D01*
X102163523Y-82073333D01*
X101782571Y-82073333D01*
X101687333Y-82025714D01*
X101639714Y-81930476D01*
X101639714Y-81740000D01*
X101687333Y-81644761D01*
X101782571Y-81597142D01*
X101877809Y-81597142D01*
X101973047Y-82073333D01*
X102306380Y-80740000D02*
X101782571Y-80740000D01*
X101687333Y-80787619D01*
X101639714Y-80882857D01*
X101639714Y-81073333D01*
X101687333Y-81168571D01*
X102258761Y-80740000D02*
X102306380Y-80835238D01*
X102306380Y-81073333D01*
X102258761Y-81168571D01*
X102163523Y-81216190D01*
X102068285Y-81216190D01*
X101973047Y-81168571D01*
X101925428Y-81073333D01*
X101925428Y-80835238D01*
X101877809Y-80740000D01*
X102306380Y-79835238D02*
X101306380Y-79835238D01*
X102258761Y-79835238D02*
X102306380Y-79930476D01*
X102306380Y-80120952D01*
X102258761Y-80216190D01*
X102211142Y-80263809D01*
X102115904Y-80311428D01*
X101830190Y-80311428D01*
X101734952Y-80263809D01*
X101687333Y-80216190D01*
X101639714Y-80120952D01*
X101639714Y-79930476D01*
X101687333Y-79835238D01*
X102258761Y-78978095D02*
X102306380Y-79073333D01*
X102306380Y-79263809D01*
X102258761Y-79359047D01*
X102163523Y-79406666D01*
X101782571Y-79406666D01*
X101687333Y-79359047D01*
X101639714Y-79263809D01*
X101639714Y-79073333D01*
X101687333Y-78978095D01*
X101782571Y-78930476D01*
X101877809Y-78930476D01*
X101973047Y-79406666D01*
X102306380Y-78501904D02*
X101639714Y-78501904D01*
X101830190Y-78501904D02*
X101734952Y-78454285D01*
X101687333Y-78406666D01*
X101639714Y-78311428D01*
X101639714Y-78216190D01*
X102306380Y-77120952D02*
X101306380Y-77120952D01*
X101306380Y-76740000D01*
X101354000Y-76644761D01*
X101401619Y-76597142D01*
X101496857Y-76549523D01*
X101639714Y-76549523D01*
X101734952Y-76597142D01*
X101782571Y-76644761D01*
X101830190Y-76740000D01*
X101830190Y-77120952D01*
X102306380Y-76120952D02*
X101639714Y-76120952D01*
X101306380Y-76120952D02*
X101354000Y-76168571D01*
X101401619Y-76120952D01*
X101354000Y-76073333D01*
X101306380Y-76120952D01*
X101401619Y-76120952D01*
X101639714Y-75644761D02*
X102306380Y-75644761D01*
X101734952Y-75644761D02*
X101687333Y-75597142D01*
X101639714Y-75501904D01*
X101639714Y-75359047D01*
X101687333Y-75263809D01*
X101782571Y-75216190D01*
X102306380Y-75216190D01*
X102258761Y-74787619D02*
X102306380Y-74692380D01*
X102306380Y-74501904D01*
X102258761Y-74406666D01*
X102163523Y-74359047D01*
X102115904Y-74359047D01*
X102020666Y-74406666D01*
X101973047Y-74501904D01*
X101973047Y-74644761D01*
X101925428Y-74740000D01*
X101830190Y-74787619D01*
X101782571Y-74787619D01*
X101687333Y-74740000D01*
X101639714Y-74644761D01*
X101639714Y-74501904D01*
X101687333Y-74406666D01*
X144232380Y-111037619D02*
X144137142Y-110990000D01*
X144041904Y-110894761D01*
X143899047Y-110751904D01*
X143803809Y-110704285D01*
X143708571Y-110704285D01*
X143756190Y-110942380D02*
X143660952Y-110894761D01*
X143565714Y-110799523D01*
X143518095Y-110609047D01*
X143518095Y-110275714D01*
X143565714Y-110085238D01*
X143660952Y-109990000D01*
X143756190Y-109942380D01*
X143946666Y-109942380D01*
X144041904Y-109990000D01*
X144137142Y-110085238D01*
X144184761Y-110275714D01*
X144184761Y-110609047D01*
X144137142Y-110799523D01*
X144041904Y-110894761D01*
X143946666Y-110942380D01*
X143756190Y-110942380D01*
X144946666Y-110418571D02*
X144613333Y-110418571D01*
X144613333Y-110942380D02*
X144613333Y-109942380D01*
X145089523Y-109942380D01*
X145470476Y-110942380D02*
X145470476Y-109942380D01*
X145851428Y-109942380D01*
X145946666Y-109990000D01*
X145994285Y-110037619D01*
X146041904Y-110132857D01*
X146041904Y-110275714D01*
X145994285Y-110370952D01*
X145946666Y-110418571D01*
X145851428Y-110466190D01*
X145470476Y-110466190D01*
X125492142Y-105052761D02*
X125635000Y-105100380D01*
X125873095Y-105100380D01*
X125968333Y-105052761D01*
X126015952Y-105005142D01*
X126063571Y-104909904D01*
X126063571Y-104814666D01*
X126015952Y-104719428D01*
X125968333Y-104671809D01*
X125873095Y-104624190D01*
X125682619Y-104576571D01*
X125587380Y-104528952D01*
X125539761Y-104481333D01*
X125492142Y-104386095D01*
X125492142Y-104290857D01*
X125539761Y-104195619D01*
X125587380Y-104148000D01*
X125682619Y-104100380D01*
X125920714Y-104100380D01*
X126063571Y-104148000D01*
X126682619Y-104100380D02*
X126873095Y-104100380D01*
X126968333Y-104148000D01*
X127063571Y-104243238D01*
X127111190Y-104433714D01*
X127111190Y-104767047D01*
X127063571Y-104957523D01*
X126968333Y-105052761D01*
X126873095Y-105100380D01*
X126682619Y-105100380D01*
X126587380Y-105052761D01*
X126492142Y-104957523D01*
X126444523Y-104767047D01*
X126444523Y-104433714D01*
X126492142Y-104243238D01*
X126587380Y-104148000D01*
X126682619Y-104100380D01*
X127396904Y-104100380D02*
X127968333Y-104100380D01*
X127682619Y-105100380D02*
X127682619Y-104100380D01*
X128254047Y-104195619D02*
X128301666Y-104148000D01*
X128396904Y-104100380D01*
X128635000Y-104100380D01*
X128730238Y-104148000D01*
X128777857Y-104195619D01*
X128825476Y-104290857D01*
X128825476Y-104386095D01*
X128777857Y-104528952D01*
X128206428Y-105100380D01*
X128825476Y-105100380D01*
X129158809Y-104100380D02*
X129777857Y-104100380D01*
X129444523Y-104481333D01*
X129587380Y-104481333D01*
X129682619Y-104528952D01*
X129730238Y-104576571D01*
X129777857Y-104671809D01*
X129777857Y-104909904D01*
X129730238Y-105005142D01*
X129682619Y-105052761D01*
X129587380Y-105100380D01*
X129301666Y-105100380D01*
X129206428Y-105052761D01*
X129158809Y-105005142D01*
X111307857Y-97369380D02*
X111307857Y-98083666D01*
X111260238Y-98226523D01*
X111165000Y-98321761D01*
X111022142Y-98369380D01*
X110926904Y-98369380D01*
X111736428Y-98321761D02*
X111879285Y-98369380D01*
X112117380Y-98369380D01*
X112212619Y-98321761D01*
X112260238Y-98274142D01*
X112307857Y-98178904D01*
X112307857Y-98083666D01*
X112260238Y-97988428D01*
X112212619Y-97940809D01*
X112117380Y-97893190D01*
X111926904Y-97845571D01*
X111831666Y-97797952D01*
X111784047Y-97750333D01*
X111736428Y-97655095D01*
X111736428Y-97559857D01*
X111784047Y-97464619D01*
X111831666Y-97417000D01*
X111926904Y-97369380D01*
X112165000Y-97369380D01*
X112307857Y-97417000D01*
X112593571Y-97369380D02*
X113165000Y-97369380D01*
X112879285Y-98369380D02*
X112879285Y-97369380D01*
X113498333Y-97988428D02*
X114260238Y-97988428D01*
X115260238Y-97417000D02*
X115165000Y-97369380D01*
X115022142Y-97369380D01*
X114879285Y-97417000D01*
X114784047Y-97512238D01*
X114736428Y-97607476D01*
X114688809Y-97797952D01*
X114688809Y-97940809D01*
X114736428Y-98131285D01*
X114784047Y-98226523D01*
X114879285Y-98321761D01*
X115022142Y-98369380D01*
X115117380Y-98369380D01*
X115260238Y-98321761D01*
X115307857Y-98274142D01*
X115307857Y-97940809D01*
X115117380Y-97940809D01*
X115736428Y-98369380D02*
X115736428Y-97369380D01*
X115736428Y-97845571D02*
X116307857Y-97845571D01*
X116307857Y-98369380D02*
X116307857Y-97369380D01*
X132000952Y-105052761D02*
X132143809Y-105100380D01*
X132381904Y-105100380D01*
X132477142Y-105052761D01*
X132524761Y-105005142D01*
X132572380Y-104909904D01*
X132572380Y-104814666D01*
X132524761Y-104719428D01*
X132477142Y-104671809D01*
X132381904Y-104624190D01*
X132191428Y-104576571D01*
X132096190Y-104528952D01*
X132048571Y-104481333D01*
X132000952Y-104386095D01*
X132000952Y-104290857D01*
X132048571Y-104195619D01*
X132096190Y-104148000D01*
X132191428Y-104100380D01*
X132429523Y-104100380D01*
X132572380Y-104148000D01*
X133191428Y-104100380D02*
X133381904Y-104100380D01*
X133477142Y-104148000D01*
X133572380Y-104243238D01*
X133620000Y-104433714D01*
X133620000Y-104767047D01*
X133572380Y-104957523D01*
X133477142Y-105052761D01*
X133381904Y-105100380D01*
X133191428Y-105100380D01*
X133096190Y-105052761D01*
X133000952Y-104957523D01*
X132953333Y-104767047D01*
X132953333Y-104433714D01*
X133000952Y-104243238D01*
X133096190Y-104148000D01*
X133191428Y-104100380D01*
X133905714Y-104100380D02*
X134477142Y-104100380D01*
X134191428Y-105100380D02*
X134191428Y-104100380D01*
X134715238Y-104100380D02*
X135381904Y-104100380D01*
X134953333Y-105100380D01*
X135715238Y-104195619D02*
X135762857Y-104148000D01*
X135858095Y-104100380D01*
X136096190Y-104100380D01*
X136191428Y-104148000D01*
X136239047Y-104195619D01*
X136286666Y-104290857D01*
X136286666Y-104386095D01*
X136239047Y-104528952D01*
X135667619Y-105100380D01*
X136286666Y-105100380D01*
X136620000Y-104100380D02*
X137239047Y-104100380D01*
X136905714Y-104481333D01*
X137048571Y-104481333D01*
X137143809Y-104528952D01*
X137191428Y-104576571D01*
X137239047Y-104671809D01*
X137239047Y-104909904D01*
X137191428Y-105005142D01*
X137143809Y-105052761D01*
X137048571Y-105100380D01*
X136762857Y-105100380D01*
X136667619Y-105052761D01*
X136620000Y-105005142D01*
X115752857Y-105751380D02*
X115752857Y-106465666D01*
X115705238Y-106608523D01*
X115610000Y-106703761D01*
X115467142Y-106751380D01*
X115371904Y-106751380D01*
X116181428Y-106703761D02*
X116324285Y-106751380D01*
X116562380Y-106751380D01*
X116657619Y-106703761D01*
X116705238Y-106656142D01*
X116752857Y-106560904D01*
X116752857Y-106465666D01*
X116705238Y-106370428D01*
X116657619Y-106322809D01*
X116562380Y-106275190D01*
X116371904Y-106227571D01*
X116276666Y-106179952D01*
X116229047Y-106132333D01*
X116181428Y-106037095D01*
X116181428Y-105941857D01*
X116229047Y-105846619D01*
X116276666Y-105799000D01*
X116371904Y-105751380D01*
X116610000Y-105751380D01*
X116752857Y-105799000D01*
X117038571Y-105751380D02*
X117610000Y-105751380D01*
X117324285Y-106751380D02*
X117324285Y-105751380D01*
X117943333Y-106370428D02*
X118705238Y-106370428D01*
X119181428Y-106751380D02*
X119181428Y-105751380D01*
X119562380Y-105751380D01*
X119657619Y-105799000D01*
X119705238Y-105846619D01*
X119752857Y-105941857D01*
X119752857Y-106084714D01*
X119705238Y-106179952D01*
X119657619Y-106227571D01*
X119562380Y-106275190D01*
X119181428Y-106275190D01*
X120181428Y-106751380D02*
X120181428Y-105751380D01*
X120181428Y-106227571D02*
X120752857Y-106227571D01*
X120752857Y-106751380D02*
X120752857Y-105751380D01*
X144232380Y-78017619D02*
X144137142Y-77970000D01*
X144041904Y-77874761D01*
X143899047Y-77731904D01*
X143803809Y-77684285D01*
X143708571Y-77684285D01*
X143756190Y-77922380D02*
X143660952Y-77874761D01*
X143565714Y-77779523D01*
X143518095Y-77589047D01*
X143518095Y-77255714D01*
X143565714Y-77065238D01*
X143660952Y-76970000D01*
X143756190Y-76922380D01*
X143946666Y-76922380D01*
X144041904Y-76970000D01*
X144137142Y-77065238D01*
X144184761Y-77255714D01*
X144184761Y-77589047D01*
X144137142Y-77779523D01*
X144041904Y-77874761D01*
X143946666Y-77922380D01*
X143756190Y-77922380D01*
X144946666Y-77398571D02*
X144613333Y-77398571D01*
X144613333Y-77922380D02*
X144613333Y-76922380D01*
X145089523Y-76922380D01*
X145470476Y-77922380D02*
X145470476Y-76922380D01*
X145851428Y-76922380D01*
X145946666Y-76970000D01*
X145994285Y-77017619D01*
X146041904Y-77112857D01*
X146041904Y-77255714D01*
X145994285Y-77350952D01*
X145946666Y-77398571D01*
X145851428Y-77446190D01*
X145470476Y-77446190D01*
X111307857Y-64349380D02*
X111307857Y-65063666D01*
X111260238Y-65206523D01*
X111165000Y-65301761D01*
X111022142Y-65349380D01*
X110926904Y-65349380D01*
X111736428Y-65301761D02*
X111879285Y-65349380D01*
X112117380Y-65349380D01*
X112212619Y-65301761D01*
X112260238Y-65254142D01*
X112307857Y-65158904D01*
X112307857Y-65063666D01*
X112260238Y-64968428D01*
X112212619Y-64920809D01*
X112117380Y-64873190D01*
X111926904Y-64825571D01*
X111831666Y-64777952D01*
X111784047Y-64730333D01*
X111736428Y-64635095D01*
X111736428Y-64539857D01*
X111784047Y-64444619D01*
X111831666Y-64397000D01*
X111926904Y-64349380D01*
X112165000Y-64349380D01*
X112307857Y-64397000D01*
X112593571Y-64349380D02*
X113165000Y-64349380D01*
X112879285Y-65349380D02*
X112879285Y-64349380D01*
X113498333Y-64968428D02*
X114260238Y-64968428D01*
X115260238Y-64397000D02*
X115165000Y-64349380D01*
X115022142Y-64349380D01*
X114879285Y-64397000D01*
X114784047Y-64492238D01*
X114736428Y-64587476D01*
X114688809Y-64777952D01*
X114688809Y-64920809D01*
X114736428Y-65111285D01*
X114784047Y-65206523D01*
X114879285Y-65301761D01*
X115022142Y-65349380D01*
X115117380Y-65349380D01*
X115260238Y-65301761D01*
X115307857Y-65254142D01*
X115307857Y-64920809D01*
X115117380Y-64920809D01*
X115736428Y-65349380D02*
X115736428Y-64349380D01*
X115736428Y-64825571D02*
X116307857Y-64825571D01*
X116307857Y-65349380D02*
X116307857Y-64349380D01*
X115752857Y-72731380D02*
X115752857Y-73445666D01*
X115705238Y-73588523D01*
X115610000Y-73683761D01*
X115467142Y-73731380D01*
X115371904Y-73731380D01*
X116181428Y-73683761D02*
X116324285Y-73731380D01*
X116562380Y-73731380D01*
X116657619Y-73683761D01*
X116705238Y-73636142D01*
X116752857Y-73540904D01*
X116752857Y-73445666D01*
X116705238Y-73350428D01*
X116657619Y-73302809D01*
X116562380Y-73255190D01*
X116371904Y-73207571D01*
X116276666Y-73159952D01*
X116229047Y-73112333D01*
X116181428Y-73017095D01*
X116181428Y-72921857D01*
X116229047Y-72826619D01*
X116276666Y-72779000D01*
X116371904Y-72731380D01*
X116610000Y-72731380D01*
X116752857Y-72779000D01*
X117038571Y-72731380D02*
X117610000Y-72731380D01*
X117324285Y-73731380D02*
X117324285Y-72731380D01*
X117943333Y-73350428D02*
X118705238Y-73350428D01*
X119181428Y-73731380D02*
X119181428Y-72731380D01*
X119562380Y-72731380D01*
X119657619Y-72779000D01*
X119705238Y-72826619D01*
X119752857Y-72921857D01*
X119752857Y-73064714D01*
X119705238Y-73159952D01*
X119657619Y-73207571D01*
X119562380Y-73255190D01*
X119181428Y-73255190D01*
X120181428Y-73731380D02*
X120181428Y-72731380D01*
X120181428Y-73207571D02*
X120752857Y-73207571D01*
X120752857Y-73731380D02*
X120752857Y-72731380D01*
X125492142Y-72032761D02*
X125635000Y-72080380D01*
X125873095Y-72080380D01*
X125968333Y-72032761D01*
X126015952Y-71985142D01*
X126063571Y-71889904D01*
X126063571Y-71794666D01*
X126015952Y-71699428D01*
X125968333Y-71651809D01*
X125873095Y-71604190D01*
X125682619Y-71556571D01*
X125587380Y-71508952D01*
X125539761Y-71461333D01*
X125492142Y-71366095D01*
X125492142Y-71270857D01*
X125539761Y-71175619D01*
X125587380Y-71128000D01*
X125682619Y-71080380D01*
X125920714Y-71080380D01*
X126063571Y-71128000D01*
X126682619Y-71080380D02*
X126873095Y-71080380D01*
X126968333Y-71128000D01*
X127063571Y-71223238D01*
X127111190Y-71413714D01*
X127111190Y-71747047D01*
X127063571Y-71937523D01*
X126968333Y-72032761D01*
X126873095Y-72080380D01*
X126682619Y-72080380D01*
X126587380Y-72032761D01*
X126492142Y-71937523D01*
X126444523Y-71747047D01*
X126444523Y-71413714D01*
X126492142Y-71223238D01*
X126587380Y-71128000D01*
X126682619Y-71080380D01*
X127396904Y-71080380D02*
X127968333Y-71080380D01*
X127682619Y-72080380D02*
X127682619Y-71080380D01*
X128254047Y-71175619D02*
X128301666Y-71128000D01*
X128396904Y-71080380D01*
X128635000Y-71080380D01*
X128730238Y-71128000D01*
X128777857Y-71175619D01*
X128825476Y-71270857D01*
X128825476Y-71366095D01*
X128777857Y-71508952D01*
X128206428Y-72080380D01*
X128825476Y-72080380D01*
X129158809Y-71080380D02*
X129777857Y-71080380D01*
X129444523Y-71461333D01*
X129587380Y-71461333D01*
X129682619Y-71508952D01*
X129730238Y-71556571D01*
X129777857Y-71651809D01*
X129777857Y-71889904D01*
X129730238Y-71985142D01*
X129682619Y-72032761D01*
X129587380Y-72080380D01*
X129301666Y-72080380D01*
X129206428Y-72032761D01*
X129158809Y-71985142D01*
X132000952Y-72032761D02*
X132143809Y-72080380D01*
X132381904Y-72080380D01*
X132477142Y-72032761D01*
X132524761Y-71985142D01*
X132572380Y-71889904D01*
X132572380Y-71794666D01*
X132524761Y-71699428D01*
X132477142Y-71651809D01*
X132381904Y-71604190D01*
X132191428Y-71556571D01*
X132096190Y-71508952D01*
X132048571Y-71461333D01*
X132000952Y-71366095D01*
X132000952Y-71270857D01*
X132048571Y-71175619D01*
X132096190Y-71128000D01*
X132191428Y-71080380D01*
X132429523Y-71080380D01*
X132572380Y-71128000D01*
X133191428Y-71080380D02*
X133381904Y-71080380D01*
X133477142Y-71128000D01*
X133572380Y-71223238D01*
X133620000Y-71413714D01*
X133620000Y-71747047D01*
X133572380Y-71937523D01*
X133477142Y-72032761D01*
X133381904Y-72080380D01*
X133191428Y-72080380D01*
X133096190Y-72032761D01*
X133000952Y-71937523D01*
X132953333Y-71747047D01*
X132953333Y-71413714D01*
X133000952Y-71223238D01*
X133096190Y-71128000D01*
X133191428Y-71080380D01*
X133905714Y-71080380D02*
X134477142Y-71080380D01*
X134191428Y-72080380D02*
X134191428Y-71080380D01*
X134715238Y-71080380D02*
X135381904Y-71080380D01*
X134953333Y-72080380D01*
X135715238Y-71175619D02*
X135762857Y-71128000D01*
X135858095Y-71080380D01*
X136096190Y-71080380D01*
X136191428Y-71128000D01*
X136239047Y-71175619D01*
X136286666Y-71270857D01*
X136286666Y-71366095D01*
X136239047Y-71508952D01*
X135667619Y-72080380D01*
X136286666Y-72080380D01*
X136620000Y-71080380D02*
X137239047Y-71080380D01*
X136905714Y-71461333D01*
X137048571Y-71461333D01*
X137143809Y-71508952D01*
X137191428Y-71556571D01*
X137239047Y-71651809D01*
X137239047Y-71889904D01*
X137191428Y-71985142D01*
X137143809Y-72032761D01*
X137048571Y-72080380D01*
X136762857Y-72080380D01*
X136667619Y-72032761D01*
X136620000Y-71985142D01*
X131619809Y-121118380D02*
X131715047Y-121118380D01*
X131810285Y-121166000D01*
X131857904Y-121213619D01*
X131905523Y-121308857D01*
X131953142Y-121499333D01*
X131953142Y-121737428D01*
X131905523Y-121927904D01*
X131857904Y-122023142D01*
X131810285Y-122070761D01*
X131715047Y-122118380D01*
X131619809Y-122118380D01*
X131524571Y-122070761D01*
X131476952Y-122023142D01*
X131429333Y-121927904D01*
X131381714Y-121737428D01*
X131381714Y-121499333D01*
X131429333Y-121308857D01*
X131476952Y-121213619D01*
X131524571Y-121166000D01*
X131619809Y-121118380D01*
X132334095Y-121213619D02*
X132381714Y-121166000D01*
X132476952Y-121118380D01*
X132715047Y-121118380D01*
X132810285Y-121166000D01*
X132857904Y-121213619D01*
X132905523Y-121308857D01*
X132905523Y-121404095D01*
X132857904Y-121546952D01*
X132286476Y-122118380D01*
X132905523Y-122118380D01*
X133524571Y-121118380D02*
X133619809Y-121118380D01*
X133715047Y-121166000D01*
X133762666Y-121213619D01*
X133810285Y-121308857D01*
X133857904Y-121499333D01*
X133857904Y-121737428D01*
X133810285Y-121927904D01*
X133762666Y-122023142D01*
X133715047Y-122070761D01*
X133619809Y-122118380D01*
X133524571Y-122118380D01*
X133429333Y-122070761D01*
X133381714Y-122023142D01*
X133334095Y-121927904D01*
X133286476Y-121737428D01*
X133286476Y-121499333D01*
X133334095Y-121308857D01*
X133381714Y-121213619D01*
X133429333Y-121166000D01*
X133524571Y-121118380D01*
X134810285Y-122118380D02*
X134238857Y-122118380D01*
X134524571Y-122118380D02*
X134524571Y-121118380D01*
X134429333Y-121261238D01*
X134334095Y-121356476D01*
X134238857Y-121404095D01*
X125523809Y-121118380D02*
X125619047Y-121118380D01*
X125714285Y-121166000D01*
X125761904Y-121213619D01*
X125809523Y-121308857D01*
X125857142Y-121499333D01*
X125857142Y-121737428D01*
X125809523Y-121927904D01*
X125761904Y-122023142D01*
X125714285Y-122070761D01*
X125619047Y-122118380D01*
X125523809Y-122118380D01*
X125428571Y-122070761D01*
X125380952Y-122023142D01*
X125333333Y-121927904D01*
X125285714Y-121737428D01*
X125285714Y-121499333D01*
X125333333Y-121308857D01*
X125380952Y-121213619D01*
X125428571Y-121166000D01*
X125523809Y-121118380D01*
X126714285Y-121451714D02*
X126714285Y-122118380D01*
X126476190Y-121070761D02*
X126238095Y-121785047D01*
X126857142Y-121785047D01*
X127428571Y-121118380D02*
X127523809Y-121118380D01*
X127619047Y-121166000D01*
X127666666Y-121213619D01*
X127714285Y-121308857D01*
X127761904Y-121499333D01*
X127761904Y-121737428D01*
X127714285Y-121927904D01*
X127666666Y-122023142D01*
X127619047Y-122070761D01*
X127523809Y-122118380D01*
X127428571Y-122118380D01*
X127333333Y-122070761D01*
X127285714Y-122023142D01*
X127238095Y-121927904D01*
X127190476Y-121737428D01*
X127190476Y-121499333D01*
X127238095Y-121308857D01*
X127285714Y-121213619D01*
X127333333Y-121166000D01*
X127428571Y-121118380D01*
X128142857Y-121213619D02*
X128190476Y-121166000D01*
X128285714Y-121118380D01*
X128523809Y-121118380D01*
X128619047Y-121166000D01*
X128666666Y-121213619D01*
X128714285Y-121308857D01*
X128714285Y-121404095D01*
X128666666Y-121546952D01*
X128095238Y-122118380D01*
X128714285Y-122118380D01*
X106807142Y-122118380D02*
X106235714Y-122118380D01*
X106521428Y-122118380D02*
X106521428Y-121118380D01*
X106426190Y-121261238D01*
X106330952Y-121356476D01*
X106235714Y-121404095D01*
X107188095Y-121213619D02*
X107235714Y-121166000D01*
X107330952Y-121118380D01*
X107569047Y-121118380D01*
X107664285Y-121166000D01*
X107711904Y-121213619D01*
X107759523Y-121308857D01*
X107759523Y-121404095D01*
X107711904Y-121546952D01*
X107140476Y-122118380D01*
X107759523Y-122118380D01*
X108378571Y-121118380D02*
X108473809Y-121118380D01*
X108569047Y-121166000D01*
X108616666Y-121213619D01*
X108664285Y-121308857D01*
X108711904Y-121499333D01*
X108711904Y-121737428D01*
X108664285Y-121927904D01*
X108616666Y-122023142D01*
X108569047Y-122070761D01*
X108473809Y-122118380D01*
X108378571Y-122118380D01*
X108283333Y-122070761D01*
X108235714Y-122023142D01*
X108188095Y-121927904D01*
X108140476Y-121737428D01*
X108140476Y-121499333D01*
X108188095Y-121308857D01*
X108235714Y-121213619D01*
X108283333Y-121166000D01*
X108378571Y-121118380D01*
X109569047Y-121118380D02*
X109378571Y-121118380D01*
X109283333Y-121166000D01*
X109235714Y-121213619D01*
X109140476Y-121356476D01*
X109092857Y-121546952D01*
X109092857Y-121927904D01*
X109140476Y-122023142D01*
X109188095Y-122070761D01*
X109283333Y-122118380D01*
X109473809Y-122118380D01*
X109569047Y-122070761D01*
X109616666Y-122023142D01*
X109664285Y-121927904D01*
X109664285Y-121689809D01*
X109616666Y-121594571D01*
X109569047Y-121546952D01*
X109473809Y-121499333D01*
X109283333Y-121499333D01*
X109188095Y-121546952D01*
X109140476Y-121594571D01*
X109092857Y-121689809D01*
X112823809Y-121118380D02*
X112919047Y-121118380D01*
X113014285Y-121166000D01*
X113061904Y-121213619D01*
X113109523Y-121308857D01*
X113157142Y-121499333D01*
X113157142Y-121737428D01*
X113109523Y-121927904D01*
X113061904Y-122023142D01*
X113014285Y-122070761D01*
X112919047Y-122118380D01*
X112823809Y-122118380D01*
X112728571Y-122070761D01*
X112680952Y-122023142D01*
X112633333Y-121927904D01*
X112585714Y-121737428D01*
X112585714Y-121499333D01*
X112633333Y-121308857D01*
X112680952Y-121213619D01*
X112728571Y-121166000D01*
X112823809Y-121118380D01*
X113728571Y-121546952D02*
X113633333Y-121499333D01*
X113585714Y-121451714D01*
X113538095Y-121356476D01*
X113538095Y-121308857D01*
X113585714Y-121213619D01*
X113633333Y-121166000D01*
X113728571Y-121118380D01*
X113919047Y-121118380D01*
X114014285Y-121166000D01*
X114061904Y-121213619D01*
X114109523Y-121308857D01*
X114109523Y-121356476D01*
X114061904Y-121451714D01*
X114014285Y-121499333D01*
X113919047Y-121546952D01*
X113728571Y-121546952D01*
X113633333Y-121594571D01*
X113585714Y-121642190D01*
X113538095Y-121737428D01*
X113538095Y-121927904D01*
X113585714Y-122023142D01*
X113633333Y-122070761D01*
X113728571Y-122118380D01*
X113919047Y-122118380D01*
X114014285Y-122070761D01*
X114061904Y-122023142D01*
X114109523Y-121927904D01*
X114109523Y-121737428D01*
X114061904Y-121642190D01*
X114014285Y-121594571D01*
X113919047Y-121546952D01*
X114728571Y-121118380D02*
X114823809Y-121118380D01*
X114919047Y-121166000D01*
X114966666Y-121213619D01*
X115014285Y-121308857D01*
X115061904Y-121499333D01*
X115061904Y-121737428D01*
X115014285Y-121927904D01*
X114966666Y-122023142D01*
X114919047Y-122070761D01*
X114823809Y-122118380D01*
X114728571Y-122118380D01*
X114633333Y-122070761D01*
X114585714Y-122023142D01*
X114538095Y-121927904D01*
X114490476Y-121737428D01*
X114490476Y-121499333D01*
X114538095Y-121308857D01*
X114585714Y-121213619D01*
X114633333Y-121166000D01*
X114728571Y-121118380D01*
X115966666Y-121118380D02*
X115490476Y-121118380D01*
X115442857Y-121594571D01*
X115490476Y-121546952D01*
X115585714Y-121499333D01*
X115823809Y-121499333D01*
X115919047Y-121546952D01*
X115966666Y-121594571D01*
X116014285Y-121689809D01*
X116014285Y-121927904D01*
X115966666Y-122023142D01*
X115919047Y-122070761D01*
X115823809Y-122118380D01*
X115585714Y-122118380D01*
X115490476Y-122070761D01*
X115442857Y-122023142D01*
X119173809Y-121118380D02*
X119269047Y-121118380D01*
X119364285Y-121166000D01*
X119411904Y-121213619D01*
X119459523Y-121308857D01*
X119507142Y-121499333D01*
X119507142Y-121737428D01*
X119459523Y-121927904D01*
X119411904Y-122023142D01*
X119364285Y-122070761D01*
X119269047Y-122118380D01*
X119173809Y-122118380D01*
X119078571Y-122070761D01*
X119030952Y-122023142D01*
X118983333Y-121927904D01*
X118935714Y-121737428D01*
X118935714Y-121499333D01*
X118983333Y-121308857D01*
X119030952Y-121213619D01*
X119078571Y-121166000D01*
X119173809Y-121118380D01*
X120364285Y-121118380D02*
X120173809Y-121118380D01*
X120078571Y-121166000D01*
X120030952Y-121213619D01*
X119935714Y-121356476D01*
X119888095Y-121546952D01*
X119888095Y-121927904D01*
X119935714Y-122023142D01*
X119983333Y-122070761D01*
X120078571Y-122118380D01*
X120269047Y-122118380D01*
X120364285Y-122070761D01*
X120411904Y-122023142D01*
X120459523Y-121927904D01*
X120459523Y-121689809D01*
X120411904Y-121594571D01*
X120364285Y-121546952D01*
X120269047Y-121499333D01*
X120078571Y-121499333D01*
X119983333Y-121546952D01*
X119935714Y-121594571D01*
X119888095Y-121689809D01*
X121078571Y-121118380D02*
X121173809Y-121118380D01*
X121269047Y-121166000D01*
X121316666Y-121213619D01*
X121364285Y-121308857D01*
X121411904Y-121499333D01*
X121411904Y-121737428D01*
X121364285Y-121927904D01*
X121316666Y-122023142D01*
X121269047Y-122070761D01*
X121173809Y-122118380D01*
X121078571Y-122118380D01*
X120983333Y-122070761D01*
X120935714Y-122023142D01*
X120888095Y-121927904D01*
X120840476Y-121737428D01*
X120840476Y-121499333D01*
X120888095Y-121308857D01*
X120935714Y-121213619D01*
X120983333Y-121166000D01*
X121078571Y-121118380D01*
X121745238Y-121118380D02*
X122364285Y-121118380D01*
X122030952Y-121499333D01*
X122173809Y-121499333D01*
X122269047Y-121546952D01*
X122316666Y-121594571D01*
X122364285Y-121689809D01*
X122364285Y-121927904D01*
X122316666Y-122023142D01*
X122269047Y-122070761D01*
X122173809Y-122118380D01*
X121888095Y-122118380D01*
X121792857Y-122070761D01*
X121745238Y-122023142D01*
X131619809Y-88098380D02*
X131715047Y-88098380D01*
X131810285Y-88146000D01*
X131857904Y-88193619D01*
X131905523Y-88288857D01*
X131953142Y-88479333D01*
X131953142Y-88717428D01*
X131905523Y-88907904D01*
X131857904Y-89003142D01*
X131810285Y-89050761D01*
X131715047Y-89098380D01*
X131619809Y-89098380D01*
X131524571Y-89050761D01*
X131476952Y-89003142D01*
X131429333Y-88907904D01*
X131381714Y-88717428D01*
X131381714Y-88479333D01*
X131429333Y-88288857D01*
X131476952Y-88193619D01*
X131524571Y-88146000D01*
X131619809Y-88098380D01*
X132334095Y-88193619D02*
X132381714Y-88146000D01*
X132476952Y-88098380D01*
X132715047Y-88098380D01*
X132810285Y-88146000D01*
X132857904Y-88193619D01*
X132905523Y-88288857D01*
X132905523Y-88384095D01*
X132857904Y-88526952D01*
X132286476Y-89098380D01*
X132905523Y-89098380D01*
X133524571Y-88098380D02*
X133619809Y-88098380D01*
X133715047Y-88146000D01*
X133762666Y-88193619D01*
X133810285Y-88288857D01*
X133857904Y-88479333D01*
X133857904Y-88717428D01*
X133810285Y-88907904D01*
X133762666Y-89003142D01*
X133715047Y-89050761D01*
X133619809Y-89098380D01*
X133524571Y-89098380D01*
X133429333Y-89050761D01*
X133381714Y-89003142D01*
X133334095Y-88907904D01*
X133286476Y-88717428D01*
X133286476Y-88479333D01*
X133334095Y-88288857D01*
X133381714Y-88193619D01*
X133429333Y-88146000D01*
X133524571Y-88098380D01*
X134810285Y-89098380D02*
X134238857Y-89098380D01*
X134524571Y-89098380D02*
X134524571Y-88098380D01*
X134429333Y-88241238D01*
X134334095Y-88336476D01*
X134238857Y-88384095D01*
X125523809Y-88098380D02*
X125619047Y-88098380D01*
X125714285Y-88146000D01*
X125761904Y-88193619D01*
X125809523Y-88288857D01*
X125857142Y-88479333D01*
X125857142Y-88717428D01*
X125809523Y-88907904D01*
X125761904Y-89003142D01*
X125714285Y-89050761D01*
X125619047Y-89098380D01*
X125523809Y-89098380D01*
X125428571Y-89050761D01*
X125380952Y-89003142D01*
X125333333Y-88907904D01*
X125285714Y-88717428D01*
X125285714Y-88479333D01*
X125333333Y-88288857D01*
X125380952Y-88193619D01*
X125428571Y-88146000D01*
X125523809Y-88098380D01*
X126714285Y-88431714D02*
X126714285Y-89098380D01*
X126476190Y-88050761D02*
X126238095Y-88765047D01*
X126857142Y-88765047D01*
X127428571Y-88098380D02*
X127523809Y-88098380D01*
X127619047Y-88146000D01*
X127666666Y-88193619D01*
X127714285Y-88288857D01*
X127761904Y-88479333D01*
X127761904Y-88717428D01*
X127714285Y-88907904D01*
X127666666Y-89003142D01*
X127619047Y-89050761D01*
X127523809Y-89098380D01*
X127428571Y-89098380D01*
X127333333Y-89050761D01*
X127285714Y-89003142D01*
X127238095Y-88907904D01*
X127190476Y-88717428D01*
X127190476Y-88479333D01*
X127238095Y-88288857D01*
X127285714Y-88193619D01*
X127333333Y-88146000D01*
X127428571Y-88098380D01*
X128142857Y-88193619D02*
X128190476Y-88146000D01*
X128285714Y-88098380D01*
X128523809Y-88098380D01*
X128619047Y-88146000D01*
X128666666Y-88193619D01*
X128714285Y-88288857D01*
X128714285Y-88384095D01*
X128666666Y-88526952D01*
X128095238Y-89098380D01*
X128714285Y-89098380D01*
X119173809Y-88098380D02*
X119269047Y-88098380D01*
X119364285Y-88146000D01*
X119411904Y-88193619D01*
X119459523Y-88288857D01*
X119507142Y-88479333D01*
X119507142Y-88717428D01*
X119459523Y-88907904D01*
X119411904Y-89003142D01*
X119364285Y-89050761D01*
X119269047Y-89098380D01*
X119173809Y-89098380D01*
X119078571Y-89050761D01*
X119030952Y-89003142D01*
X118983333Y-88907904D01*
X118935714Y-88717428D01*
X118935714Y-88479333D01*
X118983333Y-88288857D01*
X119030952Y-88193619D01*
X119078571Y-88146000D01*
X119173809Y-88098380D01*
X120364285Y-88098380D02*
X120173809Y-88098380D01*
X120078571Y-88146000D01*
X120030952Y-88193619D01*
X119935714Y-88336476D01*
X119888095Y-88526952D01*
X119888095Y-88907904D01*
X119935714Y-89003142D01*
X119983333Y-89050761D01*
X120078571Y-89098380D01*
X120269047Y-89098380D01*
X120364285Y-89050761D01*
X120411904Y-89003142D01*
X120459523Y-88907904D01*
X120459523Y-88669809D01*
X120411904Y-88574571D01*
X120364285Y-88526952D01*
X120269047Y-88479333D01*
X120078571Y-88479333D01*
X119983333Y-88526952D01*
X119935714Y-88574571D01*
X119888095Y-88669809D01*
X121078571Y-88098380D02*
X121173809Y-88098380D01*
X121269047Y-88146000D01*
X121316666Y-88193619D01*
X121364285Y-88288857D01*
X121411904Y-88479333D01*
X121411904Y-88717428D01*
X121364285Y-88907904D01*
X121316666Y-89003142D01*
X121269047Y-89050761D01*
X121173809Y-89098380D01*
X121078571Y-89098380D01*
X120983333Y-89050761D01*
X120935714Y-89003142D01*
X120888095Y-88907904D01*
X120840476Y-88717428D01*
X120840476Y-88479333D01*
X120888095Y-88288857D01*
X120935714Y-88193619D01*
X120983333Y-88146000D01*
X121078571Y-88098380D01*
X121745238Y-88098380D02*
X122364285Y-88098380D01*
X122030952Y-88479333D01*
X122173809Y-88479333D01*
X122269047Y-88526952D01*
X122316666Y-88574571D01*
X122364285Y-88669809D01*
X122364285Y-88907904D01*
X122316666Y-89003142D01*
X122269047Y-89050761D01*
X122173809Y-89098380D01*
X121888095Y-89098380D01*
X121792857Y-89050761D01*
X121745238Y-89003142D01*
X112823809Y-88098380D02*
X112919047Y-88098380D01*
X113014285Y-88146000D01*
X113061904Y-88193619D01*
X113109523Y-88288857D01*
X113157142Y-88479333D01*
X113157142Y-88717428D01*
X113109523Y-88907904D01*
X113061904Y-89003142D01*
X113014285Y-89050761D01*
X112919047Y-89098380D01*
X112823809Y-89098380D01*
X112728571Y-89050761D01*
X112680952Y-89003142D01*
X112633333Y-88907904D01*
X112585714Y-88717428D01*
X112585714Y-88479333D01*
X112633333Y-88288857D01*
X112680952Y-88193619D01*
X112728571Y-88146000D01*
X112823809Y-88098380D01*
X113728571Y-88526952D02*
X113633333Y-88479333D01*
X113585714Y-88431714D01*
X113538095Y-88336476D01*
X113538095Y-88288857D01*
X113585714Y-88193619D01*
X113633333Y-88146000D01*
X113728571Y-88098380D01*
X113919047Y-88098380D01*
X114014285Y-88146000D01*
X114061904Y-88193619D01*
X114109523Y-88288857D01*
X114109523Y-88336476D01*
X114061904Y-88431714D01*
X114014285Y-88479333D01*
X113919047Y-88526952D01*
X113728571Y-88526952D01*
X113633333Y-88574571D01*
X113585714Y-88622190D01*
X113538095Y-88717428D01*
X113538095Y-88907904D01*
X113585714Y-89003142D01*
X113633333Y-89050761D01*
X113728571Y-89098380D01*
X113919047Y-89098380D01*
X114014285Y-89050761D01*
X114061904Y-89003142D01*
X114109523Y-88907904D01*
X114109523Y-88717428D01*
X114061904Y-88622190D01*
X114014285Y-88574571D01*
X113919047Y-88526952D01*
X114728571Y-88098380D02*
X114823809Y-88098380D01*
X114919047Y-88146000D01*
X114966666Y-88193619D01*
X115014285Y-88288857D01*
X115061904Y-88479333D01*
X115061904Y-88717428D01*
X115014285Y-88907904D01*
X114966666Y-89003142D01*
X114919047Y-89050761D01*
X114823809Y-89098380D01*
X114728571Y-89098380D01*
X114633333Y-89050761D01*
X114585714Y-89003142D01*
X114538095Y-88907904D01*
X114490476Y-88717428D01*
X114490476Y-88479333D01*
X114538095Y-88288857D01*
X114585714Y-88193619D01*
X114633333Y-88146000D01*
X114728571Y-88098380D01*
X115966666Y-88098380D02*
X115490476Y-88098380D01*
X115442857Y-88574571D01*
X115490476Y-88526952D01*
X115585714Y-88479333D01*
X115823809Y-88479333D01*
X115919047Y-88526952D01*
X115966666Y-88574571D01*
X116014285Y-88669809D01*
X116014285Y-88907904D01*
X115966666Y-89003142D01*
X115919047Y-89050761D01*
X115823809Y-89098380D01*
X115585714Y-89098380D01*
X115490476Y-89050761D01*
X115442857Y-89003142D01*
X106807142Y-89098380D02*
X106235714Y-89098380D01*
X106521428Y-89098380D02*
X106521428Y-88098380D01*
X106426190Y-88241238D01*
X106330952Y-88336476D01*
X106235714Y-88384095D01*
X107188095Y-88193619D02*
X107235714Y-88146000D01*
X107330952Y-88098380D01*
X107569047Y-88098380D01*
X107664285Y-88146000D01*
X107711904Y-88193619D01*
X107759523Y-88288857D01*
X107759523Y-88384095D01*
X107711904Y-88526952D01*
X107140476Y-89098380D01*
X107759523Y-89098380D01*
X108378571Y-88098380D02*
X108473809Y-88098380D01*
X108569047Y-88146000D01*
X108616666Y-88193619D01*
X108664285Y-88288857D01*
X108711904Y-88479333D01*
X108711904Y-88717428D01*
X108664285Y-88907904D01*
X108616666Y-89003142D01*
X108569047Y-89050761D01*
X108473809Y-89098380D01*
X108378571Y-89098380D01*
X108283333Y-89050761D01*
X108235714Y-89003142D01*
X108188095Y-88907904D01*
X108140476Y-88717428D01*
X108140476Y-88479333D01*
X108188095Y-88288857D01*
X108235714Y-88193619D01*
X108283333Y-88146000D01*
X108378571Y-88098380D01*
X109569047Y-88098380D02*
X109378571Y-88098380D01*
X109283333Y-88146000D01*
X109235714Y-88193619D01*
X109140476Y-88336476D01*
X109092857Y-88526952D01*
X109092857Y-88907904D01*
X109140476Y-89003142D01*
X109188095Y-89050761D01*
X109283333Y-89098380D01*
X109473809Y-89098380D01*
X109569047Y-89050761D01*
X109616666Y-89003142D01*
X109664285Y-88907904D01*
X109664285Y-88669809D01*
X109616666Y-88574571D01*
X109569047Y-88526952D01*
X109473809Y-88479333D01*
X109283333Y-88479333D01*
X109188095Y-88526952D01*
X109140476Y-88574571D01*
X109092857Y-88669809D01*
X144629214Y-118387761D02*
X144724452Y-118435380D01*
X144914928Y-118435380D01*
X145010166Y-118387761D01*
X145057785Y-118292523D01*
X145057785Y-118244904D01*
X145010166Y-118149666D01*
X144914928Y-118102047D01*
X144772071Y-118102047D01*
X144676833Y-118054428D01*
X144629214Y-117959190D01*
X144629214Y-117911571D01*
X144676833Y-117816333D01*
X144772071Y-117768714D01*
X144914928Y-117768714D01*
X145010166Y-117816333D01*
X139144428Y-118435380D02*
X139144428Y-117768714D01*
X139144428Y-117863952D02*
X139192047Y-117816333D01*
X139287285Y-117768714D01*
X139430142Y-117768714D01*
X139525380Y-117816333D01*
X139573000Y-117911571D01*
X139573000Y-118435380D01*
X139573000Y-117911571D02*
X139620619Y-117816333D01*
X139715857Y-117768714D01*
X139858714Y-117768714D01*
X139953952Y-117816333D01*
X140001571Y-117911571D01*
X140001571Y-118435380D01*
X144319666Y-125166380D02*
X144319666Y-124166380D01*
X144653000Y-124880666D01*
X144986333Y-124166380D01*
X144986333Y-125166380D01*
X139700000Y-124690190D02*
X139700000Y-125166380D01*
X139366666Y-124166380D02*
X139700000Y-124690190D01*
X140033333Y-124166380D01*
X149598095Y-125166380D02*
X149598095Y-124166380D01*
X149836190Y-124166380D01*
X149979047Y-124214000D01*
X150074285Y-124309238D01*
X150121904Y-124404476D01*
X150169523Y-124594952D01*
X150169523Y-124737809D01*
X150121904Y-124928285D01*
X150074285Y-125023523D01*
X149979047Y-125118761D01*
X149836190Y-125166380D01*
X149598095Y-125166380D01*
X139700000Y-92305190D02*
X139700000Y-92781380D01*
X139366666Y-91781380D02*
X139700000Y-92305190D01*
X140033333Y-91781380D01*
X144319666Y-92781380D02*
X144319666Y-91781380D01*
X144653000Y-92495666D01*
X144986333Y-91781380D01*
X144986333Y-92781380D01*
X149598095Y-92781380D02*
X149598095Y-91781380D01*
X149836190Y-91781380D01*
X149979047Y-91829000D01*
X150074285Y-91924238D01*
X150121904Y-92019476D01*
X150169523Y-92209952D01*
X150169523Y-92352809D01*
X150121904Y-92543285D01*
X150074285Y-92638523D01*
X149979047Y-92733761D01*
X149836190Y-92781380D01*
X149598095Y-92781380D01*
X144629214Y-86002761D02*
X144724452Y-86050380D01*
X144914928Y-86050380D01*
X145010166Y-86002761D01*
X145057785Y-85907523D01*
X145057785Y-85859904D01*
X145010166Y-85764666D01*
X144914928Y-85717047D01*
X144772071Y-85717047D01*
X144676833Y-85669428D01*
X144629214Y-85574190D01*
X144629214Y-85526571D01*
X144676833Y-85431333D01*
X144772071Y-85383714D01*
X144914928Y-85383714D01*
X145010166Y-85431333D01*
X139144428Y-86050380D02*
X139144428Y-85383714D01*
X139144428Y-85478952D02*
X139192047Y-85431333D01*
X139287285Y-85383714D01*
X139430142Y-85383714D01*
X139525380Y-85431333D01*
X139573000Y-85526571D01*
X139573000Y-86050380D01*
X139573000Y-85526571D02*
X139620619Y-85431333D01*
X139715857Y-85383714D01*
X139858714Y-85383714D01*
X139953952Y-85431333D01*
X140001571Y-85526571D01*
X140001571Y-86050380D01*
D11*
%TO.C,U1b*%
X141170000Y-100830000D02*
X139855000Y-100830000D01*
X141170000Y-100530000D02*
X141170000Y-100830000D01*
X141470000Y-100530000D02*
X141170000Y-100530000D01*
X148390000Y-100530000D02*
X148390000Y-100830000D01*
X148090000Y-100530000D02*
X148390000Y-100530000D01*
X141170000Y-107750000D02*
X141170000Y-107450000D01*
X141470000Y-107750000D02*
X141170000Y-107750000D01*
X148390000Y-107750000D02*
X148390000Y-107450000D01*
X148090000Y-107750000D02*
X148390000Y-107750000D01*
%TO.C,U1a*%
X141170000Y-67810000D02*
X139855000Y-67810000D01*
X141170000Y-67510000D02*
X141170000Y-67810000D01*
X141470000Y-67510000D02*
X141170000Y-67510000D01*
X148390000Y-67510000D02*
X148390000Y-67810000D01*
X148090000Y-67510000D02*
X148390000Y-67510000D01*
X141170000Y-74730000D02*
X141170000Y-74430000D01*
X141470000Y-74730000D02*
X141170000Y-74730000D01*
X148390000Y-74730000D02*
X148390000Y-74430000D01*
X148090000Y-74730000D02*
X148390000Y-74730000D01*
%TO.C,J1*%
X97730000Y-91500000D02*
X100390000Y-91500000D01*
X97730000Y-68580000D02*
X97730000Y-91500000D01*
X100390000Y-68580000D02*
X100390000Y-91500000D01*
X97730000Y-68580000D02*
X100390000Y-68580000D01*
X97730000Y-67310000D02*
X97730000Y-65980000D01*
X97730000Y-65980000D02*
X99060000Y-65980000D01*
%TO.C,J2*%
X97730000Y-99000000D02*
X99060000Y-99000000D01*
X97730000Y-100330000D02*
X97730000Y-99000000D01*
X97730000Y-101600000D02*
X100390000Y-101600000D01*
X100390000Y-101600000D02*
X100390000Y-124520000D01*
X97730000Y-101600000D02*
X97730000Y-124520000D01*
X97730000Y-124520000D02*
X100390000Y-124520000D01*
%TO.C,J3*%
X105680000Y-69094000D02*
X105680000Y-70694000D01*
X105680000Y-70694000D02*
X107480000Y-70694000D01*
X107480000Y-70694000D02*
X107480000Y-71634000D01*
X121650000Y-69094000D02*
X121650000Y-70694000D01*
X121650000Y-70694000D02*
X119850000Y-70694000D01*
X106950000Y-66224000D02*
X120380000Y-66224000D01*
%TO.C,J4*%
X106950000Y-99244000D02*
X120380000Y-99244000D01*
X121650000Y-103714000D02*
X119850000Y-103714000D01*
X121650000Y-102114000D02*
X121650000Y-103714000D01*
X107480000Y-103714000D02*
X107480000Y-104654000D01*
X105680000Y-103714000D02*
X107480000Y-103714000D01*
X105680000Y-102114000D02*
X105680000Y-103714000D01*
%TO.C,Q1*%
X128395000Y-103565000D02*
X128395000Y-102635000D01*
X128395000Y-100405000D02*
X128395000Y-101335000D01*
X128395000Y-100405000D02*
X126235000Y-100405000D01*
X128395000Y-103565000D02*
X126935000Y-103565000D01*
%TO.C,Q3*%
X128395000Y-70545000D02*
X126935000Y-70545000D01*
X128395000Y-67385000D02*
X126235000Y-67385000D01*
X128395000Y-67385000D02*
X128395000Y-68315000D01*
X128395000Y-70545000D02*
X128395000Y-69615000D01*
%TO.C,R1*%
X107347936Y-118470000D02*
X108552064Y-118470000D01*
X107347936Y-120290000D02*
X108552064Y-120290000D01*
%TO.C,R2*%
X108552064Y-87270000D02*
X107347936Y-87270000D01*
X108552064Y-85450000D02*
X107347936Y-85450000D01*
%TO.C,R3*%
X107347936Y-124735000D02*
X108552064Y-124735000D01*
X107347936Y-122915000D02*
X108552064Y-122915000D01*
%TO.C,R4*%
X108552064Y-89895000D02*
X107347936Y-89895000D01*
X108552064Y-91715000D02*
X107347936Y-91715000D01*
%TO.C,R5*%
X114041422Y-85650000D02*
X114558578Y-85650000D01*
X114041422Y-87070000D02*
X114558578Y-87070000D01*
%TO.C,R6*%
X114558578Y-91515000D02*
X114041422Y-91515000D01*
X114558578Y-90095000D02*
X114041422Y-90095000D01*
%TO.C,R7*%
X114041422Y-120090000D02*
X114558578Y-120090000D01*
X114041422Y-118670000D02*
X114558578Y-118670000D01*
%TO.C,R8*%
X114558578Y-123115000D02*
X114041422Y-123115000D01*
X114558578Y-124535000D02*
X114041422Y-124535000D01*
%TO.C,R9*%
X120487221Y-119890000D02*
X120812779Y-119890000D01*
X120487221Y-118870000D02*
X120812779Y-118870000D01*
%TO.C,R10*%
X120812779Y-124335000D02*
X120487221Y-124335000D01*
X120812779Y-123315000D02*
X120487221Y-123315000D01*
%TO.C,R11*%
X120487221Y-85850000D02*
X120812779Y-85850000D01*
X120487221Y-86870000D02*
X120812779Y-86870000D01*
%TO.C,R12*%
X120812779Y-90295000D02*
X120487221Y-90295000D01*
X120812779Y-91315000D02*
X120487221Y-91315000D01*
%TO.C,J5*%
X130195000Y-74380000D02*
X130195000Y-75230000D01*
X106025000Y-74380000D02*
X130195000Y-74380000D01*
X106025000Y-75230000D02*
X106025000Y-74380000D01*
X130195000Y-79600000D02*
X127870000Y-79600000D01*
X130195000Y-78750000D02*
X130195000Y-79600000D01*
X108350000Y-79600000D02*
X108350000Y-81990000D01*
X106025000Y-79600000D02*
X108350000Y-79600000D01*
X106025000Y-78750000D02*
X106025000Y-79600000D01*
%TO.C,J6*%
X106025000Y-111770000D02*
X106025000Y-112620000D01*
X106025000Y-112620000D02*
X108350000Y-112620000D01*
X108350000Y-112620000D02*
X108350000Y-115010000D01*
X130195000Y-111770000D02*
X130195000Y-112620000D01*
X130195000Y-112620000D02*
X127870000Y-112620000D01*
X106025000Y-108250000D02*
X106025000Y-107400000D01*
X106025000Y-107400000D02*
X130195000Y-107400000D01*
X130195000Y-107400000D02*
X130195000Y-108250000D01*
%TO.C,Q2*%
X134920000Y-102681000D02*
X134320000Y-102681000D01*
X133920000Y-101281000D02*
X133920000Y-101281000D01*
X135120000Y-101281000D02*
X133920000Y-101281000D01*
%TO.C,Q4*%
X135120000Y-68261000D02*
X133920000Y-68261000D01*
X133920000Y-68261000D02*
X133920000Y-68261000D01*
X134920000Y-69661000D02*
X134320000Y-69661000D01*
%TD*%
M02*
